<svg width="757" height="355" viewBox="0 0 757 355" fill="none" xmlns="http://www.w3.org/2000/svg">
<path d="M255.611 340.602C255.494 339.492 254.462 338.852 253.111 338.852C251.611 338.852 250.634 339.633 250.627 340.711C250.634 341.899 251.955 342.344 252.814 342.555L253.939 342.867C255.15 343.18 257.142 343.875 257.142 345.992C257.142 347.836 255.658 349.266 253.033 349.274C250.595 349.266 249.087 348.008 248.955 346.133H250.392C250.509 347.399 251.689 348 253.033 347.992C254.595 348 255.767 347.196 255.767 345.961C255.767 344.86 254.72 344.438 253.533 344.102L252.142 343.727C250.369 343.211 249.259 342.305 249.267 340.774C249.259 338.86 250.962 337.602 253.158 337.602C255.353 337.602 256.931 338.883 256.986 340.602H255.611ZM268.32 343.414C268.328 346.992 266.219 349.227 263.32 349.227C260.414 349.227 258.312 346.992 258.32 343.414C258.312 339.836 260.414 337.602 263.32 337.602C266.219 337.602 268.328 339.836 268.32 343.414ZM259.68 343.414C259.687 346.328 261.273 347.906 263.32 347.914C265.367 347.906 266.953 346.328 266.961 343.414C266.953 340.492 265.367 338.914 263.32 338.914C261.273 338.914 259.687 340.492 259.68 343.414ZM279.545 343.414C279.553 346.992 277.444 349.227 274.545 349.227C271.639 349.227 269.537 346.992 269.545 343.414C269.537 339.836 271.639 337.602 274.545 337.602C277.444 337.602 279.553 339.836 279.545 343.414ZM270.905 343.414C270.912 346.328 272.498 347.906 274.545 347.914C276.592 347.906 278.178 346.328 278.186 343.414C278.178 340.492 276.592 338.914 274.545 338.914C272.498 338.914 270.912 340.492 270.905 343.414ZM281.208 349.071V337.758H282.614V343.352H282.755L287.786 337.758H289.63L284.895 342.867L289.63 349.071H287.911L284.02 343.836L282.614 345.43V349.071H281.208ZM290.745 337.758H292.433L296.245 347.071H296.386L300.198 337.758H301.886V349.071H300.558V340.524H300.448L296.933 349.071H295.683L292.167 340.524H292.073V349.071H290.745V337.758ZM303.017 337.758H304.627L307.736 343.008H307.877L310.986 337.758H312.611L308.517 344.43V349.071H307.095V344.43L303.017 337.758ZM321.133 337.758H322.539V345.242C322.539 347.571 320.797 349.266 318.133 349.274C315.461 349.266 313.727 347.571 313.727 345.242V337.758H315.133V345.133C315.125 346.774 316.266 347.953 318.133 347.961C320 347.953 321.125 346.774 321.133 345.133V337.758ZM333.623 337.758V349.071H332.28L326.155 340.258H326.045V349.071H324.639V337.758H325.998L332.123 346.586H332.233V337.758H333.623ZM343.442 341.289C342.958 339.836 341.856 338.914 340.239 338.914C338.239 338.914 336.653 340.492 336.645 343.414C336.653 346.328 338.239 347.906 340.333 347.914C342.239 347.906 343.559 346.641 343.583 344.633H340.63V343.399H344.958V344.617C344.958 347.422 343.028 349.227 340.333 349.227C337.309 349.227 335.278 346.992 335.286 343.414C335.278 339.836 337.333 337.602 340.239 337.602C342.63 337.602 344.473 339.102 344.895 341.289H343.442ZM352.377 349.071L349.283 337.758H350.705L353.064 346.914H353.173L355.564 337.758H357.142L359.548 346.914H359.642L362.002 337.758H363.423L360.33 349.071H358.877L356.408 340.117H356.314L353.83 349.071H352.377ZM373.539 343.414C373.547 346.992 371.437 349.227 368.539 349.227C365.633 349.227 363.531 346.992 363.539 343.414C363.531 339.836 365.633 337.602 368.539 337.602C371.437 337.602 373.547 339.836 373.539 343.414ZM364.898 343.414C364.906 346.328 366.492 347.906 368.539 347.914C370.586 347.906 372.172 346.328 372.18 343.414C372.172 340.492 370.586 338.914 368.539 338.914C366.492 338.914 364.906 340.492 364.898 343.414ZM375.202 337.758H376.889L380.702 347.071H380.842L384.655 337.758H386.342V349.071H385.014V340.524H384.905L381.389 349.071H380.139L376.623 340.524H376.53V349.071H375.202V337.758ZM388.442 349.071V337.758H395.302V339.008H389.848V342.789H394.942V344.024H389.848V347.821H395.38V349.071H388.442ZM406.105 337.758V349.071H404.761L398.636 340.258H398.527V349.071H397.12V337.758H398.48L404.605 346.586H404.714V337.758H406.105ZM409.908 337.774L408.689 342.024H407.533L408.392 337.774H409.908ZM417.508 340.602C417.391 339.492 416.359 338.852 415.008 338.852C413.508 338.852 412.531 339.633 412.523 340.711C412.531 341.899 413.852 342.344 414.711 342.555L415.836 342.867C417.047 343.18 419.039 343.875 419.039 345.992C419.039 347.836 417.555 349.266 414.93 349.274C412.492 349.266 410.984 348.008 410.852 346.133H412.289C412.406 347.399 413.586 348 414.93 347.992C416.492 348 417.664 347.196 417.664 345.961C417.664 344.86 416.617 344.438 415.43 344.102L414.039 343.727C412.266 343.211 411.156 342.305 411.164 340.774C411.156 338.86 412.859 337.602 415.055 337.602C417.25 337.602 418.828 338.883 418.883 340.602H417.508ZM431.677 337.758H433.083V345.242C433.083 347.571 431.341 349.266 428.677 349.274C426.005 349.266 424.27 347.571 424.27 345.242V337.758H425.677V345.133C425.669 346.774 426.809 347.953 428.677 347.961C430.544 347.953 431.669 346.774 431.677 345.133V337.758ZM444.167 337.758V349.071H442.823L436.698 340.258H436.589V349.071H435.183V337.758H436.542L442.667 346.586H442.777V337.758H444.167ZM447.673 337.758V349.071H446.267V337.758H447.673ZM450.289 337.758L453.617 347.242H453.742L457.086 337.758H458.57L454.43 349.071H452.945L448.805 337.758H450.289ZM459.702 349.071V337.758H466.561V339.008H461.108V342.789H466.202V344.024H461.108V347.821H466.639V349.071H459.702ZM468.38 349.071V337.758H472.223C474.872 337.758 476.083 339.227 476.083 341.242C476.083 342.742 475.411 343.914 473.973 344.414L476.52 349.071H474.88L472.512 344.672C472.427 344.68 472.333 344.68 472.239 344.68H469.786V349.071H468.38ZM469.786 343.399H472.177C473.981 343.399 474.684 342.586 474.692 341.242C474.684 339.891 473.981 339.008 472.161 339.008H469.786V343.399ZM483.886 340.602C483.769 339.492 482.737 338.852 481.386 338.852C479.886 338.852 478.909 339.633 478.902 340.711C478.909 341.899 480.23 342.344 481.089 342.555L482.214 342.867C483.425 343.18 485.417 343.875 485.417 345.992C485.417 347.836 483.933 349.266 481.308 349.274C478.87 349.266 477.362 348.008 477.23 346.133H478.667C478.784 347.399 479.964 348 481.308 347.992C482.87 348 484.042 347.196 484.042 345.961C484.042 344.86 482.995 344.438 481.808 344.102L480.417 343.727C478.644 343.211 477.534 342.305 477.542 340.774C477.534 338.86 479.237 337.602 481.433 337.602C483.628 337.602 485.206 338.883 485.261 340.602H483.886ZM488.439 337.758V349.071H487.033V337.758H488.439ZM489.914 339.008V337.758H498.445V339.008H494.898V349.071H493.477V339.008H489.914ZM498.952 337.758H500.561L503.67 343.008H503.811L506.92 337.758H508.545L504.452 344.43V349.071H503.03V344.43L498.952 337.758Z" fill="#B2B2B2"/>
<path d="M233.614 258.06C233.614 263.45 237.114 266.74 241.804 266.74C246.564 266.74 250.064 263.45 250.064 258.06C250.064 252.74 246.564 249.45 241.804 249.45C237.114 249.45 233.614 252.74 233.614 258.06ZM268.684 253.86H258.324C258.604 255.19 258.814 256.59 258.814 258.06C258.814 259.46 258.674 260.93 258.324 262.19H268.684V253.86ZM268.684 269.54H254.474C251.324 272.83 246.844 274.79 241.804 274.79C232.284 274.79 224.864 267.72 224.864 258.06C224.864 248.47 232.284 241.4 241.804 241.4C246.844 241.4 251.184 243.29 254.334 246.51H268.684V237.55H277.924V284.73H268.684V269.54ZM244.674 293.55H279.394V300.9H235.434V280.11H244.674V293.55ZM324.678 243.22L324.608 250.43H286.598V243.22H300.948V237.06H310.258V243.22H324.678ZM298.638 263.59C298.638 266.67 301.508 268.28 305.638 268.28C309.768 268.28 312.638 266.67 312.638 263.59C312.638 260.51 309.768 258.9 305.638 258.9C301.508 258.9 298.638 260.51 298.638 263.59ZM321.458 263.59C321.458 270.38 314.948 275 305.638 275C296.328 275 289.818 270.38 289.818 263.59C289.818 256.73 296.328 252.18 305.638 252.18C314.948 252.18 321.458 256.73 321.458 263.59ZM328.248 294.11V289.63H304.658V294.11H328.248ZM328.248 282.63V277.73H337.418V301.32H295.488V277.73H304.658V282.63H328.248ZM345.958 253.02V260.58H337.418V275.28H328.178V237.55H337.418V253.02H345.958ZM364.783 280.46C368.283 280.46 370.803 277.66 370.803 272.83C370.803 268 368.283 265.13 364.783 265.13C361.283 265.13 358.763 268 358.763 272.83C358.763 277.66 361.283 280.46 364.783 280.46ZM364.783 257.43C373.043 257.43 378.923 263.8 378.923 272.83C378.923 281.79 373.043 288.16 364.783 288.16C356.523 288.16 350.643 281.79 350.643 272.83C350.643 263.8 356.523 257.43 364.783 257.43ZM369.333 239.3V247.28H380.043V254.63H349.243V247.28H360.233V239.3H369.333ZM395.863 237.48H404.613V301.95H395.863V271.22H390.963V299.29H382.353V238.74H390.963V263.8H395.863V237.48ZM415.177 243.71H444.717C444.717 263.52 439.537 280.18 416.437 292.29L411.397 285.29C421.407 280.04 427.637 274.09 431.347 267.02L412.937 268.7L411.747 260.93L434.147 259.67C434.777 256.94 435.267 254.14 435.547 251.06H415.177V243.71ZM456.617 237.55H465.857V302.02H456.617V269.75H444.577V262.26H456.617V237.55ZM490.772 283.61V293.55H527.032V300.9H481.532V283.61H490.772ZM508.272 273.04H532.842V280.32H474.532V273.04H499.032V268.49H481.812V239.58H526.192V246.58H490.982V250.64H524.722V257.36H490.982V261.56H526.682V268.49H508.272V273.04Z" fill="white"/>
<path d="M536.752 41.2532V0.431885H522.645V41.2532V52.7105V52.8612H562.37V41.2532H536.752Z" fill="white"/>
<path d="M497.692 0H489.233C480.452 0 473.266 6.54297 473.266 14.5395V38.7489C473.266 46.7454 480.452 53.2884 489.233 53.2884H497.692C506.474 53.2884 513.66 46.7454 513.66 38.7489V14.5395C513.66 6.54297 506.474 0 497.692 0ZM498.944 34.9013C498.944 37.6455 496.477 39.893 493.463 39.893C490.449 39.893 487.981 37.6455 487.981 34.9013V18.3952C487.981 15.651 490.449 13.4035 493.463 13.4035C496.477 13.4035 498.944 15.651 498.944 18.3952V34.9013Z" fill="white"/>
<path d="M594.4 0.468018C594.4 18.4765 594.42 18.5294 594.42 18.5905V34.783C594.42 37.4743 592.001 39.6811 589.044 39.6811C586.087 39.6811 583.665 37.4784 583.665 34.783V18.5905C583.665 18.5335 583.681 18.4765 583.685 0.472089H569.23V38.5614C569.23 46.4073 576.278 52.8281 584.896 52.8281H593.196C601.81 52.8281 608.862 46.4073 608.862 38.5614V0.468018H594.408H594.4Z" fill="white"/>
<path d="M665 52.8612L634.341 0.431885H617.745L632.648 25.708L617.745 45.9843L617.696 52.7879H634.292L642.156 41.8273L648.661 52.8612H665Z" fill="white"/>
<path d="M654.616 20.8548L642.976 0.431885H665L654.616 20.8548Z" fill="#61F4FF"/>
<path d="M443.031 13.2939V13.2776H458.101C462.555 13.2776 466.169 9.67022 466.169 5.22409V0.431885H439.017V0.509244C430.591 1.29505 424 8.15153 424 16.4941C424 25.366 431.448 32.5605 440.637 32.5605C440.857 32.5605 441.069 32.5442 441.285 32.532L441.024 32.5605L448.239 32.7192C450.796 33.273 452.721 35.4798 452.721 38.11V38.3461H452.738V41.1392H425.224V52.8653H466.046V36.2126C466.046 27.1372 458.358 19.7147 448.961 19.7147H443.031V19.6984C441.265 19.6211 439.849 18.2245 439.849 16.4982C439.849 14.7719 441.261 13.3753 443.031 13.298V13.2939Z" fill="white"/>
<path d="M362 4.70752L399.999 53.3245" stroke="white" stroke-width="4.6152" stroke-linecap="round"/>
<path d="M400 4.70752L362.001 53.3245" stroke="white" stroke-width="4.6152" stroke-linecap="round"/>
<path d="M6.40879 184V99.6371H26.2178V133.662H60.1261V99.6371H79.935V184H60.1261V149.859H26.2178V184H6.40879ZM110.231 184H88.7908L117.456 99.6371H143.79L172.338 184H151.014L145.305 165.939H115.941L110.231 184ZM120.718 150.791H140.527L130.972 120.495H130.273L120.718 150.791ZM233.396 130.05C232.289 121.369 226.055 115.892 216.617 115.95C204.207 115.892 196.575 125.389 196.575 141.819C196.575 158.831 204.382 167.687 216.5 167.687C225.589 167.687 231.882 162.793 233.396 154.52L253.438 154.636C251.865 169.668 238.989 185.165 216.151 185.165C193.312 185.165 176.3 169.551 176.3 141.819C176.3 113.969 193.662 98.4718 216.151 98.4718C236.368 98.4718 251.341 109.949 253.438 130.05H233.396ZM264.974 184V99.6371H284.783V135.643H285.948L314.264 99.6371H337.801L307.622 137.274L338.267 184H314.497L293.173 150.558L284.783 160.928V184H264.974ZM363.203 184H341.763L370.428 99.6371H396.762L425.31 184H403.987L398.277 165.939H368.913L363.203 184ZM373.69 150.791H393.499L383.945 120.495H383.245L373.69 150.791ZM420.882 115.834V99.6371H491.845V115.834H466.21V184H446.518V115.834H420.882ZM501.75 184V99.6371H521.559V133.662H555.467V99.6371H575.276V184H555.467V149.859H521.559V184H501.75ZM667.213 141.819C667.271 169.609 649.734 185.165 627.129 185.165C604.407 185.165 587.045 169.493 587.045 141.819C587.045 113.969 604.407 98.4718 627.129 98.4718C649.734 98.4718 667.271 113.969 667.213 141.819ZM607.32 141.819C607.32 158.598 614.836 167.687 627.129 167.687C639.48 167.687 646.996 158.598 646.938 141.819C646.996 125.039 639.48 115.892 627.129 115.95C614.836 115.892 607.32 125.039 607.32 141.819ZM750.527 99.6371V184H733.631L699.373 134.478H698.791V184H678.982V99.6371H696.111L730.019 149.16H730.718V99.6371H750.527Z" fill="#B8E9FF"/>
<path d="M91.0708 1.36719H103.297C112.019 1.36719 118.227 2.82164 121.922 5.72811C122.588 6.08441 123.65 7.03859 125.104 8.58822C129.68 13.6886 131.966 20.1336 131.966 27.9281C131.966 34.6488 130.073 40.4276 126.283 45.2644C124.662 47.0752 123.352 48.3027 122.351 48.9469C120.992 49.9231 119.789 50.6259 118.742 51.0554C116.167 52.3415 111.045 52.9857 103.37 52.9857H91.0708C91.022 52.9857 91 52.9613 91 52.9149V21.7442C91 21.7198 91.0244 21.7076 91.0708 21.7076H100.722C100.769 21.7076 100.793 21.7198 100.793 21.7442V43.3707H105.513C110.733 43.3707 114.33 42.6191 116.309 41.1182C117.334 40.4032 118.298 39.4149 119.206 38.1508C121.087 35.3614 122.029 31.8717 122.029 27.6767C122.029 21.671 120.194 17.1563 116.524 14.1278C113.688 11.9364 109.696 10.8382 104.549 10.8382H91.0708C91.022 10.8382 91 10.826 91 10.8016V1.43796C91 1.39159 91.0244 1.36719 91.0708 1.36719Z" fill="white"/>
<path d="M167.287 1.65259C167.358 1.65259 167.919 3.17781 168.966 6.22827C175.518 24.6969 178.857 34.146 178.976 34.5755H168.966C168.895 34.4559 168.263 32.6696 167.072 29.214L162.567 16.5949H162.531C162.006 18.1202 157.669 30.2024 149.519 52.8441C149.519 52.9392 149.482 52.988 149.411 52.988H139.508C139.459 52.988 139.438 52.9636 139.438 52.9173C141.058 48.4124 145.836 35.1514 153.772 13.1296C156.418 5.789 157.799 1.96495 157.918 1.65503H167.284L167.287 1.65259ZM172.185 43.4413H182.088C182.158 43.4413 182.361 43.9782 182.695 45.0495L185.519 52.949L185.448 52.9856H175.511C175.462 52.9612 175.069 51.9021 174.332 49.8034L172.116 43.4755L172.187 43.4389L172.185 43.4413Z" fill="white"/>
<path d="M219.119 1.36719C225.65 1.36719 231.631 3.52447 237.066 7.83659C238.256 8.83714 239.413 9.96946 240.533 11.2336C240.485 11.3287 238.305 13.4153 233.991 17.4882H233.954C229.498 12.793 224.493 10.4453 218.941 10.4453C213.101 10.4453 208.43 12.9125 204.928 17.8445C203.164 20.6094 202.283 23.5647 202.283 26.7103V27.462C202.283 32.1328 203.879 36.0887 207.074 39.3295C210.41 42.4287 214.426 43.9759 219.122 43.9759C223.507 43.9759 227.355 42.6069 230.667 39.8639C231.502 39.244 232.597 38.2801 233.957 36.9672H233.993C234.04 36.9672 236.15 39.1489 240.321 43.5098V43.5464C238.486 45.3108 236.973 46.6457 235.782 47.551C232.78 49.6961 230.252 51.0432 228.205 51.5898C225.44 52.5196 222.365 52.9833 218.983 52.9833C209.736 52.9833 202.552 49.4448 197.427 42.3653C194.425 38.0531 192.922 32.9748 192.922 27.1374C192.922 19.4161 195.638 13.0882 201.073 8.15627C206.405 3.63184 212.423 1.36719 219.119 1.36719Z" fill="white"/>
<path d="M273.598 1.58203C281.844 1.58203 288.685 5.13276 294.117 12.2342C297.309 16.6195 298.907 21.6955 298.907 27.4621C298.907 36.3743 295.083 43.5367 287.433 48.947C286.003 49.8768 284.561 50.6504 283.109 51.2702C280.107 52.4148 276.937 52.9858 273.601 52.9858C264.33 52.9858 257.05 48.9226 251.76 40.7962C249.28 36.6744 248.043 32.1817 248.043 27.3205C248.043 20.8145 250.212 15.0601 254.549 10.055C255.764 8.7689 256.838 7.76591 257.765 7.05332C262.556 3.40742 267.834 1.58447 273.601 1.58447L273.598 1.58203ZM257.441 27.1058V27.75C257.441 33.5654 259.884 38.1045 264.769 41.3697C267.439 43.1097 270.392 43.9784 273.635 43.9784C279.162 43.9784 283.631 41.4893 287.04 36.5061C288.731 33.7899 289.578 30.7395 289.578 27.3547C289.578 21.898 287.421 17.4297 283.109 13.9498C280.344 11.7803 277.127 10.6968 273.457 10.6968C267.881 10.6968 263.422 13.0908 260.086 17.8812C258.322 20.6705 257.441 23.743 257.441 27.1033V27.1058Z" fill="white"/>
<path d="M321.391 1.79663C325.586 1.79663 329.385 3.46584 332.795 6.80181C333.866 7.85117 334.761 8.80291 335.477 9.66192C335.452 9.68632 333.166 11.6996 328.614 15.7043L327.113 13.8447C325.159 11.7484 323.204 10.6991 321.252 10.6991C319.441 10.6991 318.143 11.4019 317.354 12.8075C317.21 13.1175 317.14 13.4518 317.14 13.8081V13.9521C317.14 15.121 317.818 16.2997 319.177 17.4906C321.774 19.9212 325.027 22.7447 328.936 25.9635C330.842 27.6547 332.214 29.0506 333.048 30.1463C335.24 32.8405 336.338 35.8421 336.338 39.1537C336.338 44.2296 334.134 48.1611 329.725 50.9504C327.34 52.3097 324.541 52.9881 321.325 52.9881C314.365 52.9881 309.172 49.4618 305.738 42.4067C310.814 39.3099 313.411 37.748 313.53 37.7236C315.866 42.0138 318.548 44.1589 321.574 44.1589C323.934 44.1589 325.686 43.1827 326.828 41.228C327.089 40.6326 327.221 40.0835 327.221 39.5832C327.221 37.7236 325.969 35.7591 323.468 33.6848C322.562 32.8258 320.727 31.2786 317.962 29.0384C316.556 27.8475 314.792 26.1783 312.671 24.0332C309.572 20.768 308.025 17.515 308.025 14.2742V13.9521C308.025 9.90107 309.98 6.54069 313.887 3.87094C316.078 2.48969 318.582 1.79663 321.393 1.79663H321.391Z" fill="white"/>
</svg>
