<svg width="757" height="359" viewBox="0 0 757 359" fill="none" xmlns="http://www.w3.org/2000/svg">
<g filter="url(#filter0_d_662_860)">
<mask id="path-1-outside-1_662_860" maskUnits="userSpaceOnUse" x="239" y="336" width="280" height="16" fill="black">
<rect fill="white" x="239" y="336" width="280" height="16"/>
<path d="M247.93 341.002C247.798 339.823 246.718 339.143 245.274 339.143C243.68 339.143 242.634 339.973 242.634 341.118C242.634 342.38 244.046 342.845 244.959 343.077L246.154 343.409C247.449 343.741 249.557 344.488 249.557 346.729C249.557 348.688 247.98 350.216 245.191 350.216C242.601 350.216 240.991 348.871 240.858 346.879H242.385C242.518 348.224 243.763 348.854 245.191 348.854C246.851 348.854 248.096 348.008 248.096 346.696C248.096 345.534 246.984 345.086 245.722 344.721L244.245 344.322C242.352 343.774 241.19 342.812 241.19 341.185C241.19 339.159 243 337.814 245.324 337.814C247.648 337.814 249.325 339.176 249.391 341.002H247.93ZM261.434 343.99C261.434 347.792 259.193 350.166 256.122 350.166C253.034 350.166 250.809 347.792 250.809 343.99C250.809 340.188 253.034 337.814 256.122 337.814C259.193 337.814 261.434 340.188 261.434 343.99ZM259.99 343.99C259.99 340.886 258.296 339.209 256.122 339.209C253.947 339.209 252.253 340.886 252.253 343.99C252.253 347.095 253.947 348.771 256.122 348.771C258.296 348.771 259.99 347.095 259.99 343.99ZM273.361 343.99C273.361 347.792 271.119 350.166 268.048 350.166C264.96 350.166 262.736 347.792 262.736 343.99C262.736 340.188 264.96 337.814 268.048 337.814C271.119 337.814 273.361 340.188 273.361 343.99ZM271.916 343.99C271.916 340.886 270.223 339.209 268.048 339.209C265.873 339.209 264.18 340.886 264.18 343.99C264.18 347.095 265.873 348.771 268.048 348.771C270.223 348.771 271.916 347.095 271.916 343.99ZM275.127 350V337.98H276.621V343.924H276.771L282.116 337.98H284.075L279.045 343.409L284.075 350H282.249L278.115 344.438L276.621 346.132V350H275.127ZM285.261 337.98H287.054L291.104 347.875H291.254L295.305 337.98H297.098V350H295.686V340.919H295.57L291.835 350H290.507L286.771 340.919H286.672V350H285.261V337.98ZM298.3 337.98H300.009L303.313 343.559H303.463L306.766 337.98H308.493L304.143 345.069V350H302.633V345.069L298.3 337.98ZM317.547 337.98H319.042V345.933C319.042 348.406 317.199 350.216 314.36 350.216C311.521 350.216 309.678 348.406 309.678 345.933V337.98H311.172V345.816C311.172 347.56 312.384 348.821 314.36 348.821C316.352 348.821 317.547 347.56 317.547 345.816V337.98ZM330.819 337.98V350H329.391L322.883 340.637H322.767V350H321.273V337.98H322.717L329.225 347.36H329.341V337.98H330.819ZM341.251 341.732C340.736 340.188 339.558 339.209 337.848 339.209C335.723 339.209 334.029 340.886 334.029 343.99C334.029 347.095 335.723 348.771 337.947 348.771C339.981 348.771 341.367 347.41 341.4 345.285H338.263V343.974H342.861V345.269C342.861 348.257 340.803 350.166 337.947 350.166C334.743 350.166 332.585 347.792 332.585 343.99C332.585 340.188 334.76 337.814 337.848 337.814C340.388 337.814 342.347 339.408 342.795 341.732H341.251ZM350.744 350L347.457 337.98H348.967L351.474 347.709H351.591L354.131 337.98H355.807L358.364 347.709H358.464L360.97 337.98H362.481L359.194 350H357.65L355.027 340.487H354.927L352.288 350H350.744ZM373.229 343.99C373.229 347.792 370.988 350.166 367.917 350.166C364.829 350.166 362.604 347.792 362.604 343.99C362.604 340.188 364.829 337.814 367.917 337.814C370.988 337.814 373.229 340.188 373.229 343.99ZM371.785 343.99C371.785 340.886 370.091 339.209 367.917 339.209C365.742 339.209 364.048 340.886 364.048 343.99C364.048 347.095 365.742 348.771 367.917 348.771C370.091 348.771 371.785 347.095 371.785 343.99ZM374.995 337.98H376.788L380.839 347.875H380.989L385.039 337.98H386.832V350H385.421V340.919H385.305L381.57 350H380.242L376.506 340.919H376.407V350H374.995V337.98ZM389.064 350V337.98H396.352V339.309H390.558V343.326H395.97V344.638H390.558V348.672H396.435V350H389.064ZM407.83 337.98V350H406.402L399.894 340.637H399.778V350H398.284V337.98H399.728L406.236 347.36H406.352V337.98H407.83ZM411.871 337.997L410.576 342.513H409.347L410.26 337.997H411.871ZM419.946 341.002C419.813 339.823 418.734 339.143 417.29 339.143C415.696 339.143 414.65 339.973 414.65 341.118C414.65 342.38 416.061 342.845 416.974 343.077L418.169 343.409C419.464 343.741 421.573 344.488 421.573 346.729C421.573 348.688 419.996 350.216 417.207 350.216C414.617 350.216 413.006 348.871 412.874 346.879H414.401C414.534 348.224 415.779 348.854 417.207 348.854C418.867 348.854 420.112 348.008 420.112 346.696C420.112 345.534 419 345.086 417.738 344.721L416.26 344.322C414.368 343.774 413.206 342.812 413.206 341.185C413.206 339.159 415.015 337.814 417.339 337.814C419.664 337.814 421.34 339.176 421.407 341.002H419.946ZM435 337.98H436.494V345.933C436.494 348.406 434.651 350.216 431.813 350.216C428.974 350.216 427.131 348.406 427.131 345.933V337.98H428.625V345.816C428.625 347.56 429.837 348.821 431.813 348.821C433.805 348.821 435 347.56 435 345.816V337.98ZM448.271 337.98V350H446.844L440.336 340.637H440.22V350H438.725V337.98H440.17L446.678 347.36H446.794V337.98H448.271ZM451.997 337.98V350H450.503V337.98H451.997ZM454.776 337.98L458.312 348.058H458.445L461.998 337.98H463.575L459.175 350H457.598L453.199 337.98H454.776ZM464.777 350V337.98H472.065V339.309H466.271V343.326H471.683V344.638H466.271V348.672H472.148V350H464.777ZM473.997 350V337.98H478.081C480.903 337.98 482.182 339.541 482.182 341.683C482.182 343.268 481.468 344.521 479.941 345.053L482.647 350H480.903L478.397 345.318C478.297 345.335 478.197 345.335 478.098 345.335H475.491V350H473.997ZM475.491 343.974H478.031C479.941 343.974 480.704 343.11 480.704 341.683C480.704 340.238 479.941 339.309 478.015 339.309H475.491V343.974ZM490.473 341.002C490.34 339.823 489.261 339.143 487.816 339.143C486.223 339.143 485.177 339.973 485.177 341.118C485.177 342.38 486.588 342.845 487.501 343.077L488.696 343.409C489.991 343.741 492.1 344.488 492.1 346.729C492.1 348.688 490.522 350.216 487.733 350.216C485.143 350.216 483.533 348.871 483.4 346.879H484.928C485.06 348.224 486.306 348.854 487.733 348.854C489.393 348.854 490.639 348.008 490.639 346.696C490.639 345.534 489.526 345.086 488.265 344.721L486.787 344.322C484.894 343.774 483.732 342.812 483.732 341.185C483.732 339.159 485.542 337.814 487.866 337.814C490.19 337.814 491.867 339.176 491.934 341.002H490.473ZM495.31 337.98V350H493.816V337.98H495.31ZM496.877 339.309V337.98H505.942V339.309H502.173V350H500.663V339.309H496.877ZM506.48 337.98H508.19L511.493 343.559H511.643L514.947 337.98H516.673L512.324 345.069V350H510.813V345.069L506.48 337.98Z"/>
</mask>
<path d="M247.93 341.002C247.798 339.823 246.718 339.143 245.274 339.143C243.68 339.143 242.634 339.973 242.634 341.118C242.634 342.38 244.046 342.845 244.959 343.077L246.154 343.409C247.449 343.741 249.557 344.488 249.557 346.729C249.557 348.688 247.98 350.216 245.191 350.216C242.601 350.216 240.991 348.871 240.858 346.879H242.385C242.518 348.224 243.763 348.854 245.191 348.854C246.851 348.854 248.096 348.008 248.096 346.696C248.096 345.534 246.984 345.086 245.722 344.721L244.245 344.322C242.352 343.774 241.19 342.812 241.19 341.185C241.19 339.159 243 337.814 245.324 337.814C247.648 337.814 249.325 339.176 249.391 341.002H247.93ZM261.434 343.99C261.434 347.792 259.193 350.166 256.122 350.166C253.034 350.166 250.809 347.792 250.809 343.99C250.809 340.188 253.034 337.814 256.122 337.814C259.193 337.814 261.434 340.188 261.434 343.99ZM259.99 343.99C259.99 340.886 258.296 339.209 256.122 339.209C253.947 339.209 252.253 340.886 252.253 343.99C252.253 347.095 253.947 348.771 256.122 348.771C258.296 348.771 259.99 347.095 259.99 343.99ZM273.361 343.99C273.361 347.792 271.119 350.166 268.048 350.166C264.96 350.166 262.736 347.792 262.736 343.99C262.736 340.188 264.96 337.814 268.048 337.814C271.119 337.814 273.361 340.188 273.361 343.99ZM271.916 343.99C271.916 340.886 270.223 339.209 268.048 339.209C265.873 339.209 264.18 340.886 264.18 343.99C264.18 347.095 265.873 348.771 268.048 348.771C270.223 348.771 271.916 347.095 271.916 343.99ZM275.127 350V337.98H276.621V343.924H276.771L282.116 337.98H284.075L279.045 343.409L284.075 350H282.249L278.115 344.438L276.621 346.132V350H275.127ZM285.261 337.98H287.054L291.104 347.875H291.254L295.305 337.98H297.098V350H295.686V340.919H295.57L291.835 350H290.507L286.771 340.919H286.672V350H285.261V337.98ZM298.3 337.98H300.009L303.313 343.559H303.463L306.766 337.98H308.493L304.143 345.069V350H302.633V345.069L298.3 337.98ZM317.547 337.98H319.042V345.933C319.042 348.406 317.199 350.216 314.36 350.216C311.521 350.216 309.678 348.406 309.678 345.933V337.98H311.172V345.816C311.172 347.56 312.384 348.821 314.36 348.821C316.352 348.821 317.547 347.56 317.547 345.816V337.98ZM330.819 337.98V350H329.391L322.883 340.637H322.767V350H321.273V337.98H322.717L329.225 347.36H329.341V337.98H330.819ZM341.251 341.732C340.736 340.188 339.558 339.209 337.848 339.209C335.723 339.209 334.029 340.886 334.029 343.99C334.029 347.095 335.723 348.771 337.947 348.771C339.981 348.771 341.367 347.41 341.4 345.285H338.263V343.974H342.861V345.269C342.861 348.257 340.803 350.166 337.947 350.166C334.743 350.166 332.585 347.792 332.585 343.99C332.585 340.188 334.76 337.814 337.848 337.814C340.388 337.814 342.347 339.408 342.795 341.732H341.251ZM350.744 350L347.457 337.98H348.967L351.474 347.709H351.591L354.131 337.98H355.807L358.364 347.709H358.464L360.97 337.98H362.481L359.194 350H357.65L355.027 340.487H354.927L352.288 350H350.744ZM373.229 343.99C373.229 347.792 370.988 350.166 367.917 350.166C364.829 350.166 362.604 347.792 362.604 343.99C362.604 340.188 364.829 337.814 367.917 337.814C370.988 337.814 373.229 340.188 373.229 343.99ZM371.785 343.99C371.785 340.886 370.091 339.209 367.917 339.209C365.742 339.209 364.048 340.886 364.048 343.99C364.048 347.095 365.742 348.771 367.917 348.771C370.091 348.771 371.785 347.095 371.785 343.99ZM374.995 337.98H376.788L380.839 347.875H380.989L385.039 337.98H386.832V350H385.421V340.919H385.305L381.57 350H380.242L376.506 340.919H376.407V350H374.995V337.98ZM389.064 350V337.98H396.352V339.309H390.558V343.326H395.97V344.638H390.558V348.672H396.435V350H389.064ZM407.83 337.98V350H406.402L399.894 340.637H399.778V350H398.284V337.98H399.728L406.236 347.36H406.352V337.98H407.83ZM411.871 337.997L410.576 342.513H409.347L410.26 337.997H411.871ZM419.946 341.002C419.813 339.823 418.734 339.143 417.29 339.143C415.696 339.143 414.65 339.973 414.65 341.118C414.65 342.38 416.061 342.845 416.974 343.077L418.169 343.409C419.464 343.741 421.573 344.488 421.573 346.729C421.573 348.688 419.996 350.216 417.207 350.216C414.617 350.216 413.006 348.871 412.874 346.879H414.401C414.534 348.224 415.779 348.854 417.207 348.854C418.867 348.854 420.112 348.008 420.112 346.696C420.112 345.534 419 345.086 417.738 344.721L416.26 344.322C414.368 343.774 413.206 342.812 413.206 341.185C413.206 339.159 415.015 337.814 417.339 337.814C419.664 337.814 421.34 339.176 421.407 341.002H419.946ZM435 337.98H436.494V345.933C436.494 348.406 434.651 350.216 431.813 350.216C428.974 350.216 427.131 348.406 427.131 345.933V337.98H428.625V345.816C428.625 347.56 429.837 348.821 431.813 348.821C433.805 348.821 435 347.56 435 345.816V337.98ZM448.271 337.98V350H446.844L440.336 340.637H440.22V350H438.725V337.98H440.17L446.678 347.36H446.794V337.98H448.271ZM451.997 337.98V350H450.503V337.98H451.997ZM454.776 337.98L458.312 348.058H458.445L461.998 337.98H463.575L459.175 350H457.598L453.199 337.98H454.776ZM464.777 350V337.98H472.065V339.309H466.271V343.326H471.683V344.638H466.271V348.672H472.148V350H464.777ZM473.997 350V337.98H478.081C480.903 337.98 482.182 339.541 482.182 341.683C482.182 343.268 481.468 344.521 479.941 345.053L482.647 350H480.903L478.397 345.318C478.297 345.335 478.197 345.335 478.098 345.335H475.491V350H473.997ZM475.491 343.974H478.031C479.941 343.974 480.704 343.11 480.704 341.683C480.704 340.238 479.941 339.309 478.015 339.309H475.491V343.974ZM490.473 341.002C490.34 339.823 489.261 339.143 487.816 339.143C486.223 339.143 485.177 339.973 485.177 341.118C485.177 342.38 486.588 342.845 487.501 343.077L488.696 343.409C489.991 343.741 492.1 344.488 492.1 346.729C492.1 348.688 490.522 350.216 487.733 350.216C485.143 350.216 483.533 348.871 483.4 346.879H484.928C485.06 348.224 486.306 348.854 487.733 348.854C489.393 348.854 490.639 348.008 490.639 346.696C490.639 345.534 489.526 345.086 488.265 344.721L486.787 344.322C484.894 343.774 483.732 342.812 483.732 341.185C483.732 339.159 485.542 337.814 487.866 337.814C490.19 337.814 491.867 339.176 491.934 341.002H490.473ZM495.31 337.98V350H493.816V337.98H495.31ZM496.877 339.309V337.98H505.942V339.309H502.173V350H500.663V339.309H496.877ZM506.48 337.98H508.19L511.493 343.559H511.643L514.947 337.98H516.673L512.324 345.069V350H510.813V345.069L506.48 337.98Z" fill="#B2B2B2"/>
<path d="M247.93 341.002L246.937 341.114L247.037 342.002H247.93V341.002ZM244.959 343.077L245.226 342.114L245.216 342.111L245.205 342.108L244.959 343.077ZM246.154 343.409L245.886 344.373L245.896 344.375L245.906 344.378L246.154 343.409ZM240.858 346.879V345.879H239.789L239.86 346.945L240.858 346.879ZM242.385 346.879L243.381 346.781L243.292 345.879H242.385V346.879ZM245.722 344.721L246 343.76L245.992 343.758L245.983 343.755L245.722 344.721ZM244.245 344.322L243.967 345.283L243.976 345.285L243.984 345.288L244.245 344.322ZM249.391 341.002V342.002H250.428L250.391 340.966L249.391 341.002ZM248.924 340.89C248.71 338.989 246.974 338.143 245.274 338.143V340.143C246.463 340.143 246.885 340.658 246.937 341.114L248.924 340.89ZM245.274 338.143C244.313 338.143 243.424 338.392 242.751 338.905C242.06 339.431 241.634 340.211 241.634 341.118H243.634C243.634 340.88 243.732 340.672 243.962 340.496C244.21 340.308 244.642 340.143 245.274 340.143V338.143ZM241.634 341.118C241.634 342.201 242.269 342.906 242.91 343.323C243.524 343.721 244.242 343.927 244.712 344.046L245.205 342.108C244.762 341.995 244.319 341.852 243.999 341.645C243.706 341.455 243.634 341.297 243.634 341.118H241.634ZM244.691 344.041L245.886 344.373L246.422 342.446L245.226 342.114L244.691 344.041ZM245.906 344.378C246.525 344.537 247.22 344.769 247.747 345.158C248.233 345.516 248.557 345.986 248.557 346.729H250.557C250.557 345.232 249.827 344.207 248.935 343.549C248.085 342.921 247.078 342.614 246.402 342.441L245.906 344.378ZM248.557 346.729C248.557 347.423 248.286 348.012 247.775 348.443C247.253 348.884 246.408 349.216 245.191 349.216V351.216C246.763 351.216 248.102 350.784 249.065 349.972C250.04 349.149 250.557 347.995 250.557 346.729H248.557ZM245.191 349.216C244.063 349.216 243.248 348.923 242.722 348.509C242.21 348.106 241.904 347.537 241.856 346.812L239.86 346.945C239.945 348.213 240.51 349.313 241.484 350.08C242.444 350.836 243.729 351.216 245.191 351.216V349.216ZM240.858 347.879H242.385V345.879H240.858V347.879ZM241.39 346.977C241.489 347.978 242.02 348.735 242.762 349.212C243.473 349.67 244.345 349.854 245.191 349.854V347.854C244.61 347.854 244.145 347.724 243.844 347.53C243.572 347.355 243.415 347.124 243.381 346.781L241.39 346.977ZM245.191 349.854C246.179 349.854 247.125 349.604 247.853 349.077C248.602 348.535 249.096 347.707 249.096 346.696H247.096C247.096 346.997 246.968 347.248 246.68 347.457C246.37 347.682 245.863 347.854 245.191 347.854V349.854ZM249.096 346.696C249.096 345.717 248.594 345.034 247.953 344.589C247.369 344.182 246.63 343.942 246 343.76L245.444 345.681C246.076 345.864 246.525 346.031 246.812 346.231C247.042 346.391 247.096 346.513 247.096 346.696H249.096ZM245.983 343.755L244.505 343.357L243.984 345.288L245.462 345.686L245.983 343.755ZM244.523 343.362C243.658 343.111 243.069 342.795 242.705 342.441C242.371 342.117 242.19 341.728 242.19 341.185H240.19C240.19 342.269 240.59 343.174 241.311 343.875C242.001 344.547 242.939 344.985 243.967 345.283L244.523 343.362ZM242.19 341.185C242.19 339.915 243.324 338.814 245.324 338.814V336.814C242.676 336.814 240.19 338.403 240.19 341.185H242.19ZM245.324 338.814C247.299 338.814 248.351 339.921 248.392 341.038L250.391 340.966C250.298 338.431 247.997 336.814 245.324 336.814V338.814ZM249.391 340.002H247.93V342.002H249.391V340.002ZM260.434 343.99C260.434 345.697 259.933 346.99 259.18 347.842C258.435 348.685 257.385 349.166 256.122 349.166V351.166C257.929 351.166 259.536 350.46 260.679 349.166C261.815 347.88 262.434 346.085 262.434 343.99H260.434ZM256.122 349.166C254.849 349.166 253.8 348.684 253.058 347.842C252.307 346.991 251.809 345.699 251.809 343.99H249.809C249.809 346.084 250.423 347.879 251.557 349.165C252.699 350.461 254.306 351.166 256.122 351.166V349.166ZM251.809 343.99C251.809 342.282 252.307 340.989 253.058 340.138C253.8 339.296 254.849 338.814 256.122 338.814V336.814C254.306 336.814 252.699 337.52 251.557 338.815C250.423 340.102 249.809 341.897 249.809 343.99H251.809ZM256.122 338.814C257.385 338.814 258.435 339.295 259.18 340.139C259.933 340.991 260.434 342.284 260.434 343.99H262.434C262.434 341.895 261.815 340.1 260.679 338.815C259.536 337.52 257.929 336.814 256.122 336.814V338.814ZM260.99 343.99C260.99 342.261 260.517 340.814 259.629 339.783C258.731 338.741 257.481 338.209 256.122 338.209V340.209C256.937 340.209 257.621 340.516 258.113 341.088C258.616 341.671 258.99 342.615 258.99 343.99H260.99ZM256.122 338.209C254.763 338.209 253.512 338.741 252.614 339.783C251.726 340.814 251.253 342.261 251.253 343.99H253.253C253.253 342.615 253.627 341.671 254.13 341.088C254.623 340.516 255.306 340.209 256.122 340.209V338.209ZM251.253 343.99C251.253 345.72 251.726 347.167 252.614 348.198C253.512 349.24 254.763 349.771 256.122 349.771V347.771C255.306 347.771 254.623 347.465 254.13 346.892C253.627 346.309 253.253 345.365 253.253 343.99H251.253ZM256.122 349.771C257.481 349.771 258.731 349.24 259.629 348.198C260.517 347.167 260.99 345.72 260.99 343.99H258.99C258.99 345.365 258.616 346.309 258.113 346.892C257.621 347.465 256.937 347.771 256.122 347.771V349.771ZM272.361 343.99C272.361 345.697 271.859 346.99 271.107 347.842C270.362 348.685 269.312 349.166 268.048 349.166V351.166C269.856 351.166 271.462 350.46 272.606 349.166C273.741 347.88 274.361 346.085 274.361 343.99H272.361ZM268.048 349.166C266.775 349.166 265.726 348.684 264.984 347.842C264.234 346.991 263.736 345.699 263.736 343.99H261.736C261.736 346.084 262.35 347.879 263.484 349.165C264.626 350.461 266.233 351.166 268.048 351.166V349.166ZM263.736 343.99C263.736 342.282 264.234 340.989 264.984 340.138C265.726 339.296 266.775 338.814 268.048 338.814V336.814C266.233 336.814 264.626 337.52 263.484 338.815C262.35 340.102 261.736 341.897 261.736 343.99H263.736ZM268.048 338.814C269.312 338.814 270.362 339.295 271.107 340.139C271.859 340.991 272.361 342.284 272.361 343.99H274.361C274.361 341.895 273.741 340.1 272.606 338.815C271.462 337.52 269.856 336.814 268.048 336.814V338.814ZM272.916 343.99C272.916 342.261 272.443 340.814 271.556 339.783C270.658 338.741 269.407 338.209 268.048 338.209V340.209C268.864 340.209 269.547 340.516 270.04 341.088C270.542 341.671 270.916 342.615 270.916 343.99H272.916ZM268.048 338.209C266.689 338.209 265.438 338.741 264.541 339.783C263.653 340.814 263.18 342.261 263.18 343.99H265.18C265.18 342.615 265.554 341.671 266.056 341.088C266.549 340.516 267.232 340.209 268.048 340.209V338.209ZM263.18 343.99C263.18 345.72 263.653 347.167 264.541 348.198C265.438 349.24 266.689 349.771 268.048 349.771V347.771C267.232 347.771 266.549 347.465 266.056 346.892C265.554 346.309 265.18 345.365 265.18 343.99H263.18ZM268.048 349.771C269.407 349.771 270.658 349.24 271.556 348.198C272.443 347.167 272.916 345.72 272.916 343.99H270.916C270.916 345.365 270.542 346.309 270.04 346.892C269.547 347.465 268.864 347.771 268.048 347.771V349.771ZM275.127 350H274.127V351H275.127V350ZM275.127 337.98V336.98H274.127V337.98H275.127ZM276.621 337.98H277.621V336.98H276.621V337.98ZM276.621 343.924H275.621V344.924H276.621V343.924ZM276.771 343.924V344.924H277.216L277.514 344.593L276.771 343.924ZM282.116 337.98V336.98H281.671L281.373 337.312L282.116 337.98ZM284.075 337.98L284.809 338.66L286.365 336.98H284.075V337.98ZM279.045 343.409L278.312 342.73L277.739 343.347L278.25 344.016L279.045 343.409ZM284.075 350V351H286.096L284.87 349.393L284.075 350ZM282.249 350L281.447 350.597L281.746 351H282.249V350ZM278.115 344.438L278.918 343.842L278.182 342.852L277.365 343.777L278.115 344.438ZM276.621 346.132L275.871 345.47L275.621 345.754V346.132H276.621ZM276.621 350V351H277.621V350H276.621ZM276.127 350V337.98H274.127V350H276.127ZM275.127 338.98H276.621V336.98H275.127V338.98ZM275.621 337.98V343.924H277.621V337.98H275.621ZM276.621 344.924H276.771V342.924H276.621V344.924ZM277.514 344.593L282.86 338.649L281.373 337.312L276.027 343.255L277.514 344.593ZM282.116 338.98H284.075V336.98H282.116V338.98ZM283.342 337.301L278.312 342.73L279.779 344.089L284.809 338.66L283.342 337.301ZM278.25 344.016L283.28 350.607L284.87 349.393L279.84 342.802L278.25 344.016ZM284.075 349H282.249V351H284.075V349ZM283.052 349.403L278.918 343.842L277.313 345.035L281.447 350.597L283.052 349.403ZM277.365 343.777L275.871 345.47L277.371 346.793L278.865 345.1L277.365 343.777ZM275.621 346.132V350H277.621V346.132H275.621ZM276.621 349H275.127V351H276.621V349ZM285.261 337.98V336.98H284.261V337.98H285.261ZM287.054 337.98L287.979 337.602L287.725 336.98H287.054V337.98ZM291.104 347.875L290.179 348.254L290.433 348.875H291.104V347.875ZM291.254 347.875V348.875H291.925L292.179 348.254L291.254 347.875ZM295.305 337.98V336.98H294.633L294.379 337.602L295.305 337.98ZM297.098 337.98H298.098V336.98H297.098V337.98ZM297.098 350V351H298.098V350H297.098ZM295.686 350H294.686V351H295.686V350ZM295.686 340.919H296.686V339.919H295.686V340.919ZM295.57 340.919V339.919H294.9L294.645 340.539L295.57 340.919ZM291.835 350V351H292.505L292.76 350.38L291.835 350ZM290.507 350L289.582 350.38L289.837 351H290.507V350ZM286.771 340.919L287.696 340.539L287.441 339.919H286.771V340.919ZM286.672 340.919V339.919H285.672V340.919H286.672ZM286.672 350V351H287.672V350H286.672ZM285.261 350H284.261V351H285.261V350ZM285.261 338.98H287.054V336.98H285.261V338.98ZM286.128 338.359L290.179 348.254L292.03 347.496L287.979 337.602L286.128 338.359ZM291.104 348.875H291.254V346.875H291.104V348.875ZM292.179 348.254L296.23 338.359L294.379 337.602L290.328 347.496L292.179 348.254ZM295.305 338.98H297.098V336.98H295.305V338.98ZM296.098 337.98V350H298.098V337.98H296.098ZM297.098 349H295.686V351H297.098V349ZM296.686 350V340.919H294.686V350H296.686ZM295.686 339.919H295.57V341.919H295.686V339.919ZM294.645 340.539L290.91 349.62L292.76 350.38L296.495 341.299L294.645 340.539ZM291.835 349H290.507V351H291.835V349ZM291.432 349.62L287.696 340.539L285.847 341.299L289.582 350.38L291.432 349.62ZM286.771 339.919H286.672V341.919H286.771V339.919ZM285.672 340.919V350H287.672V340.919H285.672ZM286.672 349H285.261V351H286.672V349ZM286.261 350V337.98H284.261V350H286.261ZM298.3 337.98V336.98H296.516L297.446 338.502L298.3 337.98ZM300.009 337.98L300.87 337.471L300.579 336.98H300.009V337.98ZM303.313 343.559L302.453 344.068L302.743 344.559H303.313V343.559ZM303.463 343.559V344.559H304.033L304.323 344.068L303.463 343.559ZM306.766 337.98V336.98H306.196L305.906 337.471L306.766 337.98ZM308.493 337.98L309.345 338.503L310.28 336.98H308.493V337.98ZM304.143 345.069L303.291 344.546L303.143 344.787V345.069H304.143ZM304.143 350V351H305.143V350H304.143ZM302.633 350H301.633V351H302.633V350ZM302.633 345.069H303.633V344.788L303.486 344.548L302.633 345.069ZM298.3 338.98H300.009V336.98H298.3V338.98ZM299.149 338.49L302.453 344.068L304.174 343.049L300.87 337.471L299.149 338.49ZM303.313 344.559H303.463V342.559H303.313V344.559ZM304.323 344.068L307.627 338.49L305.906 337.471L302.602 343.049L304.323 344.068ZM306.766 338.98H308.493V336.98H306.766V338.98ZM307.641 337.457L303.291 344.546L304.996 345.592L309.345 338.503L307.641 337.457ZM303.143 345.069V350H305.143V345.069H303.143ZM304.143 349H302.633V351H304.143V349ZM303.633 350V345.069H301.633V350H303.633ZM303.486 344.548L299.153 337.459L297.446 338.502L301.779 345.591L303.486 344.548ZM317.547 337.98V336.98H316.547V337.98H317.547ZM319.042 337.98H320.042V336.98H319.042V337.98ZM309.678 337.98V336.98H308.678V337.98H309.678ZM311.172 337.98H312.172V336.98H311.172V337.98ZM317.547 338.98H319.042V336.98H317.547V338.98ZM318.042 337.98V345.933H320.042V337.98H318.042ZM318.042 345.933C318.042 346.911 317.683 347.711 317.083 348.271C316.479 348.835 315.565 349.216 314.36 349.216V351.216C315.994 351.216 317.42 350.692 318.448 349.733C319.479 348.77 320.042 347.428 320.042 345.933H318.042ZM314.36 349.216C313.155 349.216 312.241 348.835 311.637 348.271C311.037 347.711 310.678 346.911 310.678 345.933H308.678C308.678 347.428 309.241 348.77 310.272 349.733C311.299 350.692 312.726 351.216 314.36 351.216V349.216ZM310.678 345.933V337.98H308.678V345.933H310.678ZM309.678 338.98H311.172V336.98H309.678V338.98ZM310.172 337.98V345.816H312.172V337.98H310.172ZM310.172 345.816C310.172 346.926 310.563 347.947 311.329 348.69C312.095 349.433 313.156 349.821 314.36 349.821V347.821C313.589 347.821 313.056 347.579 312.721 347.255C312.388 346.931 312.172 346.45 312.172 345.816H310.172ZM314.36 349.821C315.571 349.821 316.633 349.434 317.398 348.689C318.164 347.944 318.547 346.922 318.547 345.816H316.547C316.547 346.454 316.333 346.935 316.003 347.256C315.672 347.578 315.141 347.821 314.36 347.821V349.821ZM318.547 345.816V337.98H316.547V345.816H318.547ZM330.819 337.98H331.819V336.98H330.819V337.98ZM330.819 350V351H331.819V350H330.819ZM329.391 350L328.57 350.571L328.868 351H329.391V350ZM322.883 340.637L323.704 340.066L323.406 339.637H322.883V340.637ZM322.767 340.637V339.637H321.767V340.637H322.767ZM322.767 350V351H323.767V350H322.767ZM321.273 350H320.273V351H321.273V350ZM321.273 337.98V336.98H320.273V337.98H321.273ZM322.717 337.98L323.539 337.41L323.24 336.98H322.717V337.98ZM329.225 347.36L328.403 347.93L328.702 348.36H329.225V347.36ZM329.341 347.36V348.36H330.341V347.36H329.341ZM329.341 337.98V336.98H328.341V337.98H329.341ZM329.819 337.98V350H331.819V337.98H329.819ZM330.819 349H329.391V351H330.819V349ZM330.212 349.429L323.704 340.066L322.062 341.207L328.57 350.571L330.212 349.429ZM322.883 339.637H322.767V341.637H322.883V339.637ZM321.767 340.637V350H323.767V340.637H321.767ZM322.767 349H321.273V351H322.767V349ZM322.273 350V337.98H320.273V350H322.273ZM321.273 338.98H322.717V336.98H321.273V338.98ZM321.895 338.551L328.403 347.93L330.047 346.79L323.539 337.41L321.895 338.551ZM329.225 348.36H329.341V346.36H329.225V348.36ZM330.341 347.36V337.98H328.341V347.36H330.341ZM329.341 338.98H330.819V336.98H329.341V338.98ZM341.251 341.732L340.302 342.049L340.53 342.732H341.251V341.732ZM341.4 345.285L342.4 345.301L342.416 344.285H341.4V345.285ZM338.263 345.285H337.263V346.285H338.263V345.285ZM338.263 343.974V342.974H337.263V343.974H338.263ZM342.861 343.974H343.861V342.974H342.861V343.974ZM342.795 341.732V342.732H344.006L343.777 341.543L342.795 341.732ZM342.2 341.416C341.89 340.487 341.362 339.676 340.605 339.097C339.843 338.514 338.902 338.209 337.848 338.209V340.209C338.503 340.209 339.007 340.393 339.39 340.686C339.779 340.983 340.097 341.434 340.302 342.049L342.2 341.416ZM337.848 338.209C336.507 338.209 335.269 338.746 334.381 339.786C333.502 340.816 333.029 342.261 333.029 343.99H335.029C335.029 342.615 335.403 341.669 335.902 341.085C336.392 340.511 337.064 340.209 337.848 340.209V338.209ZM333.029 343.99C333.029 345.719 333.502 347.169 334.399 348.201C335.306 349.245 336.57 349.771 337.947 349.771V347.771C337.1 347.771 336.405 347.46 335.909 346.889C335.403 346.307 335.029 345.366 335.029 343.99H333.029ZM337.947 349.771C339.193 349.771 340.315 349.35 341.132 348.532C341.948 347.715 342.38 346.581 342.4 345.301L340.401 345.27C340.387 346.114 340.11 346.724 339.716 347.119C339.323 347.512 338.735 347.771 337.947 347.771V349.771ZM341.4 344.285H338.263V346.285H341.4V344.285ZM339.263 345.285V343.974H337.263V345.285H339.263ZM338.263 344.974H342.861V342.974H338.263V344.974ZM341.861 343.974V345.269H343.861V343.974H341.861ZM341.861 345.269C341.861 346.525 341.434 347.481 340.777 348.122C340.116 348.767 339.149 349.166 337.947 349.166V351.166C339.601 351.166 341.091 350.61 342.174 349.553C343.259 348.494 343.861 347.001 343.861 345.269H341.861ZM337.947 349.166C336.607 349.166 335.55 348.678 334.816 347.843C334.071 346.997 333.585 345.706 333.585 343.99H331.585C331.585 346.076 332.178 347.873 333.314 349.164C334.46 350.467 336.083 351.166 337.947 351.166V349.166ZM333.585 343.99C333.585 342.276 334.074 340.982 334.813 340.133C335.542 339.295 336.576 338.814 337.848 338.814V336.814C336.031 336.814 334.434 337.521 333.304 338.82C332.184 340.108 331.585 341.903 331.585 343.99H333.585ZM337.848 338.814C339.937 338.814 341.461 340.096 341.813 341.922L343.777 341.543C343.233 338.72 340.838 336.814 337.848 336.814V338.814ZM342.795 340.732H341.251V342.732H342.795V340.732ZM350.744 350L349.779 350.264L349.981 351H350.744V350ZM347.457 337.98V336.98H346.147L346.492 338.244L347.457 337.98ZM348.967 337.98L349.936 337.731L349.742 336.98H348.967V337.98ZM351.474 347.709L350.506 347.959L350.699 348.709H351.474V347.709ZM351.591 347.709V348.709H352.363L352.558 347.962L351.591 347.709ZM354.131 337.98V336.98H353.358L353.163 337.728L354.131 337.98ZM355.807 337.98L356.774 337.726L356.578 336.98H355.807V337.98ZM358.364 347.709L357.397 347.963L357.593 348.709H358.364V347.709ZM358.464 347.709V348.709H359.239L359.432 347.959L358.464 347.709ZM360.97 337.98V336.98H360.195L360.002 337.731L360.97 337.98ZM362.481 337.98L363.446 338.244L363.791 336.98H362.481V337.98ZM359.194 350V351H359.957L360.159 350.264L359.194 350ZM357.65 350L356.686 350.266L356.889 351H357.65V350ZM355.027 340.487L355.991 340.221L355.789 339.487H355.027V340.487ZM354.927 340.487V339.487H354.167L353.964 340.22L354.927 340.487ZM352.288 350V351H353.048L353.251 350.267L352.288 350ZM351.708 349.736L348.421 337.717L346.492 338.244L349.779 350.264L351.708 349.736ZM347.457 338.98H348.967V336.98H347.457V338.98ZM347.999 338.23L350.506 347.959L352.443 347.459L349.936 337.731L347.999 338.23ZM351.474 348.709H351.591V346.709H351.474V348.709ZM352.558 347.962L355.098 338.233L353.163 337.728L350.623 347.456L352.558 347.962ZM354.131 338.98H355.807V336.98H354.131V338.98ZM354.84 338.235L357.397 347.963L359.331 347.455L356.774 337.726L354.84 338.235ZM358.364 348.709H358.464V346.709H358.364V348.709ZM359.432 347.959L361.939 338.23L360.002 337.731L357.495 347.459L359.432 347.959ZM360.97 338.98H362.481V336.98H360.97V338.98ZM361.517 337.717L358.229 349.736L360.159 350.264L363.446 338.244L361.517 337.717ZM359.194 349H357.65V351H359.194V349ZM358.614 349.734L355.991 340.221L354.063 340.753L356.686 350.266L358.614 349.734ZM355.027 339.487H354.927V341.487H355.027V339.487ZM353.964 340.22L351.324 349.733L353.251 350.267L355.891 340.755L353.964 340.22ZM352.288 349H350.744V351H352.288V349ZM372.229 343.99C372.229 345.697 371.728 346.99 370.975 347.842C370.23 348.685 369.18 349.166 367.917 349.166V351.166C369.724 351.166 371.331 350.46 372.474 349.166C373.61 347.88 374.229 346.085 374.229 343.99H372.229ZM367.917 349.166C366.644 349.166 365.594 348.684 364.852 347.842C364.102 346.991 363.604 345.699 363.604 343.99H361.604C361.604 346.084 362.218 347.879 363.352 349.165C364.494 350.461 366.101 351.166 367.917 351.166V349.166ZM363.604 343.99C363.604 342.282 364.102 340.989 364.852 340.138C365.594 339.296 366.644 338.814 367.917 338.814V336.814C366.101 336.814 364.494 337.52 363.352 338.815C362.218 340.102 361.604 341.897 361.604 343.99H363.604ZM367.917 338.814C369.18 338.814 370.23 339.295 370.975 340.139C371.728 340.991 372.229 342.284 372.229 343.99H374.229C374.229 341.895 373.61 340.1 372.474 338.815C371.331 337.52 369.724 336.814 367.917 336.814V338.814ZM372.785 343.99C372.785 342.261 372.312 340.814 371.424 339.783C370.526 338.741 369.276 338.209 367.917 338.209V340.209C368.732 340.209 369.416 340.516 369.908 341.088C370.411 341.671 370.785 342.615 370.785 343.99H372.785ZM367.917 338.209C366.557 338.209 365.307 338.741 364.409 339.783C363.521 340.814 363.048 342.261 363.048 343.99H365.048C365.048 342.615 365.422 341.671 365.925 341.088C366.417 340.516 367.101 340.209 367.917 340.209V338.209ZM363.048 343.99C363.048 345.72 363.521 347.167 364.409 348.198C365.307 349.24 366.557 349.771 367.917 349.771V347.771C367.101 347.771 366.417 347.465 365.925 346.892C365.422 346.309 365.048 345.365 365.048 343.99H363.048ZM367.917 349.771C369.276 349.771 370.526 349.24 371.424 348.198C372.312 347.167 372.785 345.72 372.785 343.99H370.785C370.785 345.365 370.411 346.309 369.908 346.892C369.416 347.465 368.732 347.771 367.917 347.771V349.771ZM374.995 337.98V336.98H373.995V337.98H374.995ZM376.788 337.98L377.714 337.602L377.46 336.98H376.788V337.98ZM380.839 347.875L379.914 348.254L380.168 348.875H380.839V347.875ZM380.989 347.875V348.875H381.66L381.914 348.254L380.989 347.875ZM385.039 337.98V336.98H384.368L384.114 337.602L385.039 337.98ZM386.832 337.98H387.832V336.98H386.832V337.98ZM386.832 350V351H387.832V350H386.832ZM385.421 350H384.421V351H385.421V350ZM385.421 340.919H386.421V339.919H385.421V340.919ZM385.305 340.919V339.919H384.635L384.38 340.539L385.305 340.919ZM381.57 350V351H382.24L382.494 350.38L381.57 350ZM380.242 350L379.317 350.38L379.572 351H380.242V350ZM376.506 340.919L377.431 340.539L377.176 339.919H376.506V340.919ZM376.407 340.919V339.919H375.407V340.919H376.407ZM376.407 350V351H377.407V350H376.407ZM374.995 350H373.995V351H374.995V350ZM374.995 338.98H376.788V336.98H374.995V338.98ZM375.863 338.359L379.914 348.254L381.765 347.496L377.714 337.602L375.863 338.359ZM380.839 348.875H380.989V346.875H380.839V348.875ZM381.914 348.254L385.965 338.359L384.114 337.602L380.063 347.496L381.914 348.254ZM385.039 338.98H386.832V336.98H385.039V338.98ZM385.832 337.98V350H387.832V337.98H385.832ZM386.832 349H385.421V351H386.832V349ZM386.421 350V340.919H384.421V350H386.421ZM385.421 339.919H385.305V341.919H385.421V339.919ZM384.38 340.539L380.645 349.62L382.494 350.38L386.23 341.299L384.38 340.539ZM381.57 349H380.242V351H381.57V349ZM381.166 349.62L377.431 340.539L375.581 341.299L379.317 350.38L381.166 349.62ZM376.506 339.919H376.407V341.919H376.506V339.919ZM375.407 340.919V350H377.407V340.919H375.407ZM376.407 349H374.995V351H376.407V349ZM375.995 350V337.98H373.995V350H375.995ZM389.064 350H388.064V351H389.064V350ZM389.064 337.98V336.98H388.064V337.98H389.064ZM396.352 337.98H397.352V336.98H396.352V337.98ZM396.352 339.309V340.309H397.352V339.309H396.352ZM390.558 339.309V338.309H389.558V339.309H390.558ZM390.558 343.326H389.558V344.326H390.558V343.326ZM395.97 343.326H396.97V342.326H395.97V343.326ZM395.97 344.638V345.638H396.97V344.638H395.97ZM390.558 344.638V343.638H389.558V344.638H390.558ZM390.558 348.672H389.558V349.672H390.558V348.672ZM396.435 348.672H397.435V347.672H396.435V348.672ZM396.435 350V351H397.435V350H396.435ZM390.064 350V337.98H388.064V350H390.064ZM389.064 338.98H396.352V336.98H389.064V338.98ZM395.352 337.98V339.309H397.352V337.98H395.352ZM396.352 338.309H390.558V340.309H396.352V338.309ZM389.558 339.309V343.326H391.558V339.309H389.558ZM390.558 344.326H395.97V342.326H390.558V344.326ZM394.97 343.326V344.638H396.97V343.326H394.97ZM395.97 343.638H390.558V345.638H395.97V343.638ZM389.558 344.638V348.672H391.558V344.638H389.558ZM390.558 349.672H396.435V347.672H390.558V349.672ZM395.435 348.672V350H397.435V348.672H395.435ZM396.435 349H389.064V351H396.435V349ZM407.83 337.98H408.83V336.98H407.83V337.98ZM407.83 350V351H408.83V350H407.83ZM406.402 350L405.581 350.571L405.879 351H406.402V350ZM399.894 340.637L400.716 340.066L400.417 339.637H399.894V340.637ZM399.778 340.637V339.637H398.778V340.637H399.778ZM399.778 350V351H400.778V350H399.778ZM398.284 350H397.284V351H398.284V350ZM398.284 337.98V336.98H397.284V337.98H398.284ZM399.728 337.98L400.55 337.41L400.252 336.98H399.728V337.98ZM406.236 347.36L405.415 347.93L405.713 348.36H406.236V347.36ZM406.352 347.36V348.36H407.352V347.36H406.352ZM406.352 337.98V336.98H405.352V337.98H406.352ZM406.83 337.98V350H408.83V337.98H406.83ZM407.83 349H406.402V351H407.83V349ZM407.223 349.429L400.716 340.066L399.073 341.207L405.581 350.571L407.223 349.429ZM399.894 339.637H399.778V341.637H399.894V339.637ZM398.778 340.637V350H400.778V340.637H398.778ZM399.778 349H398.284V351H399.778V349ZM399.284 350V337.98H397.284V350H399.284ZM398.284 338.98H399.728V336.98H398.284V338.98ZM398.907 338.551L405.415 347.93L407.058 346.79L400.55 337.41L398.907 338.551ZM406.236 348.36H406.352V346.36H406.236V348.36ZM407.352 347.36V337.98H405.352V347.36H407.352ZM406.352 338.98H407.83V336.98H406.352V338.98ZM411.871 337.997L412.832 338.273L413.198 336.997H411.871V337.997ZM410.576 342.513V343.513H411.329L411.537 342.788L410.576 342.513ZM409.347 342.513L408.367 342.315L408.125 343.513H409.347V342.513ZM410.26 337.997V336.997H409.442L409.28 337.799L410.26 337.997ZM410.91 337.721L409.615 342.237L411.537 342.788L412.832 338.273L410.91 337.721ZM410.576 341.513H409.347V343.513H410.576V341.513ZM410.328 342.711L411.241 338.195L409.28 337.799L408.367 342.315L410.328 342.711ZM410.26 338.997H411.871V336.997H410.26V338.997ZM419.946 341.002L418.952 341.114L419.052 342.002H419.946V341.002ZM416.974 343.077L417.242 342.114L417.231 342.111L417.221 342.108L416.974 343.077ZM418.169 343.409L417.902 344.373L417.911 344.375L417.921 344.378L418.169 343.409ZM412.874 346.879V345.879H411.805L411.876 346.945L412.874 346.879ZM414.401 346.879L415.396 346.781L415.307 345.879H414.401V346.879ZM417.738 344.721L418.016 343.76L418.007 343.758L417.998 343.755L417.738 344.721ZM416.26 344.322L415.982 345.283L415.991 345.285L416 345.288L416.26 344.322ZM421.407 341.002V342.002H422.444L422.406 340.966L421.407 341.002ZM420.94 340.89C420.725 338.989 418.99 338.143 417.29 338.143V340.143C418.478 340.143 418.901 340.658 418.952 341.114L420.94 340.89ZM417.29 338.143C416.328 338.143 415.44 338.392 414.766 338.905C414.076 339.431 413.65 340.211 413.65 341.118H415.65C415.65 340.88 415.747 340.672 415.978 340.496C416.226 340.308 416.657 340.143 417.29 340.143V338.143ZM413.65 341.118C413.65 342.201 414.284 342.906 414.925 343.323C415.539 343.721 416.257 343.927 416.727 344.046L417.221 342.108C416.778 341.995 416.334 341.852 416.014 341.645C415.721 341.455 415.65 341.297 415.65 341.118H413.65ZM416.706 344.041L417.902 344.373L418.437 342.446L417.242 342.114L416.706 344.041ZM417.921 344.378C418.541 344.537 419.235 344.769 419.763 345.158C420.248 345.516 420.573 345.986 420.573 346.729H422.573C422.573 345.232 421.843 344.207 420.95 343.549C420.1 342.921 419.093 342.614 418.418 342.441L417.921 344.378ZM420.573 346.729C420.573 347.423 420.302 348.012 419.791 348.443C419.268 348.884 418.423 349.216 417.207 349.216V351.216C418.779 351.216 420.117 350.784 421.08 349.972C422.055 349.149 422.573 347.995 422.573 346.729H420.573ZM417.207 349.216C416.079 349.216 415.264 348.923 414.737 348.509C414.226 348.106 413.92 347.537 413.871 346.812L411.876 346.945C411.96 348.213 412.526 349.313 413.5 350.08C414.459 350.836 415.745 351.216 417.207 351.216V349.216ZM412.874 347.879H414.401V345.879H412.874V347.879ZM413.406 346.977C413.505 347.978 414.036 348.735 414.777 349.212C415.488 349.67 416.36 349.854 417.207 349.854V347.854C416.625 347.854 416.161 347.724 415.859 347.53C415.588 347.355 415.43 347.124 415.396 346.781L413.406 346.977ZM417.207 349.854C418.195 349.854 419.141 349.604 419.868 349.077C420.617 348.535 421.112 347.707 421.112 346.696H419.112C419.112 346.997 418.984 347.248 418.695 347.457C418.385 347.682 417.879 347.854 417.207 347.854V349.854ZM421.112 346.696C421.112 345.717 420.61 345.034 419.969 344.589C419.384 344.182 418.645 343.942 418.016 343.76L417.46 345.681C418.092 345.864 418.54 346.031 418.827 346.231C419.058 346.391 419.112 346.513 419.112 346.696H421.112ZM417.998 343.755L416.521 343.357L416 345.288L417.477 345.686L417.998 343.755ZM416.538 343.362C415.674 343.111 415.084 342.795 414.72 342.441C414.387 342.117 414.206 341.728 414.206 341.185H412.206C412.206 342.269 412.606 343.174 413.326 343.875C414.017 344.547 414.954 344.985 415.982 345.283L416.538 343.362ZM414.206 341.185C414.206 339.915 415.339 338.814 417.339 338.814V336.814C414.691 336.814 412.206 338.403 412.206 341.185H414.206ZM417.339 338.814C419.315 338.814 420.367 339.921 420.407 341.038L422.406 340.966C422.314 338.431 420.012 336.814 417.339 336.814V338.814ZM421.407 340.002H419.946V342.002H421.407V340.002ZM435 337.98V336.98H434V337.98H435ZM436.494 337.98H437.494V336.98H436.494V337.98ZM427.131 337.98V336.98H426.131V337.98H427.131ZM428.625 337.98H429.625V336.98H428.625V337.98ZM435 338.98H436.494V336.98H435V338.98ZM435.494 337.98V345.933H437.494V337.98H435.494ZM435.494 345.933C435.494 346.911 435.135 347.711 434.535 348.271C433.932 348.835 433.018 349.216 431.813 349.216V351.216C433.446 351.216 434.873 350.692 435.901 349.733C436.932 348.77 437.494 347.428 437.494 345.933H435.494ZM431.813 349.216C430.608 349.216 429.693 348.835 429.09 348.271C428.49 347.711 428.131 346.911 428.131 345.933H426.131C426.131 347.428 426.693 348.77 427.725 349.733C428.752 350.692 430.179 351.216 431.813 351.216V349.216ZM428.131 345.933V337.98H426.131V345.933H428.131ZM427.131 338.98H428.625V336.98H427.131V338.98ZM427.625 337.98V345.816H429.625V337.98H427.625ZM427.625 345.816C427.625 346.926 428.015 347.947 428.782 348.69C429.547 349.433 430.608 349.821 431.813 349.821V347.821C431.041 347.821 430.509 347.579 430.174 347.255C429.841 346.931 429.625 346.45 429.625 345.816H427.625ZM431.813 349.821C433.023 349.821 434.086 349.434 434.851 348.689C435.616 347.944 436 346.922 436 345.816H434C434 346.454 433.786 346.935 433.456 347.256C433.125 347.578 432.594 347.821 431.813 347.821V349.821ZM436 345.816V337.98H434V345.816H436ZM448.271 337.98H449.271V336.98H448.271V337.98ZM448.271 350V351H449.271V350H448.271ZM446.844 350L446.023 350.571L446.321 351H446.844V350ZM440.336 340.637L441.157 340.066L440.859 339.637H440.336V340.637ZM440.22 340.637V339.637H439.22V340.637H440.22ZM440.22 350V351H441.22V350H440.22ZM438.725 350H437.725V351H438.725V350ZM438.725 337.98V336.98H437.725V337.98H438.725ZM440.17 337.98L440.991 337.41L440.693 336.98H440.17V337.98ZM446.678 347.36L445.856 347.93L446.154 348.36H446.678V347.36ZM446.794 347.36V348.36H447.794V347.36H446.794ZM446.794 337.98V336.98H445.794V337.98H446.794ZM447.271 337.98V350H449.271V337.98H447.271ZM448.271 349H446.844V351H448.271V349ZM447.665 349.429L441.157 340.066L439.515 341.207L446.023 350.571L447.665 349.429ZM440.336 339.637H440.22V341.637H440.336V339.637ZM439.22 340.637V350H441.22V340.637H439.22ZM440.22 349H438.725V351H440.22V349ZM439.725 350V337.98H437.725V350H439.725ZM438.725 338.98H440.17V336.98H438.725V338.98ZM439.348 338.551L445.856 347.93L447.499 346.79L440.991 337.41L439.348 338.551ZM446.678 348.36H446.794V346.36H446.678V348.36ZM447.794 347.36V337.98H445.794V347.36H447.794ZM446.794 338.98H448.271V336.98H446.794V338.98ZM451.997 337.98H452.997V336.98H451.997V337.98ZM451.997 350V351H452.997V350H451.997ZM450.503 350H449.503V351H450.503V350ZM450.503 337.98V336.98H449.503V337.98H450.503ZM450.997 337.98V350H452.997V337.98H450.997ZM451.997 349H450.503V351H451.997V349ZM451.503 350V337.98H449.503V350H451.503ZM450.503 338.98H451.997V336.98H450.503V338.98ZM454.776 337.98L455.719 337.649L455.485 336.98H454.776V337.98ZM458.312 348.058L457.368 348.389L457.603 349.058H458.312V348.058ZM458.445 348.058V349.058H459.153L459.388 348.39L458.445 348.058ZM461.998 337.98V336.98H461.29L461.054 337.648L461.998 337.98ZM463.575 337.98L464.514 338.324L465.006 336.98H463.575V337.98ZM459.175 350V351H459.874L460.114 350.344L459.175 350ZM457.598 350L456.659 350.344L456.899 351H457.598V350ZM453.199 337.98V336.98H451.768L452.26 338.324L453.199 337.98ZM453.832 338.312L457.368 348.389L459.256 347.727L455.719 337.649L453.832 338.312ZM458.312 349.058H458.445V347.058H458.312V349.058ZM459.388 348.39L462.941 338.313L461.054 337.648L457.502 347.725L459.388 348.39ZM461.998 338.98H463.575V336.98H461.998V338.98ZM462.636 337.637L458.236 349.656L460.114 350.344L464.514 338.324L462.636 337.637ZM459.175 349H457.598V351H459.175V349ZM458.537 349.656L454.138 337.637L452.26 338.324L456.659 350.344L458.537 349.656ZM453.199 338.98H454.776V336.98H453.199V338.98ZM464.777 350H463.777V351H464.777V350ZM464.777 337.98V336.98H463.777V337.98H464.777ZM472.065 337.98H473.065V336.98H472.065V337.98ZM472.065 339.309V340.309H473.065V339.309H472.065ZM466.271 339.309V338.309H465.271V339.309H466.271ZM466.271 343.326H465.271V344.326H466.271V343.326ZM471.683 343.326H472.683V342.326H471.683V343.326ZM471.683 344.638V345.638H472.683V344.638H471.683ZM466.271 344.638V343.638H465.271V344.638H466.271ZM466.271 348.672H465.271V349.672H466.271V348.672ZM472.148 348.672H473.148V347.672H472.148V348.672ZM472.148 350V351H473.148V350H472.148ZM465.777 350V337.98H463.777V350H465.777ZM464.777 338.98H472.065V336.98H464.777V338.98ZM471.065 337.98V339.309H473.065V337.98H471.065ZM472.065 338.309H466.271V340.309H472.065V338.309ZM465.271 339.309V343.326H467.271V339.309H465.271ZM466.271 344.326H471.683V342.326H466.271V344.326ZM470.683 343.326V344.638H472.683V343.326H470.683ZM471.683 343.638H466.271V345.638H471.683V343.638ZM465.271 344.638V348.672H467.271V344.638H465.271ZM466.271 349.672H472.148V347.672H466.271V349.672ZM471.148 348.672V350H473.148V348.672H471.148ZM472.148 349H464.777V351H472.148V349ZM473.997 350H472.997V351H473.997V350ZM473.997 337.98V336.98H472.997V337.98H473.997ZM479.941 345.053L479.612 344.108L478.496 344.496L479.063 345.533L479.941 345.053ZM482.647 350V351H484.333L483.524 349.52L482.647 350ZM480.903 350L480.022 350.472L480.305 351H480.903V350ZM478.397 345.318L479.278 344.846L478.94 344.214L478.232 344.332L478.397 345.318ZM475.491 345.335V344.335H474.491V345.335H475.491ZM475.491 350V351H476.491V350H475.491ZM475.491 343.974H474.491V344.974H475.491V343.974ZM475.491 339.309V338.309H474.491V339.309H475.491ZM474.997 350V337.98H472.997V350H474.997ZM473.997 338.98H478.081V336.98H473.997V338.98ZM478.081 338.98C479.311 338.98 480.055 339.318 480.49 339.743C480.925 340.168 481.182 340.809 481.182 341.683H483.182C483.182 340.415 482.8 339.204 481.889 338.314C480.979 337.424 479.673 336.98 478.081 336.98V338.98ZM481.182 341.683C481.182 342.328 481.037 342.84 480.791 343.224C480.552 343.599 480.18 343.911 479.612 344.108L480.269 345.997C481.228 345.664 481.977 345.083 482.476 344.302C482.97 343.53 483.182 342.623 483.182 341.683H481.182ZM479.063 345.533L481.769 350.48L483.524 349.52L480.818 344.573L479.063 345.533ZM482.647 349H480.903V351H482.647V349ZM481.785 349.528L479.278 344.846L477.515 345.79L480.022 350.472L481.785 349.528ZM478.232 344.332C478.235 344.331 478.229 344.333 478.206 344.334C478.18 344.335 478.151 344.335 478.098 344.335V346.335C478.184 346.335 478.366 346.337 478.561 346.305L478.232 344.332ZM478.098 344.335H475.491V346.335H478.098V344.335ZM474.491 345.335V350H476.491V345.335H474.491ZM475.491 349H473.997V351H475.491V349ZM475.491 344.974H478.031V342.974H475.491V344.974ZM478.031 344.974C479.116 344.974 480.073 344.731 480.76 344.1C481.464 343.454 481.704 342.569 481.704 341.683H479.704C479.704 342.224 479.563 342.484 479.408 342.627C479.235 342.785 478.856 342.974 478.031 342.974V344.974ZM481.704 341.683C481.704 340.792 481.466 339.895 480.773 339.231C480.088 338.576 479.123 338.309 478.015 338.309V340.309C478.832 340.309 479.212 340.506 479.39 340.677C479.56 340.839 479.704 341.129 479.704 341.683H481.704ZM478.015 338.309H475.491V340.309H478.015V338.309ZM474.491 339.309V343.974H476.491V339.309H474.491ZM490.473 341.002L489.479 341.114L489.579 342.002H490.473V341.002ZM487.501 343.077L487.769 342.114L487.758 342.111L487.748 342.108L487.501 343.077ZM488.696 343.409L488.429 344.373L488.438 344.375L488.448 344.378L488.696 343.409ZM483.4 346.879V345.879H482.331L482.403 346.945L483.4 346.879ZM484.928 346.879L485.923 346.781L485.834 345.879H484.928V346.879ZM488.265 344.721L488.543 343.76L488.534 343.758L488.525 343.755L488.265 344.721ZM486.787 344.322L486.509 345.283L486.518 345.285L486.527 345.288L486.787 344.322ZM491.934 341.002V342.002H492.971L492.933 340.966L491.934 341.002ZM491.466 340.89C491.252 338.989 489.517 338.143 487.816 338.143V340.143C489.005 340.143 489.427 340.658 489.479 341.114L491.466 340.89ZM487.816 338.143C486.855 338.143 485.967 338.392 485.293 338.905C484.602 339.431 484.177 340.211 484.177 341.118H486.177C486.177 340.88 486.274 340.672 486.505 340.496C486.752 340.308 487.184 340.143 487.816 340.143V338.143ZM484.177 341.118C484.177 342.201 484.811 342.906 485.452 343.323C486.066 343.721 486.784 343.927 487.254 344.046L487.748 342.108C487.304 341.995 486.861 341.852 486.541 341.645C486.248 341.455 486.177 341.297 486.177 341.118H484.177ZM487.233 344.041L488.429 344.373L488.964 342.446L487.769 342.114L487.233 344.041ZM488.448 344.378C489.067 344.537 489.762 344.769 490.29 345.158C490.775 345.516 491.1 345.986 491.1 346.729H493.1C493.1 345.232 492.37 344.207 491.477 343.549C490.627 342.921 489.62 342.614 488.945 342.441L488.448 344.378ZM491.1 346.729C491.1 347.423 490.828 348.012 490.318 348.443C489.795 348.884 488.95 349.216 487.733 349.216V351.216C489.305 351.216 490.644 350.784 491.607 349.972C492.582 349.149 493.1 347.995 493.1 346.729H491.1ZM487.733 349.216C486.605 349.216 485.79 348.923 485.264 348.509C484.753 348.106 484.446 347.537 484.398 346.812L482.403 346.945C482.487 348.213 483.052 349.313 484.027 350.08C484.986 350.836 486.271 351.216 487.733 351.216V349.216ZM483.4 347.879H484.928V345.879H483.4V347.879ZM483.932 346.977C484.031 347.978 484.562 348.735 485.304 349.212C486.015 349.67 486.887 349.854 487.733 349.854V347.854C487.152 347.854 486.687 347.724 486.386 347.53C486.115 347.355 485.957 347.124 485.923 346.781L483.932 346.977ZM487.733 349.854C488.721 349.854 489.667 349.604 490.395 349.077C491.144 348.535 491.639 347.707 491.639 346.696H489.639C489.639 346.997 489.51 347.248 489.222 347.457C488.912 347.682 488.405 347.854 487.733 347.854V349.854ZM491.639 346.696C491.639 345.717 491.136 345.034 490.496 344.589C489.911 344.182 489.172 343.942 488.543 343.76L487.986 345.681C488.619 345.864 489.067 346.031 489.354 346.231C489.585 346.391 489.639 346.513 489.639 346.696H491.639ZM488.525 343.755L487.047 343.357L486.527 345.288L488.004 345.686L488.525 343.755ZM487.065 343.362C486.201 343.111 485.611 342.795 485.247 342.441C484.913 342.117 484.732 341.728 484.732 341.185H482.732C482.732 342.269 483.132 343.174 483.853 343.875C484.543 344.547 485.481 344.985 486.509 345.283L487.065 343.362ZM484.732 341.185C484.732 339.915 485.866 338.814 487.866 338.814V336.814C485.218 336.814 482.732 338.403 482.732 341.185H484.732ZM487.866 338.814C489.842 338.814 490.894 339.921 490.934 341.038L492.933 340.966C492.841 338.431 490.539 336.814 487.866 336.814V338.814ZM491.934 340.002H490.473V342.002H491.934V340.002ZM495.31 337.98H496.31V336.98H495.31V337.98ZM495.31 350V351H496.31V350H495.31ZM493.816 350H492.816V351H493.816V350ZM493.816 337.98V336.98H492.816V337.98H493.816ZM494.31 337.98V350H496.31V337.98H494.31ZM495.31 349H493.816V351H495.31V349ZM494.816 350V337.98H492.816V350H494.816ZM493.816 338.98H495.31V336.98H493.816V338.98ZM496.877 339.309H495.877V340.309H496.877V339.309ZM496.877 337.98V336.98H495.877V337.98H496.877ZM505.942 337.98H506.942V336.98H505.942V337.98ZM505.942 339.309V340.309H506.942V339.309H505.942ZM502.173 339.309V338.309H501.173V339.309H502.173ZM502.173 350V351H503.173V350H502.173ZM500.663 350H499.663V351H500.663V350ZM500.663 339.309H501.663V338.309H500.663V339.309ZM497.877 339.309V337.98H495.877V339.309H497.877ZM496.877 338.98H505.942V336.98H496.877V338.98ZM504.942 337.98V339.309H506.942V337.98H504.942ZM505.942 338.309H502.173V340.309H505.942V338.309ZM501.173 339.309V350H503.173V339.309H501.173ZM502.173 349H500.663V351H502.173V349ZM501.663 350V339.309H499.663V350H501.663ZM500.663 338.309H496.877V340.309H500.663V338.309ZM506.48 337.98V336.98H504.697L505.627 338.502L506.48 337.98ZM508.19 337.98L509.05 337.471L508.76 336.98H508.19V337.98ZM511.493 343.559L510.633 344.068L510.924 344.559H511.493V343.559ZM511.643 343.559V344.559H512.213L512.503 344.068L511.643 343.559ZM514.947 337.98V336.98H514.377L514.086 337.471L514.947 337.98ZM516.673 337.98L517.525 338.503L518.46 336.98H516.673V337.98ZM512.324 345.069L511.471 344.546L511.324 344.787V345.069H512.324ZM512.324 350V351H513.324V350H512.324ZM510.813 350H509.813V351H510.813V350ZM510.813 345.069H511.813V344.788L511.666 344.548L510.813 345.069ZM506.48 338.98H508.19V336.98H506.48V338.98ZM507.329 338.49L510.633 344.068L512.354 343.049L509.05 337.471L507.329 338.49ZM511.493 344.559H511.643V342.559H511.493V344.559ZM512.503 344.068L515.807 338.49L514.086 337.471L510.782 343.049L512.503 344.068ZM514.947 338.98H516.673V336.98H514.947V338.98ZM515.821 337.457L511.471 344.546L513.176 345.592L517.525 338.503L515.821 337.457ZM511.324 345.069V350H513.324V345.069H511.324ZM512.324 349H510.813V351H512.324V349ZM511.813 350V345.069H509.813V350H511.813ZM511.666 344.548L507.333 337.459L505.627 338.502L509.96 345.591L511.666 344.548Z" fill="black" mask="url(#path-1-outside-1_662_860)"/>
</g>
<path d="M233.614 258.06C233.614 263.45 237.114 266.74 241.804 266.74C246.564 266.74 250.064 263.45 250.064 258.06C250.064 252.74 246.564 249.45 241.804 249.45C237.114 249.45 233.614 252.74 233.614 258.06ZM268.684 253.86H258.324C258.604 255.19 258.814 256.59 258.814 258.06C258.814 259.46 258.674 260.93 258.324 262.19H268.684V253.86ZM268.684 269.54H254.474C251.324 272.83 246.844 274.79 241.804 274.79C232.284 274.79 224.864 267.72 224.864 258.06C224.864 248.47 232.284 241.4 241.804 241.4C246.844 241.4 251.184 243.29 254.334 246.51H268.684V237.55H277.924V284.73H268.684V269.54ZM244.674 293.55H279.394V300.9H235.434V280.11H244.674V293.55ZM324.678 243.22L324.608 250.43H286.598V243.22H300.948V237.06H310.258V243.22H324.678ZM298.638 263.59C298.638 266.67 301.508 268.28 305.638 268.28C309.768 268.28 312.638 266.67 312.638 263.59C312.638 260.51 309.768 258.9 305.638 258.9C301.508 258.9 298.638 260.51 298.638 263.59ZM321.458 263.59C321.458 270.38 314.948 275 305.638 275C296.328 275 289.818 270.38 289.818 263.59C289.818 256.73 296.328 252.18 305.638 252.18C314.948 252.18 321.458 256.73 321.458 263.59ZM328.248 294.11V289.63H304.658V294.11H328.248ZM328.248 282.63V277.73H337.418V301.32H295.488V277.73H304.658V282.63H328.248ZM345.958 253.02V260.58H337.418V275.28H328.178V237.55H337.418V253.02H345.958ZM364.783 280.46C368.283 280.46 370.803 277.66 370.803 272.83C370.803 268 368.283 265.13 364.783 265.13C361.283 265.13 358.763 268 358.763 272.83C358.763 277.66 361.283 280.46 364.783 280.46ZM364.783 257.43C373.043 257.43 378.923 263.8 378.923 272.83C378.923 281.79 373.043 288.16 364.783 288.16C356.523 288.16 350.643 281.79 350.643 272.83C350.643 263.8 356.523 257.43 364.783 257.43ZM369.333 239.3V247.28H380.043V254.63H349.243V247.28H360.233V239.3H369.333ZM395.863 237.48H404.613V301.95H395.863V271.22H390.963V299.29H382.353V238.74H390.963V263.8H395.863V237.48ZM415.177 243.71H444.717C444.717 263.52 439.537 280.18 416.437 292.29L411.397 285.29C421.407 280.04 427.637 274.09 431.347 267.02L412.937 268.7L411.747 260.93L434.147 259.67C434.777 256.94 435.267 254.14 435.547 251.06H415.177V243.71ZM456.617 237.55H465.857V302.02H456.617V269.75H444.577V262.26H456.617V237.55ZM490.772 283.61V293.55H527.032V300.9H481.532V283.61H490.772ZM508.272 273.04H532.842V280.32H474.532V273.04H499.032V268.49H481.812V239.58H526.192V246.58H490.982V250.64H524.722V257.36H490.982V261.56H526.682V268.49H508.272V273.04Z" fill="white"/>
<path d="M536.752 41.2532V0.431885H522.645V41.2532V52.7105V52.8612H562.37V41.2532H536.752Z" fill="white"/>
<path d="M497.692 0H489.233C480.452 0 473.266 6.54297 473.266 14.5395V38.7489C473.266 46.7454 480.452 53.2884 489.233 53.2884H497.692C506.474 53.2884 513.66 46.7454 513.66 38.7489V14.5395C513.66 6.54297 506.474 0 497.692 0ZM498.944 34.9013C498.944 37.6455 496.477 39.893 493.463 39.893C490.449 39.893 487.981 37.6455 487.981 34.9013V18.3952C487.981 15.651 490.449 13.4035 493.463 13.4035C496.477 13.4035 498.944 15.651 498.944 18.3952V34.9013Z" fill="white"/>
<path d="M594.4 0.468018C594.4 18.4765 594.42 18.5294 594.42 18.5905V34.783C594.42 37.4743 592.001 39.6811 589.044 39.6811C586.087 39.6811 583.665 37.4784 583.665 34.783V18.5905C583.665 18.5335 583.681 18.4765 583.685 0.472089H569.23V38.5614C569.23 46.4073 576.278 52.8281 584.896 52.8281H593.196C601.81 52.8281 608.862 46.4073 608.862 38.5614V0.468018H594.408H594.4Z" fill="white"/>
<path d="M665 52.8612L634.341 0.431885H617.745L632.648 25.708L617.745 45.9843L617.696 52.7879H634.292L642.156 41.8273L648.661 52.8612H665Z" fill="white"/>
<path d="M654.616 20.8548L642.976 0.431885H665L654.616 20.8548Z" fill="#61F4FF"/>
<path d="M443.031 13.2939V13.2776H458.101C462.555 13.2776 466.169 9.67022 466.169 5.22409V0.431885H439.017V0.509244C430.591 1.29505 424 8.15153 424 16.4941C424 25.366 431.448 32.5605 440.637 32.5605C440.857 32.5605 441.069 32.5442 441.285 32.532L441.024 32.5605L448.239 32.7192C450.796 33.273 452.721 35.4798 452.721 38.11V38.3461H452.738V41.1392H425.224V52.8653H466.046V36.2126C466.046 27.1372 458.358 19.7147 448.961 19.7147H443.031V19.6984C441.265 19.6211 439.849 18.2245 439.849 16.4982C439.849 14.7719 441.261 13.3753 443.031 13.298V13.2939Z" fill="white"/>
<path d="M362 4.70752L399.999 53.3245" stroke="white" stroke-width="4.6152" stroke-linecap="round"/>
<path d="M400 4.70752L362.001 53.3245" stroke="white" stroke-width="4.6152" stroke-linecap="round"/>
<path d="M6.40879 184V99.6371H26.2178V133.662H60.1261V99.6371H79.935V184H60.1261V149.859H26.2178V184H6.40879ZM110.231 184H88.7908L117.456 99.6371H143.79L172.338 184H151.014L145.305 165.939H115.941L110.231 184ZM120.718 150.791H140.527L130.972 120.495H130.273L120.718 150.791ZM233.396 130.05C232.289 121.369 226.055 115.892 216.617 115.95C204.207 115.892 196.575 125.389 196.575 141.819C196.575 158.831 204.382 167.687 216.5 167.687C225.589 167.687 231.882 162.793 233.396 154.52L253.438 154.636C251.865 169.668 238.989 185.165 216.151 185.165C193.312 185.165 176.3 169.551 176.3 141.819C176.3 113.969 193.662 98.4718 216.151 98.4718C236.368 98.4718 251.341 109.949 253.438 130.05H233.396ZM264.974 184V99.6371H284.783V135.643H285.948L314.264 99.6371H337.801L307.622 137.274L338.267 184H314.497L293.173 150.558L284.783 160.928V184H264.974ZM363.203 184H341.763L370.428 99.6371H396.762L425.31 184H403.987L398.277 165.939H368.913L363.203 184ZM373.69 150.791H393.499L383.945 120.495H383.245L373.69 150.791ZM420.882 115.834V99.6371H491.845V115.834H466.21V184H446.518V115.834H420.882ZM501.75 184V99.6371H521.559V133.662H555.467V99.6371H575.276V184H555.467V149.859H521.559V184H501.75ZM667.213 141.819C667.271 169.609 649.734 185.165 627.129 185.165C604.407 185.165 587.045 169.493 587.045 141.819C587.045 113.969 604.407 98.4718 627.129 98.4718C649.734 98.4718 667.271 113.969 667.213 141.819ZM607.32 141.819C607.32 158.598 614.836 167.687 627.129 167.687C639.48 167.687 646.996 158.598 646.938 141.819C646.996 125.039 639.48 115.892 627.129 115.95C614.836 115.892 607.32 125.039 607.32 141.819ZM750.527 99.6371V184H733.631L699.373 134.478H698.791V184H678.982V99.6371H696.111L730.019 149.16H730.718V99.6371H750.527Z" fill="#B8E9FF"/>
<path d="M91.0708 1.36719H103.297C112.019 1.36719 118.227 2.82164 121.922 5.72811C122.588 6.08441 123.65 7.03859 125.104 8.58822C129.68 13.6886 131.966 20.1336 131.966 27.9281C131.966 34.6488 130.073 40.4276 126.283 45.2644C124.662 47.0752 123.352 48.3027 122.351 48.9469C120.992 49.9231 119.789 50.6259 118.742 51.0554C116.167 52.3415 111.045 52.9857 103.37 52.9857H91.0708C91.022 52.9857 91 52.9613 91 52.9149V21.7442C91 21.7198 91.0244 21.7076 91.0708 21.7076H100.722C100.769 21.7076 100.793 21.7198 100.793 21.7442V43.3707H105.513C110.733 43.3707 114.33 42.6191 116.309 41.1182C117.334 40.4032 118.298 39.4149 119.206 38.1508C121.087 35.3614 122.029 31.8717 122.029 27.6767C122.029 21.671 120.194 17.1563 116.524 14.1278C113.688 11.9364 109.696 10.8382 104.549 10.8382H91.0708C91.022 10.8382 91 10.826 91 10.8016V1.43796C91 1.39159 91.0244 1.36719 91.0708 1.36719Z" fill="white"/>
<path d="M167.287 1.65259C167.358 1.65259 167.919 3.17781 168.966 6.22827C175.518 24.6969 178.857 34.146 178.976 34.5755H168.966C168.895 34.4559 168.263 32.6696 167.072 29.214L162.567 16.5949H162.531C162.006 18.1202 157.669 30.2024 149.519 52.8441C149.519 52.9392 149.482 52.988 149.411 52.988H139.508C139.459 52.988 139.438 52.9636 139.438 52.9173C141.058 48.4124 145.836 35.1514 153.772 13.1296C156.418 5.789 157.799 1.96495 157.918 1.65503H167.284L167.287 1.65259ZM172.185 43.4413H182.088C182.158 43.4413 182.361 43.9782 182.695 45.0495L185.519 52.949L185.448 52.9856H175.511C175.462 52.9612 175.069 51.9021 174.332 49.8034L172.116 43.4755L172.187 43.4389L172.185 43.4413Z" fill="white"/>
<path d="M219.119 1.36719C225.65 1.36719 231.631 3.52447 237.066 7.83659C238.256 8.83714 239.413 9.96946 240.533 11.2336C240.485 11.3287 238.305 13.4153 233.991 17.4882H233.954C229.498 12.793 224.493 10.4453 218.941 10.4453C213.101 10.4453 208.43 12.9125 204.928 17.8445C203.164 20.6094 202.283 23.5647 202.283 26.7103V27.462C202.283 32.1328 203.879 36.0887 207.074 39.3295C210.41 42.4287 214.426 43.9759 219.122 43.9759C223.507 43.9759 227.355 42.6069 230.667 39.8639C231.502 39.244 232.597 38.2801 233.957 36.9672H233.993C234.04 36.9672 236.15 39.1489 240.321 43.5098V43.5464C238.486 45.3108 236.973 46.6457 235.782 47.551C232.78 49.6961 230.252 51.0432 228.205 51.5898C225.44 52.5196 222.365 52.9833 218.983 52.9833C209.736 52.9833 202.552 49.4448 197.427 42.3653C194.425 38.0531 192.922 32.9748 192.922 27.1374C192.922 19.4161 195.638 13.0882 201.073 8.15627C206.405 3.63184 212.423 1.36719 219.119 1.36719Z" fill="white"/>
<path d="M273.598 1.58203C281.844 1.58203 288.685 5.13276 294.117 12.2342C297.309 16.6195 298.907 21.6955 298.907 27.4621C298.907 36.3743 295.083 43.5367 287.433 48.947C286.003 49.8768 284.561 50.6504 283.109 51.2702C280.107 52.4148 276.937 52.9858 273.601 52.9858C264.33 52.9858 257.05 48.9226 251.76 40.7962C249.28 36.6744 248.043 32.1817 248.043 27.3205C248.043 20.8145 250.212 15.0601 254.549 10.055C255.764 8.7689 256.838 7.76591 257.765 7.05332C262.556 3.40742 267.834 1.58447 273.601 1.58447L273.598 1.58203ZM257.441 27.1058V27.75C257.441 33.5654 259.884 38.1045 264.769 41.3697C267.439 43.1097 270.392 43.9784 273.635 43.9784C279.162 43.9784 283.631 41.4893 287.04 36.5061C288.731 33.7899 289.578 30.7395 289.578 27.3547C289.578 21.898 287.421 17.4297 283.109 13.9498C280.344 11.7803 277.127 10.6968 273.457 10.6968C267.881 10.6968 263.422 13.0908 260.086 17.8812C258.322 20.6705 257.441 23.743 257.441 27.1033V27.1058Z" fill="white"/>
<path d="M321.391 1.79663C325.586 1.79663 329.385 3.46584 332.795 6.80181C333.866 7.85117 334.761 8.80291 335.477 9.66192C335.452 9.68632 333.166 11.6996 328.614 15.7043L327.113 13.8447C325.159 11.7484 323.204 10.6991 321.252 10.6991C319.441 10.6991 318.143 11.4019 317.354 12.8075C317.21 13.1175 317.14 13.4518 317.14 13.8081V13.9521C317.14 15.121 317.818 16.2997 319.177 17.4906C321.774 19.9212 325.027 22.7447 328.936 25.9635C330.842 27.6547 332.214 29.0506 333.048 30.1463C335.24 32.8405 336.338 35.8421 336.338 39.1537C336.338 44.2296 334.134 48.1611 329.725 50.9504C327.34 52.3097 324.541 52.9881 321.325 52.9881C314.365 52.9881 309.172 49.4618 305.738 42.4067C310.814 39.3099 313.411 37.748 313.53 37.7236C315.866 42.0138 318.548 44.1589 321.574 44.1589C323.934 44.1589 325.686 43.1827 326.828 41.228C327.089 40.6326 327.221 40.0835 327.221 39.5832C327.221 37.7236 325.969 35.7591 323.468 33.6848C322.562 32.8258 320.727 31.2786 317.962 29.0384C316.556 27.8475 314.792 26.1783 312.671 24.0332C309.572 20.768 308.025 17.515 308.025 14.2742V13.9521C308.025 9.90107 309.98 6.54069 313.887 3.87094C316.078 2.48969 318.582 1.79663 321.393 1.79663H321.391Z" fill="white"/>
<defs>
<filter id="filter0_d_662_860" x="236.857" y="337.814" width="283.816" height="20.4014" filterUnits="userSpaceOnUse" color-interpolation-filters="sRGB">
<feFlood flood-opacity="0" result="BackgroundImageFix"/>
<feColorMatrix in="SourceAlpha" type="matrix" values="0 0 0 0 0 0 0 0 0 0 0 0 0 0 0 0 0 0 127 0" result="hardAlpha"/>
<feOffset dy="4"/>
<feGaussianBlur stdDeviation="2"/>
<feComposite in2="hardAlpha" operator="out"/>
<feColorMatrix type="matrix" values="0 0 0 0 0 0 0 0 0 0 0 0 0 0 0 0 0 0 0.25 0"/>
<feBlend mode="normal" in2="BackgroundImageFix" result="effect1_dropShadow_662_860"/>
<feBlend mode="normal" in="SourceGraphic" in2="effect1_dropShadow_662_860" result="shape"/>
</filter>
</defs>
</svg>
