<svg width="758" height="227" viewBox="0 0 758 227" fill="none" xmlns="http://www.w3.org/2000/svg">
<path d="M586.038 45.987V0.534668H570.33V45.987V58.7441V58.9118H614.562V45.987H586.038Z" fill="white"/>
<path d="M542.545 0.0537109H533.127C523.349 0.0537109 515.348 7.33896 515.348 16.2426V43.1985C515.348 52.1022 523.349 59.3874 533.127 59.3874H542.545C552.323 59.3874 560.325 52.1022 560.325 43.1985V16.2426C560.325 7.33896 552.323 0.0537109 542.545 0.0537109ZM543.94 38.9144C543.94 41.9699 541.192 44.4724 537.836 44.4724C534.48 44.4724 531.733 41.9699 531.733 38.9144V20.5358C531.733 17.4803 534.48 14.9778 537.836 14.9778C541.192 14.9778 543.94 17.4803 543.94 20.5358V38.9144Z" fill="white"/>
<path d="M650.225 0.574951C650.225 20.6264 650.247 20.6853 650.247 20.7533V38.7828C650.247 41.7794 647.554 44.2365 644.262 44.2365C640.969 44.2365 638.272 41.784 638.272 38.7828V20.7533C638.272 20.6898 638.29 20.6264 638.295 0.579485H622.2V42.9899C622.2 51.7258 630.048 58.875 639.643 58.875H648.885C658.476 58.875 666.328 51.7258 666.328 42.9899V0.574951H650.234H650.225Z" fill="white"/>
<path d="M728.834 58.9118L694.697 0.534668H676.219L692.812 28.6783L676.219 51.2548L676.164 58.8302H694.643L703.398 46.6262L710.642 58.9118H728.834Z" fill="white"/>
<path d="M717.272 23.2744L704.312 0.534668H728.835L717.272 23.2744Z" fill="#61F4FF"/>
<path d="M481.684 14.8558V14.8377H498.464C503.423 14.8377 507.447 10.8211 507.447 5.87053V0.534668H477.215V0.620803C467.833 1.49576 460.494 9.13008 460.494 18.4191C460.494 28.2975 468.787 36.3081 479.018 36.3081C479.263 36.3081 479.499 36.29 479.74 36.2763L479.45 36.3081L487.483 36.4849C490.33 37.1014 492.474 39.5586 492.474 42.4872V42.7501H492.492V45.8601H461.857V58.9164H507.31V40.3746C507.31 30.2695 498.75 22.0051 488.287 22.0051H481.684V21.9869C479.717 21.9008 478.142 20.3458 478.142 18.4236C478.142 16.5015 479.713 14.9465 481.684 14.8604V14.8558Z" fill="white"/>
<path d="M363.576 7.96606L408.41 65.3264" stroke="white" stroke-width="4.6152" stroke-linecap="round"/>
<path d="M408.41 7.96606L363.577 65.3264" stroke="white" stroke-width="4.6152" stroke-linecap="round"/>
<path d="M7.35996 198V113.637H27.1689V147.662H61.0772V113.637H80.8862V198H61.0772V163.859H27.1689V198H7.35996ZM111.182 198H89.742L118.407 113.637H144.741L173.289 198H151.965L146.256 179.939H116.892L111.182 198ZM121.669 164.791H141.478L131.923 134.495H131.224L121.669 164.791ZM234.348 144.05C233.241 135.369 227.007 129.892 217.568 129.95C205.158 129.892 197.526 139.389 197.526 155.819C197.526 172.831 205.333 181.687 217.452 181.687C226.54 181.687 232.833 176.793 234.348 168.52L254.39 168.636C252.816 183.668 239.941 199.165 217.102 199.165C194.263 199.165 177.251 183.551 177.251 155.819C177.251 127.969 194.613 112.472 217.102 112.472C237.319 112.472 252.292 123.949 254.39 144.05H234.348ZM265.925 198V113.637H285.734V149.643H286.9L315.215 113.637H338.752L308.573 151.274L339.219 198H315.448L294.124 164.558L285.734 174.928V198H265.925ZM364.155 198H342.714L371.379 113.637H397.713L426.262 198H404.938L399.228 179.939H369.864L364.155 198ZM374.642 164.791H394.451L384.896 134.495H384.197L374.642 164.791ZM421.834 129.834V113.637H492.796V129.834H467.161V198H447.469V129.834H421.834ZM502.701 198V113.637H522.51V147.662H556.418V113.637H576.227V198H556.418V163.859H522.51V198H502.701ZM668.164 155.819C668.222 183.609 650.686 199.165 628.08 199.165C605.358 199.165 587.996 183.493 587.996 155.819C587.996 127.969 605.358 112.472 628.08 112.472C650.686 112.472 668.222 127.969 668.164 155.819ZM608.271 155.819C608.271 172.598 615.787 181.687 628.08 181.687C640.432 181.687 647.947 172.598 647.889 155.819C647.947 139.039 640.432 129.892 628.08 129.95C615.787 129.892 608.271 139.039 608.271 155.819ZM751.478 113.637V198H734.582L700.325 148.478H699.742V198H679.933V113.637H697.062L730.97 163.16H731.669V113.637H751.478Z" fill="#B8E9FF"/>
<path d="M22.0823 7H36.3019C46.4457 7 53.6662 8.69159 57.9633 12.0719C58.7382 12.4863 59.9728 13.5961 61.6644 15.3983C66.9861 21.3303 69.6455 28.826 69.6455 37.8914C69.6455 45.7079 67.443 52.4288 63.0352 58.0542C61.1507 60.1602 59.6265 61.5878 58.4628 62.3371C56.8819 63.4724 55.4827 64.2898 54.2651 64.7894C51.2708 66.2851 45.3133 67.0344 36.387 67.0344H22.0823C22.0255 67.0344 22 67.006 22 66.9521V30.6993C22 30.6709 22.0284 30.6567 22.0823 30.6567H33.3075C33.3615 30.6567 33.3898 30.6709 33.3898 30.6993V55.8518H38.879C44.95 55.8518 49.1336 54.9776 51.4354 53.2321C52.6274 52.4005 53.7485 51.251 54.8044 49.7808C56.9926 46.5367 58.0882 42.478 58.0882 37.599C58.0882 30.6141 55.9538 25.3634 51.6851 21.8411C48.3871 19.2924 43.7437 18.0152 37.7579 18.0152H22.0823C22.0255 18.0152 22 18.001 22 17.9726V7.08231C22 7.02838 22.0284 7 22.0823 7Z" fill="white"/>
<path d="M110.724 7.33203C110.806 7.33203 111.459 9.10593 112.677 12.6537C120.297 34.1335 124.18 45.1232 124.319 45.6227H112.677C112.594 45.4836 111.859 43.406 110.474 39.3871L105.235 24.7106H105.192C104.582 26.4845 99.5385 40.5366 90.0587 66.8698C90.0587 66.9805 90.0162 67.0372 89.9339 67.0372H78.4163C78.3595 67.0372 78.334 67.0088 78.334 66.9549C80.2186 61.7155 85.7758 46.2925 95.0058 20.6803C98.0824 12.1428 99.6889 7.69533 99.828 7.33487H110.721L110.724 7.33203ZM116.42 55.934H127.938C128.02 55.934 128.256 56.5584 128.645 57.8044L131.928 66.9918L131.846 67.0344H120.289C120.232 67.006 119.775 65.7742 118.918 63.3333L116.341 55.9738L116.423 55.9312L116.42 55.934Z" fill="white"/>
<path d="M171.008 7C178.603 7 185.559 9.509 191.88 14.5242C193.265 15.6878 194.61 17.0048 195.913 18.475C195.856 18.5857 193.322 21.0124 188.304 25.7494H188.261C183.079 20.2886 177.257 17.5582 170.8 17.5582C164.008 17.5582 158.576 20.4277 154.503 26.1638C152.451 29.3795 151.427 32.8166 151.427 36.4751V37.3493C151.427 42.7817 153.283 47.3825 156.998 51.1516C160.878 54.7562 165.55 56.5556 171.01 56.5556C176.111 56.5556 180.587 54.9634 184.438 51.7732C185.409 51.0523 186.683 49.9312 188.264 48.4042H188.307C188.361 48.4042 190.816 50.9416 195.666 56.0135V56.0561C193.532 58.1082 191.772 59.6607 190.387 60.7137C186.896 63.2085 183.956 64.7752 181.574 65.4109C178.359 66.4923 174.782 67.0316 170.849 67.0316C160.095 67.0316 151.739 62.9161 145.778 54.6824C142.287 49.6672 140.539 43.7609 140.539 36.9718C140.539 27.9916 143.698 20.6321 150.019 14.896C156.22 9.63388 163.219 7 171.008 7Z" fill="white"/>
<path d="M234.369 7.24976C243.959 7.24976 251.915 11.3794 258.232 19.6387C261.945 24.739 263.804 30.6425 263.804 37.3493C263.804 47.7145 259.356 56.0448 250.458 62.3371C248.795 63.4185 247.118 64.3182 245.429 65.0391C241.938 66.3703 238.251 67.0344 234.371 67.0344C223.589 67.0344 215.122 62.3087 208.969 52.8574C206.085 48.0636 204.646 42.8384 204.646 37.1847C204.646 29.6179 207.17 22.9253 212.213 17.1041C213.627 15.6084 214.875 14.4419 215.954 13.6131C221.525 9.37276 227.665 7.25259 234.371 7.25259L234.369 7.24976ZM215.577 36.9349V37.6842C215.577 44.4477 218.418 49.7268 224.1 53.5244C227.205 55.5481 230.639 56.5585 234.411 56.5585C240.84 56.5585 246.037 53.6635 250.002 47.8678C251.968 44.7088 252.953 41.161 252.953 37.2244C252.953 30.8781 250.444 25.6813 245.429 21.6339C242.213 19.1108 238.473 17.8506 234.204 17.8506C227.719 17.8506 222.533 20.6349 218.653 26.2064C216.601 29.4505 215.577 33.0238 215.577 36.9321V36.9349Z" fill="white"/>
<path d="M289.954 7.49951C294.833 7.49951 299.253 9.44087 303.218 13.3207C304.464 14.5412 305.505 15.6481 306.337 16.6472C306.308 16.6755 303.649 19.0171 298.356 23.6746L296.61 21.5119C294.337 19.0738 292.063 17.8534 289.793 17.8534C287.687 17.8534 286.177 18.6708 285.26 20.3056C285.093 20.6661 285.01 21.0549 285.01 21.4693V21.6368C285.01 22.9963 285.799 24.3672 287.38 25.7522C290.4 28.5791 294.183 31.863 298.73 35.6066C300.947 37.5735 302.542 39.197 303.513 40.4713C306.061 43.6047 307.339 47.0958 307.339 50.9473C307.339 56.8508 304.776 61.4232 299.647 64.6673C296.874 66.2482 293.619 67.0372 289.878 67.0372C281.783 67.0372 275.743 62.936 271.75 54.7306C277.654 51.1289 280.673 49.3124 280.812 49.2841C283.529 54.2737 286.648 56.7685 290.167 56.7685C292.912 56.7685 294.95 55.6332 296.278 53.3598C296.582 52.6672 296.735 52.0286 296.735 51.4468C296.735 49.2841 295.279 46.9993 292.37 44.5868C291.317 43.5877 289.182 41.7883 285.967 39.1828C284.332 37.7977 282.28 35.8564 279.813 33.3615C276.209 29.564 274.409 25.7806 274.409 22.0114V21.6368C274.409 16.9253 276.683 13.017 281.227 9.91201C283.776 8.30557 286.688 7.49951 289.957 7.49951H289.954Z" fill="white"/>
</svg>
