<svg width="805" height="1050" viewBox="0 0 805 1050" fill="none" xmlns="http://www.w3.org/2000/svg">
<rect x="804.5" y="0.50003" width="1049" height="804" rx="11.5" transform="rotate(90 804.5 0.50003)" fill="black" stroke="#0057FF"/>
<path d="M101.297 122.063V156.001H94.2188V128.766H94.0312L86.25 133.641V127.407L94.6406 122.063H101.297ZM123.797 122.063V156.001H116.719V128.766H116.531L108.75 133.641V127.407L117.141 122.063H123.797ZM133.969 156.423C131.766 156.423 129.984 154.665 130.031 152.485C129.984 150.329 131.766 148.571 133.969 148.595C136.055 148.571 137.859 150.329 137.859 152.485C137.859 154.665 136.055 156.423 133.969 156.423ZM155.156 156.47C146.648 156.47 141.516 150.141 141.516 139.032C141.516 127.946 146.695 121.595 155.156 121.595C163.617 121.595 168.797 127.946 168.797 139.032C168.797 150.188 163.641 156.47 155.156 156.47ZM148.734 139.032C148.688 146.86 151.219 150.657 155.156 150.657C159.094 150.657 161.602 146.86 161.578 139.032C161.602 131.274 159.07 127.384 155.156 127.36C151.242 127.384 148.734 131.274 148.734 139.032ZM186.422 156.47C178.664 156.47 173.109 152.391 173.109 146.86C173.109 142.595 176.391 139.126 180.609 138.47V138.235C176.93 137.532 174.398 134.462 174.422 130.735C174.398 125.462 179.484 121.595 186.422 121.595C193.359 121.595 198.445 125.462 198.469 130.735C198.445 134.462 195.844 137.532 192.281 138.235V138.47C196.406 139.126 199.734 142.595 199.734 146.86C199.734 152.391 194.156 156.47 186.422 156.47ZM180.469 146.157C180.445 149.063 182.836 151.102 186.422 151.079C190.008 151.102 192.398 149.063 192.375 146.157C192.398 143.227 189.867 141.071 186.422 141.048C182.977 141.071 180.445 143.204 180.469 146.157ZM181.312 131.438C181.289 134.157 183.422 136.056 186.422 136.079C189.398 136.056 191.555 134.157 191.578 131.438C191.555 128.79 189.445 126.938 186.422 126.938C183.375 126.938 181.289 128.79 181.312 131.438ZM216.703 143.063C216.727 134.251 219.445 126.915 223.922 120.61H230.531C227.297 125.274 223.922 134.673 223.922 143.063C223.922 151.477 227.297 160.852 230.531 165.563H223.922C219.445 159.235 216.727 151.899 216.703 143.063ZM234.516 156.001V122.063H256.875V127.876H241.547V136.126H255.422V141.938H241.547V156.001H234.516ZM261.516 156.001V122.063H274.828C282.539 122.063 286.969 126.399 286.969 133.126C286.969 137.766 284.836 141.141 280.969 142.806L288.188 156.001H280.406L273.914 143.954H268.547V156.001H261.516ZM268.547 138.235H273.516C277.688 138.235 279.727 136.524 279.703 133.126C279.727 129.704 277.688 127.852 273.516 127.829H268.547V138.235ZM298.875 122.063V156.001H291.844V122.063H298.875ZM316.688 143.063C316.664 151.899 313.945 159.235 309.469 165.563H302.859C306.094 160.852 309.469 151.477 309.469 143.063C309.469 134.673 306.094 125.274 302.859 120.61H309.469C313.945 126.915 316.664 134.251 316.688 143.063Z" fill="#0057FF"/>
<path d="M91.2969 562.064V596.001H84.2188V568.767H84.0312L76.25 573.642V567.408L84.6406 562.064H91.2969ZM113.797 562.064V596.001H106.719V568.767H106.531L98.75 573.642V567.408L107.141 562.064H113.797ZM123.969 596.423C121.766 596.423 119.984 594.665 120.031 592.486C119.984 590.329 121.766 588.572 123.969 588.595C126.055 588.572 127.859 590.329 127.859 592.486C127.859 594.665 126.055 596.423 123.969 596.423ZM145.156 596.47C136.648 596.47 131.516 590.142 131.516 579.033C131.516 567.947 136.695 561.595 145.156 561.595C153.617 561.595 158.797 567.947 158.797 579.033C158.797 590.189 153.641 596.47 145.156 596.47ZM138.734 579.033C138.688 586.861 141.219 590.658 145.156 590.658C149.094 590.658 151.602 586.861 151.578 579.033C151.602 571.275 149.07 567.384 145.156 567.361C141.242 567.384 138.734 571.275 138.734 579.033ZM176.047 561.595C183.078 561.619 189.734 565.814 189.734 578.142C189.758 589.673 184.297 596.47 175.766 596.47C168.945 596.47 164.258 592.181 163.578 586.439H170.516C171.102 588.947 173.047 590.423 175.766 590.423C180.383 590.423 182.82 586.275 182.844 579.501H182.562C180.969 582.501 177.617 584.283 173.844 584.283C167.75 584.283 163.25 579.689 163.203 573.361C163.203 566.54 168.383 561.572 176.047 561.595ZM170.094 573.173C170.094 576.525 172.555 579.126 176.047 579.126C179.492 579.126 182.141 576.384 182.141 573.126C182.094 569.892 179.562 567.15 176.094 567.126C172.625 567.15 170.047 569.798 170.094 573.173ZM206.656 583.064C206.68 574.251 209.398 566.915 213.875 560.611H220.484C217.25 565.275 213.875 574.673 213.875 583.064C213.875 591.478 217.25 600.853 220.484 605.564H213.875C209.398 599.236 206.68 591.9 206.656 583.064ZM242.891 571.767C242.609 569.072 240.477 567.501 237.031 567.501C233.469 567.501 231.477 569.142 231.453 571.392C231.43 573.853 233.961 574.954 236.891 575.611L239.938 576.361C245.75 577.697 250.086 580.65 250.109 586.298C250.086 592.509 245.258 596.494 236.984 596.47C228.781 596.494 223.555 592.697 223.344 585.408H230.188C230.422 588.829 233.141 590.564 236.891 590.564C240.594 590.564 242.984 588.829 242.984 586.298C242.984 583.978 240.875 582.9 237.172 581.986L233.469 581.095C227.75 579.689 224.234 576.829 224.234 571.861C224.211 565.697 229.648 561.595 237.078 561.595C244.602 561.595 249.547 565.767 249.641 571.767H242.891ZM259.578 596.001H251.984L263.75 562.064H272.797L284.516 596.001H276.969L274.414 588.173H262.133L259.578 596.001ZM263.914 582.689H272.633L268.391 569.704H268.156L263.914 582.689ZM282.875 567.876V562.064H310.672V567.876H300.266V596.001H293.281V567.876H282.875ZM327.125 583.064C327.102 591.9 324.383 599.236 319.906 605.564H313.297C316.531 600.853 319.906 591.478 319.906 583.064C319.906 574.673 316.531 565.275 313.297 560.611H319.906C324.383 566.915 327.102 574.251 327.125 583.064Z" fill="#0057FF"/>
<mask id="path-4-inside-1_702_951" fill="white">
<path d="M82 196.001H723V338.001H82V196.001Z"/>
</mask>
<path d="M82 196.001H723V338.001H82V196.001Z" fill="black"/>
<path d="M82 196.501H723V195.501H82V196.501Z" fill="white" mask="url(#path-4-inside-1_702_951)"/>
<mask id="path-6-inside-2_702_951" fill="white">
<path d="M82 338.001H723V438.001H82V338.001Z"/>
</mask>
<path d="M82 338.001H723V438.001H82V338.001Z" fill="black"/>
<path d="M82 338.501H723V337.501H82V338.501ZM723 437.501H82V438.501H723V437.501Z" fill="white" mask="url(#path-6-inside-2_702_951)"/>
<mask id="path-8-inside-3_702_951" fill="white">
<path d="M82 636.001H723V736.001H82V636.001Z"/>
</mask>
<path d="M82 636.001H723V736.001H82V636.001Z" fill="black"/>
<path d="M82 636.501H723V635.501H82V636.501Z" fill="white" mask="url(#path-8-inside-3_702_951)"/>
<mask id="path-10-inside-4_702_951" fill="white">
<path d="M82 736.001H723V836.001H82V736.001Z"/>
</mask>
<path d="M82 736.001H723V836.001H82V736.001Z" fill="black"/>
<path d="M82 736.501H723V735.501H82V736.501Z" fill="white" mask="url(#path-10-inside-4_702_951)"/>
<mask id="path-12-inside-5_702_951" fill="white">
<path d="M82 836.001H723V936.001H82V836.001Z"/>
</mask>
<path d="M82 836.001H723V936.001H82V836.001Z" fill="black"/>
<path d="M82 836.501H723V835.501H82V836.501ZM723 935.501H82V936.501H723V935.501Z" fill="white" mask="url(#path-12-inside-5_702_951)"/>
<path d="M590.219 256.516C590.23 261.883 587.066 265.235 582.719 265.235C578.359 265.235 575.207 261.883 575.219 256.516C575.207 251.149 578.359 247.798 582.719 247.798C587.066 247.798 590.23 251.149 590.219 256.516ZM577.258 256.516C577.27 260.887 579.648 263.255 582.719 263.266C585.789 263.255 588.168 260.887 588.18 256.516C588.168 252.133 585.789 249.766 582.719 249.766C579.648 249.766 577.27 252.133 577.258 256.516ZM591.672 249.907V248.032H604.469V249.907H599.148V265.001H597.016V249.907H591.672ZM613.562 258.532C613.586 254.114 614.781 250.434 616.938 247.305H618.719C617.137 249.614 615.66 254.36 615.648 258.532C615.66 262.716 617.137 267.45 618.719 269.782H616.938C614.781 266.641 613.586 262.962 613.562 258.532ZM638.148 246.063V259.258H636.391V253.282H633.602V258.508H631.867V246.485H633.602V251.758H636.391V246.063H638.148ZM620.336 250.048V248.571H624.789V246.227H626.617V248.571H631.023V250.048H620.336ZM621.25 254.735C621.238 252.555 623.078 251.161 625.703 251.173C628.34 251.161 630.168 252.555 630.18 254.735C630.168 256.88 628.34 258.274 625.703 258.274C623.078 258.274 621.238 256.88 621.25 254.735ZM622.891 254.735C622.891 256.012 624.039 256.891 625.703 256.891C627.367 256.891 628.516 256.012 628.516 254.735C628.516 253.411 627.367 252.532 625.703 252.532C624.039 252.532 622.891 253.411 622.891 254.735ZM624.273 263.266C624.25 260.923 626.863 259.61 631.258 259.61C635.641 259.61 638.254 260.923 638.266 263.266C638.254 265.551 635.641 266.852 631.258 266.852C626.863 266.852 624.25 265.551 624.273 263.266ZM626.102 263.266C626.078 264.614 628.012 265.434 631.258 265.423C634.492 265.434 636.414 264.614 636.438 263.266C636.414 261.837 634.492 261.04 631.258 261.063C628.012 261.04 626.078 261.837 626.102 263.266ZM648.18 251.665C648.18 255.333 650.605 259.118 653.57 260.571L652.445 262.048C650.148 260.852 648.227 258.38 647.301 255.485C646.375 258.555 644.406 261.192 642.062 262.446L640.891 260.969C643.938 259.469 646.352 255.473 646.375 251.665V247.868H648.18V251.665ZM655.492 266.899V246.063H657.32V254.524H660.812V256.118H657.32V266.899H655.492ZM684.25 246.063V252.415H687.391V253.962H684.25V261.438H682.422V246.063H684.25ZM668.359 252.673C668.348 249.649 670.715 247.551 673.82 247.54C676.949 247.551 679.281 249.649 679.305 252.673C679.281 255.684 676.949 257.805 673.82 257.805C670.715 257.805 668.348 255.684 668.359 252.673ZM670.164 252.673C670.152 254.723 671.758 256.188 673.82 256.188C675.918 256.188 677.488 254.723 677.5 252.673C677.488 250.61 675.918 249.157 673.82 249.157C671.758 249.157 670.152 250.61 670.164 252.673ZM671.219 266.454V259.844H673.023V264.907H685.211V266.454H671.219ZM706.492 246.063V266.899H704.688V256.118H701.688V265.821H699.953V246.532H701.688V254.548H704.688V246.063H706.492ZM689.758 261.508V248.618H691.586V259.868C693.648 259.856 695.875 259.704 698.406 259.188L698.641 260.829C695.734 261.356 693.344 261.508 691.047 261.508H689.758ZM714.648 258.532C714.625 262.962 713.43 266.641 711.273 269.782H709.492C711.074 267.45 712.551 262.716 712.562 258.532C712.551 254.36 711.074 249.614 709.492 247.305H711.273C713.43 250.434 714.625 254.114 714.648 258.532Z" fill="white"/>
<path d="M86.625 265.001H84.4219L90.6328 248.032H92.8594L99.0703 265.001H96.8438L95.1445 260.219H88.3242L86.625 265.001ZM88.9688 258.368H94.5L91.8047 250.774H91.6641L88.9688 258.368ZM101.367 248.032H103.898L109.617 262.001H109.828L115.547 248.032H118.078V265.001H116.086V252.18H115.922L110.648 265.001H108.773L103.5 252.18H103.359V265.001H101.367V248.032ZM133.57 248.032V265.001H131.438V250.235H131.344L127.219 252.977V250.844L131.438 248.032H133.57ZM143.648 265.235C139.887 265.235 137.707 262.071 137.719 256.516C137.707 251.008 139.91 247.798 143.648 247.798C147.375 247.798 149.578 251.008 149.578 256.516C149.578 262.071 147.41 265.235 143.648 265.235ZM139.758 256.516C139.77 260.911 141.188 263.36 143.648 263.36C146.098 263.36 147.527 260.911 147.516 256.516C147.527 252.122 146.086 249.637 143.648 249.626C141.211 249.637 139.77 252.122 139.758 256.516ZM153.844 262.751C153.023 262.739 152.32 262.059 152.344 261.227C152.32 260.407 153.023 259.727 153.844 259.727C154.676 259.727 155.355 260.407 155.344 261.227C155.355 262.059 154.676 262.739 153.844 262.751ZM152.344 251.805C152.32 250.985 153.023 250.305 153.844 250.305C154.676 250.305 155.355 250.985 155.344 251.805C155.355 252.637 154.676 253.317 153.844 253.329C153.023 253.317 152.32 252.637 152.344 251.805ZM164.039 265.235C160.277 265.235 158.098 262.071 158.109 256.516C158.098 251.008 160.301 247.798 164.039 247.798C167.766 247.798 169.969 251.008 169.969 256.516C169.969 262.071 167.801 265.235 164.039 265.235ZM160.148 256.516C160.16 260.911 161.578 263.36 164.039 263.36C166.488 263.36 167.918 260.911 167.906 256.516C167.918 252.122 166.477 249.637 164.039 249.626C161.602 249.637 160.16 252.122 160.148 256.516ZM178.336 265.235C174.574 265.235 172.395 262.071 172.406 256.516C172.395 251.008 174.598 247.798 178.336 247.798C182.062 247.798 184.266 251.008 184.266 256.516C184.266 262.071 182.098 265.235 178.336 265.235ZM174.445 256.516C174.457 260.911 175.875 263.36 178.336 263.36C180.785 263.36 182.215 260.911 182.203 256.516C182.215 252.122 180.773 249.637 178.336 249.626C175.898 249.637 174.457 252.122 174.445 256.516ZM200.414 255.602V257.454H192.984V255.602H200.414ZM210.539 265.001H208.336L214.547 248.032H216.773L222.984 265.001H220.758L219.059 260.219H212.238L210.539 265.001ZM212.883 258.368H218.414L215.719 250.774H215.578L212.883 258.368ZM225.281 248.032H227.812L233.531 262.001H233.742L239.461 248.032H241.992V265.001H240V252.18H239.836L234.562 265.001H232.688L227.414 252.18H227.273V265.001H225.281V248.032ZM257.484 248.032V265.001H255.352V250.235H255.258L251.133 252.977V250.844L255.352 248.032H257.484ZM267.562 265.235C263.801 265.235 261.621 262.071 261.633 256.516C261.621 251.008 263.824 247.798 267.562 247.798C271.289 247.798 273.492 251.008 273.492 256.516C273.492 262.071 271.324 265.235 267.562 265.235ZM263.672 256.516C263.684 260.911 265.102 263.36 267.562 263.36C270.012 263.36 271.441 260.911 271.43 256.516C271.441 252.122 270 249.637 267.562 249.626C265.125 249.637 263.684 252.122 263.672 256.516ZM277.758 262.751C276.938 262.739 276.234 262.059 276.258 261.227C276.234 260.407 276.938 259.727 277.758 259.727C278.59 259.727 279.27 260.407 279.258 261.227C279.27 262.059 278.59 262.739 277.758 262.751ZM276.258 251.805C276.234 250.985 276.938 250.305 277.758 250.305C278.59 250.305 279.27 250.985 279.258 251.805C279.27 252.637 278.59 253.317 277.758 253.329C276.938 253.317 276.234 252.637 276.258 251.805ZM288.258 265.235C284.883 265.235 282.457 263.43 282.352 260.735H284.484C284.602 262.352 286.207 263.36 288.234 263.36C290.473 263.36 292.09 262.153 292.102 260.383C292.09 258.532 290.613 257.231 287.977 257.219H286.594V255.368H287.977C290.039 255.368 291.48 254.208 291.469 252.462C291.48 250.762 290.238 249.637 288.305 249.626C286.488 249.637 284.836 250.633 284.742 252.298H282.703C282.809 249.602 285.316 247.798 288.328 247.798C291.562 247.798 293.531 249.919 293.508 252.344C293.531 254.278 292.406 255.684 290.625 256.188V256.305C292.84 256.645 294.176 258.227 294.164 260.383C294.176 263.173 291.645 265.235 288.258 265.235ZM302.766 265.235C299.004 265.235 296.824 262.071 296.836 256.516C296.824 251.008 299.027 247.798 302.766 247.798C306.492 247.798 308.695 251.008 308.695 256.516C308.695 262.071 306.527 265.235 302.766 265.235ZM298.875 256.516C298.887 260.911 300.305 263.36 302.766 263.36C305.215 263.36 306.645 260.911 306.633 256.516C306.645 252.122 305.203 249.637 302.766 249.626C300.328 249.637 298.887 252.122 298.875 256.516Z" fill="white"/>
<path d="M87.7598 292.667H86.8301L86.9121 290.548L85.1074 291.682L84.6426 290.876L86.5293 289.891L84.6426 288.893L85.1074 288.087L86.9121 289.221L86.8301 287.102H87.7598L87.6777 289.221L89.4824 288.087L89.9473 288.893L88.0742 289.891L89.9473 290.876L89.4824 291.682L87.6777 290.548L87.7598 292.667ZM104.617 285.967V295.196H103.537V293.938H101.021V293.159H103.537V285.967H104.617ZM94.5273 291.6C96.79 291.587 99.8389 291.566 102.443 291.245L102.512 292.024C101.432 292.195 100.29 292.304 99.1758 292.373V294.772H98.0957V292.427C96.8652 292.475 95.6963 292.475 94.6777 292.475L94.5273 291.6ZM95.5117 288.579C95.5049 287.3 96.7217 286.46 98.5195 286.46C100.304 286.46 101.521 287.3 101.527 288.579C101.521 289.878 100.304 290.684 98.5195 290.684C96.7217 290.684 95.5049 289.878 95.5117 288.579ZM96.2773 297.848V294.294H97.3574V296.946H104.918V297.848H96.2773ZM96.5371 288.579C96.5234 289.372 97.3301 289.884 98.5195 289.891C99.6748 289.884 100.495 289.372 100.502 288.579C100.495 287.799 99.6748 287.266 98.5195 287.28C97.3301 287.266 96.5234 287.799 96.5371 288.579ZM116.184 285.954V289.071H118.002V289.987H116.184V293.132H115.104V285.954H116.184ZM106.641 292.038C107.611 292.038 108.746 292.038 109.936 292.004V291.252C108.507 291.135 107.604 290.568 107.611 289.645C107.604 288.647 108.726 288.066 110.455 288.073C112.185 288.066 113.299 288.647 113.312 289.645C113.299 290.561 112.417 291.129 111.002 291.252V291.963C112.137 291.908 113.285 291.819 114.352 291.669L114.447 292.393C111.822 292.824 108.903 292.844 106.764 292.844L106.641 292.038ZM106.941 287.663V286.883H109.936V285.844H111.002V286.883H113.982V287.663H106.941ZM108.268 294.444V293.678H116.184V296.126H109.361V297.206H116.648V297.971H108.295V295.401H115.117V294.444H108.268ZM108.637 289.645C108.63 290.192 109.334 290.541 110.455 290.548C111.576 290.541 112.287 290.192 112.287 289.645C112.287 289.112 111.576 288.791 110.455 288.784C109.334 288.791 108.63 289.112 108.637 289.645ZM128.297 285.967V289.973H130.129V290.876H128.297V295.073H127.23V285.967H128.297ZM118.822 288.333V287.458H121.912V285.967H122.979V287.458H126.068V288.333H118.822ZM119.52 291.272C119.513 289.891 120.688 289.003 122.445 289.003C124.182 289.003 125.357 289.891 125.371 291.272C125.357 292.639 124.182 293.521 122.445 293.514C120.688 293.521 119.513 292.639 119.52 291.272ZM120.545 291.272C120.538 292.127 121.297 292.68 122.445 292.667C123.58 292.68 124.346 292.127 124.359 291.272C124.346 290.404 123.58 289.843 122.445 289.85C121.297 289.843 120.538 290.404 120.545 291.272ZM120.695 297.848V294.348H121.748V296.946H128.857V297.848H120.695ZM144.73 285.954V293.651H143.705V290.165H142.078V293.214H141.066V286.2H142.078V289.276H143.705V285.954H144.73ZM134.34 288.278V287.417H136.938V286.049H138.004V287.417H140.574V288.278H134.34ZM134.873 291.012C134.866 289.741 135.939 288.927 137.471 288.934C139.009 288.927 140.075 289.741 140.082 291.012C140.075 292.263 139.009 293.077 137.471 293.077C135.939 293.077 134.866 292.263 134.873 291.012ZM135.83 291.012C135.83 291.758 136.5 292.27 137.471 292.27C138.441 292.27 139.111 291.758 139.111 291.012C139.111 290.24 138.441 289.727 137.471 289.727C136.5 289.727 135.83 290.24 135.83 291.012ZM136.637 295.989C136.623 294.622 138.147 293.856 140.711 293.856C143.268 293.856 144.792 294.622 144.799 295.989C144.792 297.322 143.268 298.081 140.711 298.081C138.147 298.081 136.623 297.322 136.637 295.989ZM137.703 295.989C137.689 296.775 138.817 297.254 140.711 297.247C142.598 297.254 143.719 296.775 143.732 295.989C143.719 295.155 142.598 294.69 140.711 294.704C138.817 294.69 137.689 295.155 137.703 295.989ZM150.582 289.221C150.582 291.361 151.997 293.569 153.727 294.417L153.07 295.278C151.73 294.581 150.609 293.138 150.069 291.45C149.529 293.241 148.381 294.779 147.014 295.51L146.33 294.649C148.107 293.774 149.516 291.443 149.529 289.221V287.007H150.582V289.221ZM154.848 298.108V285.954H155.914V290.889H157.951V291.819H155.914V298.108H154.848ZM166.496 288.565C166.503 290.206 167.795 291.682 169.613 292.257L169.066 293.118C167.651 292.633 166.53 291.634 165.977 290.356C165.45 291.737 164.309 292.831 162.859 293.364L162.299 292.503C164.124 291.867 165.409 290.288 165.416 288.565V287.854H162.572V286.979H169.299V287.854H166.496V288.565ZM164.309 297.848V294.034H165.375V296.946H172.539V297.848H164.309ZM171.09 294.882V285.967H172.156V294.882H171.09ZM184.543 285.954V293.651H183.518V290.165H181.891V293.214H180.879V286.2H181.891V289.276H183.518V285.954H184.543ZM174.152 288.278V287.417H176.75V286.049H177.816V287.417H180.387V288.278H174.152ZM174.686 291.012C174.679 289.741 175.752 288.927 177.283 288.934C178.821 288.927 179.888 289.741 179.895 291.012C179.888 292.263 178.821 293.077 177.283 293.077C175.752 293.077 174.679 292.263 174.686 291.012ZM175.643 291.012C175.643 291.758 176.312 292.27 177.283 292.27C178.254 292.27 178.924 291.758 178.924 291.012C178.924 290.24 178.254 289.727 177.283 289.727C176.312 289.727 175.643 290.24 175.643 291.012ZM176.449 295.989C176.436 294.622 177.96 293.856 180.523 293.856C183.08 293.856 184.604 294.622 184.611 295.989C184.604 297.322 183.08 298.081 180.523 298.081C177.96 298.081 176.436 297.322 176.449 295.989ZM177.516 295.989C177.502 296.775 178.63 297.254 180.523 297.247C182.41 297.254 183.531 296.775 183.545 295.989C183.531 295.155 182.41 294.69 180.523 294.704C178.63 294.69 177.502 295.155 177.516 295.989ZM191.857 286.173C194.558 286.173 196.144 286.918 196.15 288.264C196.144 289.645 194.558 290.39 191.857 290.397C189.144 290.39 187.551 289.645 187.551 288.264C187.551 286.918 189.144 286.173 191.857 286.173ZM186.32 292.092V291.217H197.395V292.092H186.32ZM187.66 293.966V293.145H195.973V295.866H188.754V297.124H196.342V297.971H187.688V295.073H194.92V293.966H187.66ZM188.672 288.264C188.658 289.112 189.841 289.577 191.857 289.577C193.874 289.577 195.05 289.112 195.057 288.264C195.05 287.465 193.874 286.986 191.857 286.979C189.841 286.986 188.658 287.465 188.672 288.264ZM205.939 286.555C207.758 286.542 209.063 287.547 209.057 289.03C209.063 290.513 207.758 291.525 205.939 291.518C204.121 291.525 202.822 290.513 202.822 289.03C202.822 287.547 204.121 286.542 205.939 286.555ZM201.906 292.557C204.189 292.564 207.313 292.516 210.014 292.12L210.082 292.926C208.92 293.138 207.717 293.268 206.541 293.343V297.739H205.475V293.405C204.237 293.46 203.068 293.466 202.057 293.473L201.906 292.557ZM203.875 289.03C203.861 289.98 204.729 290.636 205.939 290.63C207.163 290.636 208.038 289.98 208.031 289.03C208.038 288.087 207.163 287.417 205.939 287.43C204.729 287.417 203.861 288.087 203.875 289.03ZM210.902 298.122V285.967H211.955V298.122H210.902ZM220.104 288.059V288.934H214.006V288.059H216.535V286.323H217.602V288.059H220.104ZM214.443 292.516C214.443 290.903 215.544 289.761 217.055 289.755C218.586 289.761 219.68 290.903 219.693 292.516C219.68 294.15 218.586 295.299 217.055 295.305C215.544 295.299 214.443 294.15 214.443 292.516ZM215.4 292.516C215.4 293.596 216.091 294.369 217.055 294.362C218.025 294.369 218.736 293.596 218.736 292.516C218.736 291.45 218.025 290.671 217.055 290.657C216.091 290.671 215.4 291.45 215.4 292.516ZM220.732 297.507V286.255H221.744V291.081H223.357V285.954H224.383V298.108H223.357V291.969H221.744V297.507H220.732ZM239.969 285.954V293.651H238.943V290.165H237.316V293.214H236.305V286.2H237.316V289.276H238.943V285.954H239.969ZM229.578 288.278V287.417H232.176V286.049H233.242V287.417H235.812V288.278H229.578ZM230.111 291.012C230.104 289.741 231.178 288.927 232.709 288.934C234.247 288.927 235.313 289.741 235.32 291.012C235.313 292.263 234.247 293.077 232.709 293.077C231.178 293.077 230.104 292.263 230.111 291.012ZM231.068 291.012C231.068 291.758 231.738 292.27 232.709 292.27C233.68 292.27 234.35 291.758 234.35 291.012C234.35 290.24 233.68 289.727 232.709 289.727C231.738 289.727 231.068 290.24 231.068 291.012ZM231.875 295.989C231.861 294.622 233.386 293.856 235.949 293.856C238.506 293.856 240.03 294.622 240.037 295.989C240.03 297.322 238.506 298.081 235.949 298.081C233.386 298.081 231.861 297.322 231.875 295.989ZM232.941 295.989C232.928 296.775 234.056 297.254 235.949 297.247C237.836 297.254 238.957 296.775 238.971 295.989C238.957 295.155 237.836 294.69 235.949 294.704C234.056 294.69 232.928 295.155 232.941 295.989ZM245.82 289.221C245.82 291.361 247.235 293.569 248.965 294.417L248.309 295.278C246.969 294.581 245.848 293.138 245.308 291.45C244.768 293.241 243.619 294.779 242.252 295.51L241.568 294.649C243.346 293.774 244.754 291.443 244.768 289.221V287.007H245.82V289.221ZM250.086 298.108V285.954H251.152V290.889H253.189V291.819H251.152V298.108H250.086ZM261.68 289.221C261.673 291.443 263.184 293.672 264.975 294.485L264.318 295.333C262.931 294.663 261.734 293.22 261.153 291.491C260.593 293.323 259.396 294.861 257.975 295.579L257.291 294.676C259.103 293.849 260.6 291.525 260.613 289.221V287.007H261.68V289.221ZM266.301 298.135V285.954H267.381V298.135H266.301ZM273.574 288.21C273.581 289.83 274.771 291.306 276.568 291.928L276.021 292.762C274.634 292.27 273.574 291.279 273.055 290.021C272.535 291.402 271.421 292.475 269.992 292.995L269.418 292.161C271.236 291.518 272.508 289.953 272.521 288.21V287.69H269.746V286.815H276.309V287.69H273.574V288.21ZM271.004 294.799V293.924H278.961V298.108H277.895V294.799H271.004ZM277.895 293.282V285.954H278.961V289.167H280.793V290.083H278.961V293.282H277.895ZM289.01 287.102V297.001H287.766V288.387H287.711L285.305 289.987V288.743L287.766 287.102H289.01ZM294.889 297.137C292.694 297.137 291.423 295.292 291.43 292.051C291.423 288.839 292.708 286.966 294.889 286.966C297.062 286.966 298.348 288.839 298.348 292.051C298.348 295.292 297.083 297.137 294.889 297.137ZM292.619 292.051C292.626 294.615 293.453 296.044 294.889 296.044C296.317 296.044 297.151 294.615 297.145 292.051C297.151 289.488 296.311 288.039 294.889 288.032C293.467 288.039 292.626 289.488 292.619 292.051ZM310.666 292.393V293.268H305.717V295.647H304.65V293.268H299.537V292.393H310.666ZM300.959 297.848V294.526H302.025V296.946H309.422V297.848H300.959ZM301.027 291.204V286.35H302.094V287.909H308.109V286.35H309.176V291.204H301.027ZM302.094 290.329H308.109V288.729H302.094V290.329ZM325.24 285.967V294.882H324.16V290.219H321.658V289.331H324.16V285.967H325.24ZM315.219 292.448C317.01 291.819 318.309 290.213 318.309 288.469V287.841H315.561V286.952H322.109V287.841H319.389V288.469C319.389 290.042 320.605 291.566 322.383 292.174L321.822 293.036C320.455 292.537 319.396 291.518 318.869 290.26C318.343 291.669 317.222 292.783 315.779 293.323L315.219 292.448ZM317.434 297.848V294.075H318.514V296.946H325.582V297.848H317.434ZM337.682 285.954V298.108H336.643V285.954H337.682ZM327.414 291.204C327.421 288.62 328.446 286.986 330.025 286.979C331.502 286.986 332.5 288.408 332.637 290.698H334.209V286.214H335.234V297.493H334.209V291.587H332.644C332.541 293.952 331.522 295.435 330.025 295.428C328.446 295.435 327.421 293.788 327.414 291.204ZM328.426 291.204C328.412 293.173 329.041 294.417 330.025 294.403C331.017 294.417 331.646 293.173 331.639 291.204C331.646 289.228 331.017 287.991 330.025 287.991C329.041 287.991 328.412 289.228 328.426 291.204ZM352.912 285.954V292.475H351.846V285.954H352.912ZM343.164 289.344C343.157 287.683 344.504 286.542 346.35 286.555C348.195 286.542 349.528 287.683 349.535 289.344C349.528 290.999 348.195 292.14 346.35 292.133C344.504 292.14 343.157 290.999 343.164 289.344ZM344.217 289.344C344.203 290.452 345.099 291.238 346.35 291.245C347.587 291.238 348.482 290.452 348.482 289.344C348.482 288.23 347.587 287.451 346.35 287.458C345.099 287.451 344.203 288.23 344.217 289.344ZM345.037 297.944V293.091H346.104V294.567H351.846V293.091H352.912V297.944H345.037ZM346.104 297.069H351.846V295.428H346.104V297.069ZM364.998 285.954V292.257H363.945V285.954H364.998ZM355.059 291.286C356.891 290.65 358.189 289.023 358.189 287.239V286.309H359.283V287.239C359.27 288.955 360.582 290.472 362.387 291.067L361.854 291.901C360.425 291.416 359.297 290.397 358.75 289.085C358.203 290.5 357.062 291.614 355.619 292.133L355.059 291.286ZM357.109 293.733V292.872H365.012V295.784H358.189V297.096H365.449V297.971H357.137V294.95H363.945V293.733H357.109ZM381.705 293.173V294.048H376.633V298.108H375.58V294.048H370.576V293.173H381.705ZM371.998 291.696V286.46H373.064V288.141H379.189V286.46H380.27V291.696H371.998ZM373.064 290.821H379.189V289.016H373.064V290.821ZM388.855 286.788V287.676H384.33V289.262H388.623V290.11H384.33V291.792C386.702 291.792 388.049 291.723 389.648 291.436L389.771 292.325C388.097 292.612 386.695 292.667 384.18 292.653H383.264V286.788H388.855ZM384.234 294.799V293.924H392.191V298.108H391.125V294.799H384.234ZM391.125 293.323V285.954H392.191V289.194H394.023V290.11H392.191V293.323H391.125ZM404.605 291.805V292.694H396.211V287.089H404.482V287.977H397.277V291.805H404.605ZM394.789 296.454V295.551H405.918V296.454H394.789ZM416.924 285.967V292.639H415.857V285.967H416.924ZM407.504 287.444V286.555H413.055V289.837H408.57V291.491C410.744 291.477 412.364 291.429 414.34 291.108L414.463 291.997C412.419 292.318 410.758 292.38 408.516 292.393H407.531V288.989H411.988V287.444H407.504ZM409.021 297.944V293.255H410.102V294.704H415.857V293.255H416.924V297.944H409.021ZM410.102 297.069H415.857V295.565H410.102V297.069ZM429.01 285.954V298.108H427.943V285.954H429.01ZM419.781 294.977V287.157H420.834V294.048C422.693 294.034 424.607 293.89 426.645 293.46L426.795 294.376C424.635 294.827 422.714 294.977 420.766 294.977H419.781ZM440.494 285.954V290.766H442.531V291.669H440.494V298.135H439.428V285.954H440.494ZM431.621 295.087V287.143H437.295V288.032H432.688V294.184C434.889 294.177 436.44 294.082 438.252 293.747L438.389 294.676C436.481 295.018 434.889 295.087 432.578 295.087H431.621ZM444.473 297.083C443.994 297.076 443.584 296.679 443.598 296.194C443.584 295.716 443.994 295.319 444.473 295.319C444.958 295.319 445.354 295.716 445.348 296.194C445.354 296.679 444.958 297.076 444.473 297.083Z" fill="#767676"/>
<path d="M618.25 380.673V382.173H607.797V380.673H612.133V377.696H613.961V380.673H618.25ZM608.547 388.313C608.547 385.548 610.434 383.591 613.023 383.579C615.648 383.591 617.523 385.548 617.547 388.313C617.523 391.114 615.648 393.083 613.023 393.094C610.434 393.083 608.547 391.114 608.547 388.313ZM610.188 388.313C610.188 390.165 611.371 391.489 613.023 391.477C614.688 391.489 615.906 390.165 615.906 388.313C615.906 386.485 614.688 385.149 613.023 385.126C611.371 385.149 610.188 386.485 610.188 388.313ZM619.328 396.868V377.579H621.062V385.852H623.828V377.063H625.586V397.899H623.828V387.376H621.062V396.868H619.328ZM639.18 379.243C639.156 385.255 637.023 390.762 629.664 394.454L628.609 393.048C632.441 391.126 634.809 388.723 636.109 385.911L629.008 386.579L628.68 384.985L636.672 384.458C637.059 383.286 637.27 382.055 637.363 380.766H629.734V379.243H639.18ZM639.109 386.977V385.454H644.008V377.063H645.836V397.899H644.008V386.977H639.109ZM668.312 388.876V390.399H649.305V388.876H657.883V386.649H651.836V377.86H665.945V379.337H653.688V381.516H665.383V382.946H653.688V385.196H666.062V386.649H659.711V388.876H668.312ZM651.789 397.454V391.829H653.617V395.907H666.32V397.454H651.789ZM683.594 381.54C683.605 384.352 685.82 386.883 688.938 387.868L688 389.344C685.574 388.512 683.652 386.801 682.703 384.61C681.801 386.977 679.844 388.852 677.359 389.766L676.398 388.29C679.527 387.2 681.73 384.493 681.742 381.54V380.321H676.867V378.821H688.398V380.321H683.594V381.54ZM679.844 397.454V390.915H681.672V395.907H693.953V397.454H679.844ZM691.469 392.368V377.087H693.297V392.368H691.469ZM714.531 377.063V390.258H712.773V384.282H709.984V389.508H708.25V377.485H709.984V382.758H712.773V377.063H714.531ZM696.719 381.048V379.571H701.172V377.227H703V379.571H707.406V381.048H696.719ZM697.633 385.735C697.621 383.555 699.461 382.161 702.086 382.173C704.723 382.161 706.551 383.555 706.562 385.735C706.551 387.88 704.723 389.274 702.086 389.274C699.461 389.274 697.621 387.88 697.633 385.735ZM699.273 385.735C699.273 387.012 700.422 387.891 702.086 387.891C703.75 387.891 704.898 387.012 704.898 385.735C704.898 384.411 703.75 383.532 702.086 383.532C700.422 383.532 699.273 384.411 699.273 385.735ZM700.656 394.266C700.633 391.923 703.246 390.61 707.641 390.61C712.023 390.61 714.637 391.923 714.648 394.266C714.637 396.551 712.023 397.852 707.641 397.852C703.246 397.852 700.633 396.551 700.656 394.266ZM702.484 394.266C702.461 395.614 704.395 396.434 707.641 396.423C710.875 396.434 712.797 395.614 712.82 394.266C712.797 392.837 710.875 392.04 707.641 392.063C704.395 392.04 702.461 392.837 702.484 394.266Z" fill="white"/>
<path d="M86.625 396.001H84.4219L90.6328 379.032H92.8594L99.0703 396.001H96.8438L95.1445 391.219H88.3242L86.625 396.001ZM88.9688 389.368H94.5L91.8047 381.774H91.6641L88.9688 389.368ZM101.367 379.032H103.898L109.617 393.001H109.828L115.547 379.032H118.078V396.001H116.086V383.18H115.922L110.648 396.001H108.773L103.5 383.18H103.359V396.001H101.367V379.032ZM133.57 379.032V396.001H131.438V381.235H131.344L127.219 383.977V381.844L131.438 379.032H133.57ZM144.094 379.032V396.001H141.961V381.235H141.867L137.742 383.977V381.844L141.961 379.032H144.094ZM150.07 393.751C149.25 393.739 148.547 393.059 148.57 392.227C148.547 391.407 149.25 390.727 150.07 390.727C150.902 390.727 151.582 391.407 151.57 392.227C151.582 393.059 150.902 393.739 150.07 393.751ZM148.57 382.805C148.547 381.985 149.25 381.305 150.07 381.305C150.902 381.305 151.582 381.985 151.57 382.805C151.582 383.637 150.902 384.317 150.07 384.329C149.25 384.317 148.547 383.637 148.57 382.805ZM160.266 396.235C156.504 396.235 154.324 393.071 154.336 387.516C154.324 382.008 156.527 378.798 160.266 378.798C163.992 378.798 166.195 382.008 166.195 387.516C166.195 393.071 164.027 396.235 160.266 396.235ZM156.375 387.516C156.387 391.911 157.805 394.36 160.266 394.36C162.715 394.36 164.145 391.911 164.133 387.516C164.145 383.122 162.703 380.637 160.266 380.626C157.828 380.637 156.387 383.122 156.375 387.516ZM174.562 396.235C170.801 396.235 168.621 393.071 168.633 387.516C168.621 382.008 170.824 378.798 174.562 378.798C178.289 378.798 180.492 382.008 180.492 387.516C180.492 393.071 178.324 396.235 174.562 396.235ZM170.672 387.516C170.684 391.911 172.102 394.36 174.562 394.36C177.012 394.36 178.441 391.911 178.43 387.516C178.441 383.122 177 380.637 174.562 380.626C172.125 380.637 170.684 383.122 170.672 387.516ZM196.641 386.602V388.454H189.211V386.602H196.641ZM206.766 396.001H204.562L210.773 379.032H213L219.211 396.001H216.984L215.285 391.219H208.465L206.766 396.001ZM209.109 389.368H214.641L211.945 381.774H211.805L209.109 389.368ZM221.508 379.032H224.039L229.758 393.001H229.969L235.688 379.032H238.219V396.001H236.227V383.18H236.062L230.789 396.001H228.914L223.641 383.18H223.5V396.001H221.508V379.032ZM253.711 379.032V396.001H251.578V381.235H251.484L247.359 383.977V381.844L251.578 379.032H253.711ZM263.789 396.235C260.027 396.235 257.848 393.071 257.859 387.516C257.848 382.008 260.051 378.798 263.789 378.798C267.516 378.798 269.719 382.008 269.719 387.516C269.719 393.071 267.551 396.235 263.789 396.235ZM259.898 387.516C259.91 391.911 261.328 394.36 263.789 394.36C266.238 394.36 267.668 391.911 267.656 387.516C267.668 383.122 266.227 380.637 263.789 380.626C261.352 380.637 259.91 383.122 259.898 387.516ZM273.984 393.751C273.164 393.739 272.461 393.059 272.484 392.227C272.461 391.407 273.164 390.727 273.984 390.727C274.816 390.727 275.496 391.407 275.484 392.227C275.496 393.059 274.816 393.739 273.984 393.751ZM272.484 382.805C272.461 381.985 273.164 381.305 273.984 381.305C274.816 381.305 275.496 381.985 275.484 382.805C275.496 383.637 274.816 384.317 273.984 384.329C273.164 384.317 272.461 383.637 272.484 382.805ZM284.18 396.235C280.418 396.235 278.238 393.071 278.25 387.516C278.238 382.008 280.441 378.798 284.18 378.798C287.906 378.798 290.109 382.008 290.109 387.516C290.109 393.071 287.941 396.235 284.18 396.235ZM280.289 387.516C280.301 391.911 281.719 394.36 284.18 394.36C286.629 394.36 288.059 391.911 288.047 387.516C288.059 383.122 286.617 380.637 284.18 380.626C281.742 380.637 280.301 383.122 280.289 387.516ZM298.477 396.235C294.715 396.235 292.535 393.071 292.547 387.516C292.535 382.008 294.738 378.798 298.477 378.798C302.203 378.798 304.406 382.008 304.406 387.516C304.406 393.071 302.238 396.235 298.477 396.235ZM294.586 387.516C294.598 391.911 296.016 394.36 298.477 394.36C300.926 394.36 302.355 391.911 302.344 387.516C302.355 383.122 300.914 380.637 298.477 380.626C296.039 380.637 294.598 383.122 294.586 387.516Z" fill="white"/>
<path d="M483.633 676.064V696.9H481.828V686.001H478.945V695.869H477.188V676.626H478.945V684.478H481.828V676.064H483.633ZM465.867 691.134C470.707 688.427 472.699 684.619 473.016 680.306H466.664V678.783H474.82C474.797 684.079 472.934 689.083 466.945 692.423L465.867 691.134ZM489.281 676.954V679.954H495.352V676.954H497.18V686.025H487.477V676.954H489.281ZM489.281 684.525H495.352V681.384H489.281V684.525ZM489.586 689.306V687.829H502.875V692.869H491.438V695.165H503.648V696.665H489.633V691.462H501.047V689.306H489.586ZM501.047 686.845V676.064H502.875V680.587H506.016V682.134H502.875V686.845H501.047ZM524.227 677.423V685.908H514.453V677.423H524.227ZM515.953 695.4C519.539 695.001 522.984 692.974 522.984 690.9H516.82V689.47H523.008V687.431H524.836V689.47H531.07V690.9H524.883C524.871 692.927 528.223 694.954 531.797 695.4L531.164 696.829C528.035 696.396 525.176 694.919 523.934 692.997C522.68 694.966 519.75 696.396 516.609 696.829L515.953 695.4ZM516.258 684.454H522.422V678.923H516.258V684.454ZM528.727 688.04V676.064H530.531V688.04H528.727ZM542.812 676.954V679.954H548.883V676.954H550.711V686.025H541.008V676.954H542.812ZM542.812 684.525H548.883V681.384H542.812V684.525ZM543.117 689.306V687.829H556.406V692.869H544.969V695.165H557.18V696.665H543.164V691.462H554.578V689.306H543.117ZM554.578 686.845V676.064H556.406V680.587H559.547V682.134H556.406V686.845H554.578ZM579.938 692.822V694.345H560.859V692.822H566.18V687.853H562.594V686.329H565.852V679.533H562.547V678.009H578.109V679.533H574.805V686.329H578.062V687.853H574.477V692.822H579.938ZM567.68 686.329H573V679.533H567.68V686.329ZM568.031 692.822H572.648V687.853H568.031V692.822ZM588.656 682.462C588.633 685.802 591.047 689.482 594.07 690.923L593.016 692.376C590.672 691.228 588.691 688.767 587.754 685.943C586.793 689.001 584.707 691.697 582.375 692.892L581.25 691.439C584.25 689.974 586.828 686.013 586.852 682.462V679.744H582V678.22H593.344V679.744H588.656V682.462ZM595.898 696.9V676.064H597.727V684.501H601.219V686.072H597.727V696.9H595.898ZM621.422 692.775V694.322H602.344V692.775H607.711V688.814H604.734V682.392H617.203V679.134H604.688V677.611H619.008V683.915H606.562V687.29H619.5V688.814H616.242V692.775H621.422ZM609.516 692.775H614.438V688.814H609.516V692.775ZM646.922 676.064V696.9H645.164V676.064H646.922ZM628.852 691.345C631.758 689.611 633.457 685.802 633.445 682.017V680.048H629.438V678.525H639.047V680.048H635.227V682.017C635.227 685.615 636.855 689.212 639.727 690.876L638.602 692.236C636.551 691.005 635.098 688.755 634.371 686.107C633.621 688.978 632.109 691.427 630.023 692.728L628.852 691.345ZM637.453 685.087V683.587H640.969V676.579H642.703V695.822H640.969V685.087H637.453ZM668.836 685.345V686.775H660.234V688.72H666.398V693.22H654.023V695.259H667.031V696.665H652.195V691.908H664.594V690.103H652.148V688.72H658.43V686.775H649.875V685.345H668.836ZM650.883 682.978C654.703 682.732 657.961 681.431 658.301 679.345H651.82V677.892H658.43V675.947H660.234V677.892H666.914V679.345H660.375C660.703 681.431 663.961 682.732 667.805 682.978L667.242 684.384C663.762 684.091 660.621 683.013 659.344 681.033C658.055 683.013 654.914 684.091 651.422 684.384L650.883 682.978ZM687.094 678.173V691.603H677.484V678.173H687.094ZM679.266 690.103H685.266V679.65H679.266V690.103ZM690.914 696.9V676.064H692.742V684.384H696.234V685.978H692.742V696.9H690.914ZM713.648 676.064V681.173H716.789V682.697H713.648V687.9H711.82V676.064H713.648ZM697.336 686.634C702.457 685.251 705.586 682.474 705.973 678.947H698.273V677.423H707.953C707.93 682.673 704.262 686.435 698.086 688.111L697.336 686.634ZM700.453 696.619V688.861H713.648V696.619H700.453ZM702.281 695.119H711.82V690.384H702.281V695.119Z" fill="white"/>
<path d="M85.1406 695.001H82.9375L89.1484 678.033H91.375L97.5859 695.001H95.3594L93.6602 690.22H86.8398L85.1406 695.001ZM87.4844 688.369H93.0156L90.3203 680.775H90.1797L87.4844 688.369ZM99.8828 678.033H102.414L108.133 692.001H108.344L114.062 678.033H116.594V695.001H114.602V682.181H114.438L109.164 695.001H107.289L102.016 682.181H101.875V695.001H99.8828V678.033ZM132.086 678.033V695.001H129.953V680.236H129.859L125.734 682.978V680.845L129.953 678.033H132.086ZM142.164 695.236C138.402 695.236 136.223 692.072 136.234 686.517C136.223 681.009 138.426 677.798 142.164 677.798C145.891 677.798 148.094 681.009 148.094 686.517C148.094 692.072 145.926 695.236 142.164 695.236ZM138.273 686.517C138.285 690.911 139.703 693.361 142.164 693.361C144.613 693.361 146.043 690.911 146.031 686.517C146.043 682.122 144.602 679.638 142.164 679.626C139.727 679.638 138.285 682.122 138.273 686.517ZM152.359 692.751C151.539 692.74 150.836 692.06 150.859 691.228C150.836 690.408 151.539 689.728 152.359 689.728C153.191 689.728 153.871 690.408 153.859 691.228C153.871 692.06 153.191 692.74 152.359 692.751ZM150.859 681.806C150.836 680.986 151.539 680.306 152.359 680.306C153.191 680.306 153.871 680.986 153.859 681.806C153.871 682.638 153.191 683.318 152.359 683.329C151.539 683.318 150.836 682.638 150.859 681.806ZM162.555 695.236C158.793 695.236 156.613 692.072 156.625 686.517C156.613 681.009 158.816 677.798 162.555 677.798C166.281 677.798 168.484 681.009 168.484 686.517C168.484 692.072 166.316 695.236 162.555 695.236ZM158.664 686.517C158.676 690.911 160.094 693.361 162.555 693.361C165.004 693.361 166.434 690.911 166.422 686.517C166.434 682.122 164.992 679.638 162.555 679.626C160.117 679.638 158.676 682.122 158.664 686.517ZM176.852 695.236C173.09 695.236 170.91 692.072 170.922 686.517C170.91 681.009 173.113 677.798 176.852 677.798C180.578 677.798 182.781 681.009 182.781 686.517C182.781 692.072 180.613 695.236 176.852 695.236ZM172.961 686.517C172.973 690.911 174.391 693.361 176.852 693.361C179.301 693.361 180.73 690.911 180.719 686.517C180.73 682.122 179.289 679.638 176.852 679.626C174.414 679.638 172.973 682.122 172.961 686.517Z" fill="white"/>
<path d="M83.875 894.001V877.033H89.6406C93.6133 877.033 95.4297 879.4 95.4297 882.423C95.4297 885.435 93.6133 887.837 89.6641 887.837H85.9844V894.001H83.875ZM85.9844 885.962H89.5703C92.2773 885.962 93.332 884.439 93.3438 882.423C93.332 880.396 92.2773 878.908 89.5469 878.908H85.9844V885.962ZM98.3828 877.033H100.914L106.633 891.001H106.844L112.562 877.033H115.094V894.001H113.102V881.181H112.938L107.664 894.001H105.789L100.516 881.181H100.375V894.001H98.3828V877.033ZM130.586 877.033V894.001H128.453V879.236H128.359L124.234 881.978V879.845L128.453 877.033H130.586ZM136.562 891.751C135.742 891.74 135.039 891.06 135.062 890.228C135.039 889.408 135.742 888.728 136.562 888.728C137.395 888.728 138.074 889.408 138.062 890.228C138.074 891.06 137.395 891.74 136.562 891.751ZM135.062 880.806C135.039 879.986 135.742 879.306 136.562 879.306C137.395 879.306 138.074 879.986 138.062 880.806C138.074 881.638 137.395 882.318 136.562 882.329C135.742 882.318 135.039 881.638 135.062 880.806ZM146.758 894.236C142.996 894.236 140.816 891.072 140.828 885.517C140.816 880.009 143.02 876.798 146.758 876.798C150.484 876.798 152.688 880.009 152.688 885.517C152.688 891.072 150.52 894.236 146.758 894.236ZM142.867 885.517C142.879 889.911 144.297 892.361 146.758 892.361C149.207 892.361 150.637 889.911 150.625 885.517C150.637 881.122 149.195 878.638 146.758 878.626C144.32 878.638 142.879 881.122 142.867 885.517ZM161.055 894.236C157.293 894.236 155.113 891.072 155.125 885.517C155.113 880.009 157.316 876.798 161.055 876.798C164.781 876.798 166.984 880.009 166.984 885.517C166.984 891.072 164.816 894.236 161.055 894.236ZM157.164 885.517C157.176 889.911 158.594 892.361 161.055 892.361C163.504 892.361 164.934 889.911 164.922 885.517C164.934 881.122 163.492 878.638 161.055 878.626C158.617 878.638 157.176 881.122 157.164 885.517ZM183.133 884.603V886.454H175.703V884.603H183.133ZM192.508 894.001V877.033H198.273C202.246 877.033 204.062 879.4 204.062 882.423C204.062 885.435 202.246 887.837 198.297 887.837H194.617V894.001H192.508ZM194.617 885.962H198.203C200.91 885.962 201.965 884.439 201.977 882.423C201.965 880.396 200.91 878.908 198.18 878.908H194.617V885.962ZM207.016 877.033H209.547L215.266 891.001H215.477L221.195 877.033H223.727V894.001H221.734V881.181H221.57L216.297 894.001H214.422L209.148 881.181H209.008V894.001H207.016V877.033ZM233.219 894.001L233.195 892.454L238.984 886.361C240.988 884.228 241.949 883.079 241.961 881.509C241.949 879.763 240.496 878.638 238.586 878.626C236.559 878.638 235.293 879.915 235.281 881.814H233.289C233.266 878.814 235.586 876.798 238.656 876.798C241.738 876.798 243.918 878.872 243.93 881.509C243.918 883.408 243.039 884.884 240.039 887.978L236.148 891.986V892.126H244.234V894.001H233.219ZM248.758 891.751C247.938 891.74 247.234 891.06 247.258 890.228C247.234 889.408 247.938 888.728 248.758 888.728C249.59 888.728 250.27 889.408 250.258 890.228C250.27 891.06 249.59 891.74 248.758 891.751ZM247.258 880.806C247.234 879.986 247.938 879.306 248.758 879.306C249.59 879.306 250.27 879.986 250.258 880.806C250.27 881.638 249.59 882.318 248.758 882.329C247.938 882.318 247.234 881.638 247.258 880.806ZM258.953 894.236C255.191 894.236 253.012 891.072 253.023 885.517C253.012 880.009 255.215 876.798 258.953 876.798C262.68 876.798 264.883 880.009 264.883 885.517C264.883 891.072 262.715 894.236 258.953 894.236ZM255.062 885.517C255.074 889.911 256.492 892.361 258.953 892.361C261.402 892.361 262.832 889.911 262.82 885.517C262.832 881.122 261.391 878.638 258.953 878.626C256.516 878.638 255.074 881.122 255.062 885.517ZM273.25 894.236C269.488 894.236 267.309 891.072 267.32 885.517C267.309 880.009 269.512 876.798 273.25 876.798C276.977 876.798 279.18 880.009 279.18 885.517C279.18 891.072 277.012 894.236 273.25 894.236ZM269.359 885.517C269.371 889.911 270.789 892.361 273.25 892.361C275.699 892.361 277.129 889.911 277.117 885.517C277.129 881.122 275.688 878.638 273.25 878.626C270.812 878.638 269.371 881.122 269.359 885.517Z" fill="white"/>
<path d="M574.25 880.665C574.238 884.474 576.828 888.294 579.898 889.689L578.773 891.142C576.395 889.994 574.344 887.521 573.348 884.556C572.387 887.697 570.336 890.333 567.898 891.564L566.727 890.017C569.832 888.599 572.398 884.615 572.422 880.665V876.869H574.25V880.665ZM582.172 895.947V875.064H584.023V895.947H582.172ZM594.547 878.439C594.547 881.275 596.703 883.876 599.727 884.908L598.719 886.361C596.422 885.517 594.605 883.794 593.691 881.615C592.801 884.087 590.938 885.997 588.5 886.947L587.516 885.47C590.633 884.31 592.73 881.521 592.742 878.298V876.142H594.547V878.439ZM590.281 892.056C590.293 889.677 592.906 888.283 597.195 888.283C601.473 888.283 604.062 889.677 604.062 892.056C604.062 894.482 601.473 895.853 597.195 895.853C592.906 895.853 590.293 894.482 590.281 892.056ZM592.133 892.056C592.109 893.533 594.055 894.388 597.195 894.4C600.348 894.388 602.27 893.533 602.281 892.056C602.27 890.638 600.348 889.759 597.195 889.759C594.055 889.759 592.109 890.638 592.133 892.056ZM602.047 887.744V875.064H603.875V880.501H607.016V882.048H603.875V887.744H602.047ZM615.711 878.087C615.688 881.122 617.891 883.829 620.984 884.908L620.047 886.361C617.633 885.47 615.723 883.677 614.785 881.369C613.871 883.841 611.949 885.786 609.5 886.736L608.539 885.283C611.656 884.122 613.836 881.24 613.836 878.087V876.095H615.711V878.087ZM611.516 890.181V888.658H625.531V895.9H623.703V890.181H611.516ZM623.703 887.626V875.064H625.531V887.626H623.703ZM645.969 876.423V884.908H636.195V876.423H645.969ZM637.695 894.4C641.281 894.001 644.727 891.974 644.727 889.9H638.562V888.47H644.75V886.431H646.578V888.47H652.812V889.9H646.625C646.613 891.927 649.965 893.954 653.539 894.4L652.906 895.829C649.777 895.396 646.918 893.919 645.676 891.997C644.422 893.966 641.492 895.396 638.352 895.829L637.695 894.4ZM638 883.454H644.164V877.923H638V883.454ZM650.469 887.04V875.064H652.273V887.04H650.469ZM679.789 875.064V895.9H678.008V875.064H679.789ZM661.625 889.22C662.281 889.22 663.02 889.22 663.828 889.208V879.259H662.07V877.712H671.656V879.259H669.898V888.974C670.672 888.927 671.422 888.857 672.102 888.775L672.242 890.158C668.973 890.708 664.613 890.79 661.859 890.814L661.625 889.22ZM665.516 889.173C666.395 889.161 667.309 889.126 668.211 889.079V879.259H665.516V889.173ZM671.164 886.947V885.423H674V882.54H671.164V881.017H674V875.579H675.734V894.798H674V886.947H671.164ZM699.688 875.064V895.9H697.859V875.064H699.688ZM682.719 890.345C684.5 890.333 686.539 890.322 688.648 890.251V887.978C686.141 887.72 684.523 886.29 684.547 884.204C684.523 881.849 686.527 880.326 689.539 880.337C692.551 880.326 694.59 881.849 694.578 884.204C694.59 886.267 692.973 887.697 690.5 887.978V890.181C692.516 890.087 694.555 889.947 696.477 889.689L696.617 891.095C691.965 891.845 686.867 891.915 683 891.915L682.719 890.345ZM683.164 879.142V877.642H688.648V875.087H690.5V877.642H695.938V879.142H683.164ZM686.258 884.204C686.246 885.646 687.605 886.595 689.539 886.572C691.484 886.595 692.832 885.646 692.82 884.204C692.832 882.751 691.484 881.767 689.539 881.767C687.605 881.767 686.246 882.751 686.258 884.204ZM710.727 878.087C710.703 881.122 712.906 883.829 716 884.908L715.062 886.361C712.648 885.47 710.738 883.677 709.801 881.369C708.887 883.841 706.965 885.786 704.516 886.736L703.555 885.283C706.672 884.122 708.852 881.24 708.852 878.087V876.095H710.727V878.087ZM706.531 890.181V888.658H720.547V895.9H718.719V890.181H706.531ZM718.719 887.626V875.064H720.547V887.626H718.719Z" fill="white"/>
<path d="M558.539 775.954V778.954H564.609V775.954H566.438V785.025H556.734V775.954H558.539ZM558.539 783.525H564.609V780.384H558.539V783.525ZM558.844 788.306V786.829H572.133V791.869H560.695V794.165H572.906V795.665H558.891V790.462H570.305V788.306H558.844ZM570.305 785.845V775.064H572.133V779.587H575.273V781.134H572.133V785.845H570.305ZM595.664 791.822V793.345H576.586V791.822H581.906V786.853H578.32V785.329H581.578V778.533H578.273V777.009H593.836V778.533H590.531V785.329H593.789V786.853H590.203V791.822H595.664ZM583.406 785.329H588.727V778.533H583.406V785.329ZM583.758 791.822H588.375V786.853H583.758V791.822ZM610.852 779.54C610.863 782.353 613.078 784.884 616.195 785.869L615.258 787.345C612.832 786.513 610.91 784.802 609.961 782.611C609.059 784.978 607.102 786.853 604.617 787.767L603.656 786.29C606.785 785.201 608.988 782.494 609 779.54V778.322H604.125V776.822H615.656V778.322H610.852V779.54ZM607.102 795.454V788.915H608.93V793.908H621.211V795.454H607.102ZM618.727 790.369V775.087H620.555V790.369H618.727ZM641.789 775.064V788.259H640.031V782.283H637.242V787.509H635.508V775.486H637.242V780.759H640.031V775.064H641.789ZM623.977 779.048V777.572H628.43V775.228H630.258V777.572H634.664V779.048H623.977ZM624.891 783.736C624.879 781.556 626.719 780.161 629.344 780.173C631.98 780.161 633.809 781.556 633.82 783.736C633.809 785.88 631.98 787.275 629.344 787.275C626.719 787.275 624.879 785.88 624.891 783.736ZM626.531 783.736C626.531 785.013 627.68 785.892 629.344 785.892C631.008 785.892 632.156 785.013 632.156 783.736C632.156 782.411 631.008 781.533 629.344 781.533C627.68 781.533 626.531 782.411 626.531 783.736ZM627.914 792.267C627.891 789.923 630.504 788.611 634.898 788.611C639.281 788.611 641.895 789.923 641.906 792.267C641.895 794.552 639.281 795.853 634.898 795.853C630.504 795.853 627.891 794.552 627.914 792.267ZM629.742 792.267C629.719 793.615 631.652 794.435 634.898 794.423C638.133 794.435 640.055 793.615 640.078 792.267C640.055 790.837 638.133 790.04 634.898 790.064C631.652 790.04 629.719 790.837 629.742 792.267ZM661.734 776.423V784.908H651.961V776.423H661.734ZM653.461 794.4C657.047 794.001 660.492 791.974 660.492 789.9H654.328V788.47H660.516V786.431H662.344V788.47H668.578V789.9H662.391C662.379 791.927 665.73 793.954 669.305 794.4L668.672 795.829C665.543 795.396 662.684 793.919 661.441 791.997C660.188 793.966 657.258 795.396 654.117 795.829L653.461 794.4ZM653.766 783.454H659.93V777.923H653.766V783.454ZM666.234 787.04V775.064H668.039V787.04H666.234ZM694.828 775.087V786.923H693V775.087H694.828ZM677.789 784.931C680.941 783.829 683.133 781.005 683.133 777.947V775.908H685.008V777.947C684.984 780.888 687.234 783.49 690.305 784.579L689.367 785.986C686.953 785.154 685.02 783.396 684.082 781.122C683.156 783.536 681.211 785.458 678.727 786.384L677.789 784.931ZM681.281 795.619V788.119H694.828V795.619H681.281ZM683.086 794.119H693.023V789.619H683.086V794.119ZM705.352 780.665C705.352 784.333 707.777 788.119 710.742 789.572L709.617 791.048C707.32 789.853 705.398 787.38 704.473 784.486C703.547 787.556 701.578 790.193 699.234 791.447L698.062 789.97C701.109 788.47 703.523 784.474 703.547 780.665V776.869H705.352V780.665ZM712.664 795.9V775.064H714.492V783.525H717.984V785.119H714.492V795.9H712.664Z" fill="white"/>
<path d="M84.625 794.001H82.4219L88.6328 777.033H90.8594L97.0703 794.001H94.8438L93.1445 789.22H86.3242L84.625 794.001ZM86.9688 787.369H92.5L89.8047 779.775H89.6641L86.9688 787.369ZM99.3672 777.033H101.898L107.617 791.001H107.828L113.547 777.033H116.078V794.001H114.086V781.181H113.922L108.648 794.001H106.773L101.5 781.181H101.359V794.001H99.3672V777.033ZM131.57 777.033V794.001H129.438V779.236H129.344L125.219 781.978V779.845L129.438 777.033H131.57ZM141.648 794.236C137.887 794.236 135.707 791.072 135.719 785.517C135.707 780.009 137.91 776.798 141.648 776.798C145.375 776.798 147.578 780.009 147.578 785.517C147.578 791.072 145.41 794.236 141.648 794.236ZM137.758 785.517C137.77 789.911 139.188 792.361 141.648 792.361C144.098 792.361 145.527 789.911 145.516 785.517C145.527 781.122 144.086 778.638 141.648 778.626C139.211 778.638 137.77 781.122 137.758 785.517ZM151.844 791.751C151.023 791.74 150.32 791.06 150.344 790.228C150.32 789.408 151.023 788.728 151.844 788.728C152.676 788.728 153.355 789.408 153.344 790.228C153.355 791.06 152.676 791.74 151.844 791.751ZM150.344 780.806C150.32 779.986 151.023 779.306 151.844 779.306C152.676 779.306 153.355 779.986 153.344 780.806C153.355 781.638 152.676 782.318 151.844 782.329C151.023 782.318 150.32 781.638 150.344 780.806ZM162.344 794.236C158.969 794.236 156.543 792.431 156.438 789.736H158.57C158.688 791.353 160.293 792.361 162.32 792.361C164.559 792.361 166.176 791.154 166.188 789.384C166.176 787.533 164.699 786.232 162.062 786.22H160.68V784.369H162.062C164.125 784.369 165.566 783.208 165.555 781.462C165.566 779.763 164.324 778.638 162.391 778.626C160.574 778.638 158.922 779.634 158.828 781.298H156.789C156.895 778.603 159.402 776.798 162.414 776.798C165.648 776.798 167.617 778.919 167.594 781.345C167.617 783.279 166.492 784.685 164.711 785.189V785.306C166.926 785.646 168.262 787.228 168.25 789.384C168.262 792.173 165.73 794.236 162.344 794.236ZM176.852 794.236C173.09 794.236 170.91 791.072 170.922 785.517C170.91 780.009 173.113 776.798 176.852 776.798C180.578 776.798 182.781 780.009 182.781 785.517C182.781 791.072 180.613 794.236 176.852 794.236ZM172.961 785.517C172.973 789.911 174.391 792.361 176.852 792.361C179.301 792.361 180.73 789.911 180.719 785.517C180.73 781.122 179.289 778.638 176.852 778.626C174.414 778.638 172.973 781.122 172.961 785.517ZM198.93 784.603V786.454H191.5V784.603H198.93ZM209.055 794.001H206.852L213.062 777.033H215.289L221.5 794.001H219.273L217.574 789.22H210.754L209.055 794.001ZM211.398 787.369H216.93L214.234 779.775H214.094L211.398 787.369ZM223.797 777.033H226.328L232.047 791.001H232.258L237.977 777.033H240.508V794.001H238.516V781.181H238.352L233.078 794.001H231.203L225.93 781.181H225.789V794.001H223.797V777.033ZM256 777.033V794.001H253.867V779.236H253.773L249.648 781.978V779.845L253.867 777.033H256ZM260.523 794.001L260.5 792.454L266.289 786.361C268.293 784.228 269.254 783.079 269.266 781.509C269.254 779.763 267.801 778.638 265.891 778.626C263.863 778.638 262.598 779.915 262.586 781.814H260.594C260.57 778.814 262.891 776.798 265.961 776.798C269.043 776.798 271.223 778.872 271.234 781.509C271.223 783.408 270.344 784.884 267.344 787.978L263.453 791.986V792.126H271.539V794.001H260.523ZM276.062 791.751C275.242 791.74 274.539 791.06 274.562 790.228C274.539 789.408 275.242 788.728 276.062 788.728C276.895 788.728 277.574 789.408 277.562 790.228C277.574 791.06 276.895 791.74 276.062 791.751ZM274.562 780.806C274.539 779.986 275.242 779.306 276.062 779.306C276.895 779.306 277.574 779.986 277.562 780.806C277.574 781.638 276.895 782.318 276.062 782.329C275.242 782.318 274.539 781.638 274.562 780.806ZM286.562 794.236C283.188 794.236 280.762 792.431 280.656 789.736H282.789C282.906 791.353 284.512 792.361 286.539 792.361C288.777 792.361 290.395 791.154 290.406 789.384C290.395 787.533 288.918 786.232 286.281 786.22H284.898V784.369H286.281C288.344 784.369 289.785 783.208 289.773 781.462C289.785 779.763 288.543 778.638 286.609 778.626C284.793 778.638 283.141 779.634 283.047 781.298H281.008C281.113 778.603 283.621 776.798 286.633 776.798C289.867 776.798 291.836 778.919 291.812 781.345C291.836 783.279 290.711 784.685 288.93 785.189V785.306C291.145 785.646 292.48 787.228 292.469 789.384C292.48 792.173 289.949 794.236 286.562 794.236ZM301.07 794.236C297.309 794.236 295.129 791.072 295.141 785.517C295.129 780.009 297.332 776.798 301.07 776.798C304.797 776.798 307 780.009 307 785.517C307 791.072 304.832 794.236 301.07 794.236ZM297.18 785.517C297.191 789.911 298.609 792.361 301.07 792.361C303.52 792.361 304.949 789.911 304.938 785.517C304.949 781.122 303.508 778.638 301.07 778.626C298.633 778.638 297.191 781.122 297.18 785.517Z" fill="white"/>
</svg>
