<svg width="272" height="58" viewBox="0 0 272 58" fill="none" xmlns="http://www.w3.org/2000/svg">
<path d="M0.078411 0H13.6246C23.2881 0 30.1666 1.61148 34.2602 4.83174C34.9983 5.2265 36.1745 6.28369 37.786 8.00062C42.8557 13.6516 45.3891 20.7924 45.3891 29.4285C45.3891 36.8748 43.291 43.2775 39.0919 48.6364C37.2966 50.6427 35.8446 52.0027 34.7361 52.7165C33.23 53.798 31.897 54.5767 30.7371 55.0526C27.8846 56.4775 22.2092 57.1913 13.7057 57.1913H0.078411C0.0243344 57.1913 0 57.1643 0 57.1129V22.577C0 22.5499 0.0270383 22.5364 0.078411 22.5364H10.772C10.8234 22.5364 10.8505 22.5499 10.8505 22.577V46.5383H16.0797C21.8631 46.5383 25.8486 45.7055 28.0414 44.0426C29.177 43.2504 30.245 42.1554 31.2508 40.7548C33.3355 37.6643 34.3792 33.7978 34.3792 29.15C34.3792 22.4958 32.3459 17.4938 28.2793 14.1383C25.1375 11.7103 20.714 10.4936 15.0116 10.4936H0.078411C0.0243344 10.4936 0 10.48 0 10.453V0.078411C0 0.0270383 0.0270383 0 0.078411 0Z" fill="#0057FF"/>
<path d="M84.5221 0.316193C84.6005 0.316193 85.2224 2.00608 86.3823 5.38587C93.6421 25.8484 97.3409 36.3176 97.4734 36.7935H86.3823C86.3039 36.661 85.6036 34.6818 84.2842 30.8532L79.2929 16.8717H79.2523C78.671 18.5616 73.8663 31.9483 64.8355 57.0344C64.8355 57.1398 64.795 57.1939 64.7166 57.1939H53.7444C53.6904 57.1939 53.666 57.1669 53.666 57.1155C55.4614 52.1242 60.7555 37.4316 69.5483 13.0323C72.4792 4.89918 74.0096 0.662282 74.1421 0.318896H84.5194L84.5221 0.316193ZM89.9487 46.6165H100.921C100.999 46.6165 101.224 47.2114 101.594 48.3983L104.722 57.1506L104.644 57.1912H93.634C93.5799 57.1642 93.1446 55.9907 92.328 53.6654L89.873 46.6544L89.9514 46.6138L89.9487 46.6165Z" fill="#0057FF"/>
<path d="M141.951 0C149.187 0 155.814 2.39018 161.835 7.16785C163.155 8.27642 164.436 9.53099 165.677 10.9316C165.623 11.037 163.209 13.3488 158.428 17.8615H158.388C153.451 12.6593 147.905 10.0582 141.754 10.0582C135.284 10.0582 130.109 12.7918 126.229 18.2562C124.274 21.3197 123.298 24.594 123.298 28.0792V28.912C123.298 34.0872 125.066 38.4701 128.605 42.0607C132.301 45.4946 136.752 47.2088 141.954 47.2088C146.813 47.2088 151.077 45.692 154.746 42.6529C155.671 41.9661 156.885 40.8981 158.391 39.4434H158.431C158.483 39.4434 160.821 41.8607 165.442 46.6924V46.733C163.409 48.6878 161.733 50.1668 160.413 51.1699C157.087 53.5466 154.286 55.0391 152.018 55.6448C148.954 56.6749 145.547 57.1887 141.8 57.1887C131.555 57.1887 123.595 53.2681 117.917 45.4243C114.591 40.6466 112.926 35.02 112.926 28.5524C112.926 19.9975 115.935 12.9865 121.957 7.52205C127.864 2.50915 134.532 0 141.951 0Z" fill="#0057FF"/>
<path d="M202.311 0.237915C211.447 0.237915 219.026 4.17198 225.044 12.0401C228.581 16.8989 230.352 22.5229 230.352 28.912C230.352 38.7864 226.115 46.7221 217.639 52.7165C216.054 53.7467 214.456 54.6038 212.847 55.2905C209.522 56.5586 206.009 57.1913 202.313 57.1913C192.041 57.1913 183.976 52.6895 178.114 43.6857C175.367 39.1189 173.996 34.1412 173.996 28.7552C173.996 21.5468 176.4 15.1712 181.204 9.6256C182.551 8.20069 183.741 7.08941 184.768 6.2999C190.076 2.26038 195.924 0.240619 202.313 0.240619L202.311 0.237915ZM184.409 28.5172V29.2311C184.409 35.6743 187.115 40.7034 192.528 44.3211C195.486 46.2489 198.758 47.2115 202.351 47.2115C208.475 47.2115 213.426 44.4536 217.203 38.9324C219.077 35.923 220.015 32.5432 220.015 28.793C220.015 22.7473 217.625 17.7966 212.847 13.9409C209.784 11.5372 206.22 10.3367 202.154 10.3367C195.975 10.3367 191.036 12.9892 187.339 18.2968C185.385 21.3873 184.409 24.7914 184.409 28.5145V28.5172Z" fill="#0057FF"/>
<path d="M255.266 0.47583C259.914 0.47583 264.124 2.32525 267.901 6.02138C269.088 7.18402 270.08 8.23852 270.873 9.19027C270.846 9.2173 268.312 11.448 263.27 15.8849L261.607 13.8246C259.441 11.502 257.275 10.3394 255.112 10.3394C253.106 10.3394 251.667 11.1181 250.794 12.6755C250.635 13.0189 250.556 13.3893 250.556 13.7841V13.9436C250.556 15.2387 251.308 16.5447 252.814 17.8641C255.691 20.5572 259.295 23.6855 263.626 27.2518C265.738 29.1256 267.258 30.6722 268.182 31.8862C270.61 34.8712 271.827 38.1969 271.827 41.866C271.827 47.49 269.386 51.8458 264.5 54.9363C261.858 56.4423 258.757 57.194 255.193 57.194C247.482 57.194 241.728 53.287 237.924 45.4702C243.548 42.0391 246.425 40.3086 246.557 40.2816C249.145 45.0349 252.116 47.4116 255.469 47.4116C258.084 47.4116 260.025 46.33 261.29 44.1643C261.58 43.5045 261.726 42.8962 261.726 42.3419C261.726 40.2816 260.339 38.105 257.567 35.8067C256.564 34.855 254.531 33.1408 251.467 30.6587C249.91 29.3392 247.955 27.4898 245.605 25.1131C242.172 21.4954 240.457 17.8912 240.457 14.3005V13.9436C240.457 9.45524 242.623 5.73207 246.952 2.77408C249.38 1.24372 252.154 0.47583 255.269 0.47583H255.266Z" fill="#0057FF"/>
</svg>
