<svg width="805" height="1050" viewBox="0 0 805 1050" fill="none" xmlns="http://www.w3.org/2000/svg">
<path d="M793 0.500061C799.351 0.500061 804.5 5.64879 804.5 12.0001L804.5 1038C804.5 1044.35 799.351 1049.5 793 1049.5L12 1049.5C5.6487 1049.5 0.500015 1044.35 0.500016 1038L0.500061 12.0001C0.500061 5.64877 5.64874 0.500026 12.0001 0.500026L793 0.500061Z" fill="black" stroke="#0057FF"/>
<path d="M101.297 122.063V156.001H94.2188V128.766H94.0312L86.25 133.641V127.407L94.6406 122.063H101.297ZM123.797 122.063V156.001H116.719V128.766H116.531L108.75 133.641V127.407L117.141 122.063H123.797ZM133.969 156.423C131.766 156.423 129.984 154.665 130.031 152.485C129.984 150.329 131.766 148.571 133.969 148.595C136.055 148.571 137.859 150.329 137.859 152.485C137.859 154.665 136.055 156.423 133.969 156.423ZM155.156 156.47C146.648 156.47 141.516 150.141 141.516 139.032C141.516 127.946 146.695 121.595 155.156 121.595C163.617 121.595 168.797 127.946 168.797 139.032C168.797 150.188 163.641 156.47 155.156 156.47ZM148.734 139.032C148.688 146.86 151.219 150.657 155.156 150.657C159.094 150.657 161.602 146.86 161.578 139.032C161.602 131.274 159.07 127.384 155.156 127.36C151.242 127.384 148.734 131.274 148.734 139.032ZM186.422 156.47C178.664 156.47 173.109 152.391 173.109 146.86C173.109 142.595 176.391 139.126 180.609 138.47V138.235C176.93 137.532 174.398 134.462 174.422 130.735C174.398 125.462 179.484 121.595 186.422 121.595C193.359 121.595 198.445 125.462 198.469 130.735C198.445 134.462 195.844 137.532 192.281 138.235V138.47C196.406 139.126 199.734 142.595 199.734 146.86C199.734 152.391 194.156 156.47 186.422 156.47ZM180.469 146.157C180.445 149.063 182.836 151.102 186.422 151.079C190.008 151.102 192.398 149.063 192.375 146.157C192.398 143.227 189.867 141.071 186.422 141.048C182.977 141.071 180.445 143.204 180.469 146.157ZM181.312 131.438C181.289 134.157 183.422 136.056 186.422 136.079C189.398 136.056 191.555 134.157 191.578 131.438C191.555 128.79 189.445 126.938 186.422 126.938C183.375 126.938 181.289 128.79 181.312 131.438ZM216.703 143.063C216.727 134.251 219.445 126.915 223.922 120.61H230.531C227.297 125.274 223.922 134.673 223.922 143.063C223.922 151.477 227.297 160.852 230.531 165.563H223.922C219.445 159.235 216.727 151.899 216.703 143.063ZM234.516 156.001V122.063H256.875V127.876H241.547V136.126H255.422V141.938H241.547V156.001H234.516ZM261.516 156.001V122.063H274.828C282.539 122.063 286.969 126.399 286.969 133.126C286.969 137.766 284.836 141.141 280.969 142.806L288.188 156.001H280.406L273.914 143.954H268.547V156.001H261.516ZM268.547 138.235H273.516C277.688 138.235 279.727 136.524 279.703 133.126C279.727 129.704 277.688 127.852 273.516 127.829H268.547V138.235ZM298.875 122.063V156.001H291.844V122.063H298.875ZM316.688 143.063C316.664 151.899 313.945 159.235 309.469 165.563H302.859C306.094 160.852 309.469 151.477 309.469 143.063C309.469 134.673 306.094 125.274 302.859 120.61H309.469C313.945 126.915 316.664 134.251 316.688 143.063Z" fill="#0057FF"/>
<path d="M91.2969 542.062V576H84.2188V548.766H84.0312L76.25 553.641V547.406L84.6406 542.062H91.2969ZM113.797 542.062V576H106.719V548.766H106.531L98.75 553.641V547.406L107.141 542.062H113.797ZM123.969 576.422C121.766 576.422 119.984 574.664 120.031 572.484C119.984 570.328 121.766 568.57 123.969 568.594C126.055 568.57 127.859 570.328 127.859 572.484C127.859 574.664 126.055 576.422 123.969 576.422ZM145.156 576.469C136.648 576.469 131.516 570.141 131.516 559.031C131.516 547.945 136.695 541.594 145.156 541.594C153.617 541.594 158.797 547.945 158.797 559.031C158.797 570.188 153.641 576.469 145.156 576.469ZM138.734 559.031C138.688 566.859 141.219 570.656 145.156 570.656C149.094 570.656 151.602 566.859 151.578 559.031C151.602 551.273 149.07 547.383 145.156 547.359C141.242 547.383 138.734 551.273 138.734 559.031ZM176.047 541.594C183.078 541.617 189.734 545.812 189.734 558.141C189.758 569.672 184.297 576.469 175.766 576.469C168.945 576.469 164.258 572.18 163.578 566.438H170.516C171.102 568.945 173.047 570.422 175.766 570.422C180.383 570.422 182.82 566.273 182.844 559.5H182.562C180.969 562.5 177.617 564.281 173.844 564.281C167.75 564.281 163.25 559.688 163.203 553.359C163.203 546.539 168.383 541.57 176.047 541.594ZM170.094 553.172C170.094 556.523 172.555 559.125 176.047 559.125C179.492 559.125 182.141 556.383 182.141 553.125C182.094 549.891 179.562 547.148 176.094 547.125C172.625 547.148 170.047 549.797 170.094 553.172ZM206.656 563.062C206.68 554.25 209.398 546.914 213.875 540.609H220.484C217.25 545.273 213.875 554.672 213.875 563.062C213.875 571.477 217.25 580.852 220.484 585.562H213.875C209.398 579.234 206.68 571.898 206.656 563.062ZM242.891 551.766C242.609 549.07 240.477 547.5 237.031 547.5C233.469 547.5 231.477 549.141 231.453 551.391C231.43 553.852 233.961 554.953 236.891 555.609L239.938 556.359C245.75 557.695 250.086 560.648 250.109 566.297C250.086 572.508 245.258 576.492 236.984 576.469C228.781 576.492 223.555 572.695 223.344 565.406H230.188C230.422 568.828 233.141 570.562 236.891 570.562C240.594 570.562 242.984 568.828 242.984 566.297C242.984 563.977 240.875 562.898 237.172 561.984L233.469 561.094C227.75 559.688 224.234 556.828 224.234 551.859C224.211 545.695 229.648 541.594 237.078 541.594C244.602 541.594 249.547 545.766 249.641 551.766H242.891ZM259.578 576H251.984L263.75 542.062H272.797L284.516 576H276.969L274.414 568.172H262.133L259.578 576ZM263.914 562.688H272.633L268.391 549.703H268.156L263.914 562.688ZM282.875 547.875V542.062H310.672V547.875H300.266V576H293.281V547.875H282.875ZM327.125 563.062C327.102 571.898 324.383 579.234 319.906 585.562H313.297C316.531 580.852 319.906 571.477 319.906 563.062C319.906 554.672 316.531 545.273 313.297 540.609H319.906C324.383 546.914 327.102 554.25 327.125 563.062Z" fill="#0057FF"/>
<mask id="path-4-inside-1_702_951" fill="white">
<path d="M82 196.001H723V338.001H82V196.001Z"/>
</mask>
<path d="M82 196.001H723V338.001H82V196.001Z" fill="black"/>
<path d="M82 196.501H723V195.501H82V196.501Z" fill="white" mask="url(#path-4-inside-1_702_951)"/>
<mask id="path-6-inside-2_702_951" fill="white">
<path d="M82 338.001H723V438.001H82V338.001Z"/>
</mask>
<path d="M82 338.001H723V438.001H82V338.001Z" fill="black"/>
<path d="M82 338.501H723V337.501H82V338.501ZM723 437.501H82V438.501H723V437.501Z" fill="white" mask="url(#path-6-inside-2_702_951)"/>
<mask id="path-8-inside-3_702_951" fill="white">
<path d="M82 616H723V716H82V616Z"/>
</mask>
<path d="M82 616H723V716H82V616Z" fill="black"/>
<path d="M82 616.5H723V615.5H82V616.5Z" fill="white" mask="url(#path-8-inside-3_702_951)"/>
<mask id="path-10-inside-4_702_951" fill="white">
<path d="M82 716H723V816H82V716Z"/>
</mask>
<path d="M82 716H723V816H82V716Z" fill="black"/>
<path d="M82 716.5H723V715.5H82V716.5Z" fill="white" mask="url(#path-10-inside-4_702_951)"/>
<mask id="path-12-inside-5_702_951" fill="white">
<path d="M82 816H723V916H82V816Z"/>
</mask>
<path d="M82 816H723V916H82V816Z" fill="black"/>
<path d="M82 816.5H723V815.5H82V816.5ZM723 915.5H82V916.5H723V915.5Z" fill="white" mask="url(#path-12-inside-5_702_951)"/>
<path d="M590.219 256.516C590.23 261.883 587.066 265.235 582.719 265.235C578.359 265.235 575.207 261.883 575.219 256.516C575.207 251.149 578.359 247.798 582.719 247.798C587.066 247.798 590.23 251.149 590.219 256.516ZM577.258 256.516C577.27 260.887 579.648 263.255 582.719 263.266C585.789 263.255 588.168 260.887 588.18 256.516C588.168 252.133 585.789 249.766 582.719 249.766C579.648 249.766 577.27 252.133 577.258 256.516ZM591.672 249.907V248.032H604.469V249.907H599.148V265.001H597.016V249.907H591.672ZM613.562 258.532C613.586 254.114 614.781 250.434 616.938 247.305H618.719C617.137 249.614 615.66 254.36 615.648 258.532C615.66 262.716 617.137 267.45 618.719 269.782H616.938C614.781 266.641 613.586 262.962 613.562 258.532ZM638.148 246.063V259.258H636.391V253.282H633.602V258.508H631.867V246.485H633.602V251.758H636.391V246.063H638.148ZM620.336 250.048V248.571H624.789V246.227H626.617V248.571H631.023V250.048H620.336ZM621.25 254.735C621.238 252.555 623.078 251.161 625.703 251.173C628.34 251.161 630.168 252.555 630.18 254.735C630.168 256.88 628.34 258.274 625.703 258.274C623.078 258.274 621.238 256.88 621.25 254.735ZM622.891 254.735C622.891 256.012 624.039 256.891 625.703 256.891C627.367 256.891 628.516 256.012 628.516 254.735C628.516 253.411 627.367 252.532 625.703 252.532C624.039 252.532 622.891 253.411 622.891 254.735ZM624.273 263.266C624.25 260.923 626.863 259.61 631.258 259.61C635.641 259.61 638.254 260.923 638.266 263.266C638.254 265.551 635.641 266.852 631.258 266.852C626.863 266.852 624.25 265.551 624.273 263.266ZM626.102 263.266C626.078 264.614 628.012 265.434 631.258 265.423C634.492 265.434 636.414 264.614 636.438 263.266C636.414 261.837 634.492 261.04 631.258 261.063C628.012 261.04 626.078 261.837 626.102 263.266ZM648.18 251.665C648.18 255.333 650.605 259.118 653.57 260.571L652.445 262.048C650.148 260.852 648.227 258.38 647.301 255.485C646.375 258.555 644.406 261.192 642.062 262.446L640.891 260.969C643.938 259.469 646.352 255.473 646.375 251.665V247.868H648.18V251.665ZM655.492 266.899V246.063H657.32V254.524H660.812V256.118H657.32V266.899H655.492ZM684.25 246.063V252.415H687.391V253.962H684.25V261.438H682.422V246.063H684.25ZM668.359 252.673C668.348 249.649 670.715 247.551 673.82 247.54C676.949 247.551 679.281 249.649 679.305 252.673C679.281 255.684 676.949 257.805 673.82 257.805C670.715 257.805 668.348 255.684 668.359 252.673ZM670.164 252.673C670.152 254.723 671.758 256.188 673.82 256.188C675.918 256.188 677.488 254.723 677.5 252.673C677.488 250.61 675.918 249.157 673.82 249.157C671.758 249.157 670.152 250.61 670.164 252.673ZM671.219 266.454V259.844H673.023V264.907H685.211V266.454H671.219ZM706.492 246.063V266.899H704.688V256.118H701.688V265.821H699.953V246.532H701.688V254.548H704.688V246.063H706.492ZM689.758 261.508V248.618H691.586V259.868C693.648 259.856 695.875 259.704 698.406 259.188L698.641 260.829C695.734 261.356 693.344 261.508 691.047 261.508H689.758ZM714.648 258.532C714.625 262.962 713.43 266.641 711.273 269.782H709.492C711.074 267.45 712.551 262.716 712.562 258.532C712.551 254.36 711.074 249.614 709.492 247.305H711.273C713.43 250.434 714.625 254.114 714.648 258.532Z" fill="white"/>
<path d="M86.625 265.001H84.4219L90.6328 248.032H92.8594L99.0703 265.001H96.8438L95.1445 260.219H88.3242L86.625 265.001ZM88.9688 258.368H94.5L91.8047 250.774H91.6641L88.9688 258.368ZM101.367 248.032H103.898L109.617 262.001H109.828L115.547 248.032H118.078V265.001H116.086V252.18H115.922L110.648 265.001H108.773L103.5 252.18H103.359V265.001H101.367V248.032ZM133.57 248.032V265.001H131.438V250.235H131.344L127.219 252.977V250.844L131.438 248.032H133.57ZM143.648 265.235C139.887 265.235 137.707 262.071 137.719 256.516C137.707 251.008 139.91 247.798 143.648 247.798C147.375 247.798 149.578 251.008 149.578 256.516C149.578 262.071 147.41 265.235 143.648 265.235ZM139.758 256.516C139.77 260.911 141.188 263.36 143.648 263.36C146.098 263.36 147.527 260.911 147.516 256.516C147.527 252.122 146.086 249.637 143.648 249.626C141.211 249.637 139.77 252.122 139.758 256.516ZM153.844 262.751C153.023 262.739 152.32 262.059 152.344 261.227C152.32 260.407 153.023 259.727 153.844 259.727C154.676 259.727 155.355 260.407 155.344 261.227C155.355 262.059 154.676 262.739 153.844 262.751ZM152.344 251.805C152.32 250.985 153.023 250.305 153.844 250.305C154.676 250.305 155.355 250.985 155.344 251.805C155.355 252.637 154.676 253.317 153.844 253.329C153.023 253.317 152.32 252.637 152.344 251.805ZM164.039 265.235C160.277 265.235 158.098 262.071 158.109 256.516C158.098 251.008 160.301 247.798 164.039 247.798C167.766 247.798 169.969 251.008 169.969 256.516C169.969 262.071 167.801 265.235 164.039 265.235ZM160.148 256.516C160.16 260.911 161.578 263.36 164.039 263.36C166.488 263.36 167.918 260.911 167.906 256.516C167.918 252.122 166.477 249.637 164.039 249.626C161.602 249.637 160.16 252.122 160.148 256.516ZM178.336 265.235C174.574 265.235 172.395 262.071 172.406 256.516C172.395 251.008 174.598 247.798 178.336 247.798C182.062 247.798 184.266 251.008 184.266 256.516C184.266 262.071 182.098 265.235 178.336 265.235ZM174.445 256.516C174.457 260.911 175.875 263.36 178.336 263.36C180.785 263.36 182.215 260.911 182.203 256.516C182.215 252.122 180.773 249.637 178.336 249.626C175.898 249.637 174.457 252.122 174.445 256.516ZM200.414 255.602V257.454H192.984V255.602H200.414ZM210.539 265.001H208.336L214.547 248.032H216.773L222.984 265.001H220.758L219.059 260.219H212.238L210.539 265.001ZM212.883 258.368H218.414L215.719 250.774H215.578L212.883 258.368ZM225.281 248.032H227.812L233.531 262.001H233.742L239.461 248.032H241.992V265.001H240V252.18H239.836L234.562 265.001H232.688L227.414 252.18H227.273V265.001H225.281V248.032ZM257.484 248.032V265.001H255.352V250.235H255.258L251.133 252.977V250.844L255.352 248.032H257.484ZM267.562 265.235C263.801 265.235 261.621 262.071 261.633 256.516C261.621 251.008 263.824 247.798 267.562 247.798C271.289 247.798 273.492 251.008 273.492 256.516C273.492 262.071 271.324 265.235 267.562 265.235ZM263.672 256.516C263.684 260.911 265.102 263.36 267.562 263.36C270.012 263.36 271.441 260.911 271.43 256.516C271.441 252.122 270 249.637 267.562 249.626C265.125 249.637 263.684 252.122 263.672 256.516ZM277.758 262.751C276.938 262.739 276.234 262.059 276.258 261.227C276.234 260.407 276.938 259.727 277.758 259.727C278.59 259.727 279.27 260.407 279.258 261.227C279.27 262.059 278.59 262.739 277.758 262.751ZM276.258 251.805C276.234 250.985 276.938 250.305 277.758 250.305C278.59 250.305 279.27 250.985 279.258 251.805C279.27 252.637 278.59 253.317 277.758 253.329C276.938 253.317 276.234 252.637 276.258 251.805ZM288.258 265.235C284.883 265.235 282.457 263.43 282.352 260.735H284.484C284.602 262.352 286.207 263.36 288.234 263.36C290.473 263.36 292.09 262.153 292.102 260.383C292.09 258.532 290.613 257.231 287.977 257.219H286.594V255.368H287.977C290.039 255.368 291.48 254.208 291.469 252.462C291.48 250.762 290.238 249.637 288.305 249.626C286.488 249.637 284.836 250.633 284.742 252.298H282.703C282.809 249.602 285.316 247.798 288.328 247.798C291.562 247.798 293.531 249.919 293.508 252.344C293.531 254.278 292.406 255.684 290.625 256.188V256.305C292.84 256.645 294.176 258.227 294.164 260.383C294.176 263.173 291.645 265.235 288.258 265.235ZM302.766 265.235C299.004 265.235 296.824 262.071 296.836 256.516C296.824 251.008 299.027 247.798 302.766 247.798C306.492 247.798 308.695 251.008 308.695 256.516C308.695 262.071 306.527 265.235 302.766 265.235ZM298.875 256.516C298.887 260.911 300.305 263.36 302.766 263.36C305.215 263.36 306.645 260.911 306.633 256.516C306.645 252.122 305.203 249.637 302.766 249.626C300.328 249.637 298.887 252.122 298.875 256.516Z" fill="white"/>
<path d="M88.834 295.428H87.6387L87.7441 292.704L85.4238 294.163L84.8262 293.126L87.252 291.86L84.8262 290.577L85.4238 289.54L87.7441 290.999L87.6387 288.274H88.834L88.7285 290.999L91.0488 289.54L91.6465 290.577L89.2383 291.86L91.6465 293.126L91.0488 294.163L88.7285 292.704L88.834 295.428ZM110.508 286.815V298.68H109.119V297.063H105.885V296.061H109.119V286.815H110.508ZM97.5352 294.057C100.444 294.04 104.364 294.013 107.713 293.6L107.801 294.602C106.412 294.822 104.944 294.963 103.512 295.05V298.135H102.123V295.121C100.541 295.182 99.0381 295.182 97.7285 295.182L97.5352 294.057ZM98.8008 290.173C98.792 288.529 100.356 287.448 102.668 287.448C104.962 287.448 106.526 288.529 106.535 290.173C106.526 291.842 104.962 292.88 102.668 292.88C100.356 292.88 98.792 291.842 98.8008 290.173ZM99.7852 302.091V297.52H101.174V300.93H110.895V302.091H99.7852ZM100.119 290.173C100.102 291.192 101.139 291.851 102.668 291.86C104.153 291.851 105.208 291.192 105.217 290.173C105.208 289.171 104.153 288.485 102.668 288.503C101.139 288.485 100.102 289.171 100.119 290.173ZM125.379 286.798V290.805H127.717V291.983H125.379V296.026H123.99V286.798H125.379ZM113.109 294.62C114.357 294.62 115.816 294.62 117.346 294.576V293.609C115.509 293.46 114.349 292.73 114.357 291.544C114.349 290.26 115.79 289.513 118.014 289.522C120.237 289.513 121.67 290.26 121.688 291.544C121.67 292.721 120.536 293.451 118.717 293.609V294.523C120.176 294.453 121.652 294.339 123.023 294.145L123.146 295.077C119.771 295.631 116.019 295.657 113.268 295.657L113.109 294.62ZM113.496 288.995V287.993H117.346V286.657H118.717V287.993H122.549V288.995H113.496ZM115.201 297.714V296.729H125.379V299.876H116.607V301.264H125.977V302.249H115.236V298.944H124.008V297.714H115.201ZM115.676 291.544C115.667 292.247 116.572 292.695 118.014 292.704C119.455 292.695 120.369 292.247 120.369 291.544C120.369 290.858 119.455 290.445 118.014 290.436C116.572 290.445 115.667 290.858 115.676 291.544ZM140.953 286.815V291.966H143.309V293.126H140.953V298.522H139.582V286.815H140.953ZM128.771 289.856V288.731H132.744V286.815H134.115V288.731H138.088V289.856H128.771ZM129.668 293.635C129.659 291.86 131.171 290.717 133.43 290.717C135.662 290.717 137.174 291.86 137.191 293.635C137.174 295.393 135.662 296.527 133.43 296.518C131.171 296.527 129.659 295.393 129.668 293.635ZM130.986 293.635C130.978 294.734 131.953 295.446 133.43 295.428C134.889 295.446 135.873 294.734 135.891 293.635C135.873 292.519 134.889 291.799 133.43 291.807C131.953 291.799 130.978 292.519 130.986 293.635ZM131.18 302.091V297.591H132.533V300.93H141.674V302.091H131.18ZM162.082 286.798V296.694H160.764V292.212H158.672V296.132H157.371V287.114H158.672V291.069H160.764V286.798H162.082ZM148.723 289.786V288.678H152.062V286.921H153.434V288.678H156.738V289.786H148.723ZM149.408 293.301C149.399 291.667 150.779 290.621 152.748 290.63C154.726 290.621 156.097 291.667 156.105 293.301C156.097 294.91 154.726 295.956 152.748 295.956C150.779 295.956 149.399 294.91 149.408 293.301ZM150.639 293.301C150.639 294.259 151.5 294.919 152.748 294.919C153.996 294.919 154.857 294.259 154.857 293.301C154.857 292.308 153.996 291.649 152.748 291.649C151.5 291.649 150.639 292.308 150.639 293.301ZM151.676 299.7C151.658 297.942 153.618 296.958 156.914 296.958C160.201 296.958 162.161 297.942 162.17 299.7C162.161 301.414 160.201 302.389 156.914 302.389C153.618 302.389 151.658 301.414 151.676 299.7ZM153.047 299.7C153.029 300.711 154.479 301.326 156.914 301.317C159.34 301.326 160.781 300.711 160.799 299.7C160.781 298.628 159.34 298.03 156.914 298.048C154.479 298.03 153.029 298.628 153.047 299.7ZM169.605 290.999C169.605 293.75 171.425 296.589 173.648 297.678L172.805 298.786C171.082 297.889 169.641 296.035 168.946 293.864C168.252 296.167 166.775 298.144 165.018 299.085L164.139 297.977C166.424 296.852 168.234 293.855 168.252 290.999V288.151H169.605V290.999ZM175.09 302.424V286.798H176.461V293.143H179.08V294.339H176.461V302.424H175.09ZM190.066 290.155C190.075 292.264 191.736 294.163 194.074 294.901L193.371 296.008C191.552 295.384 190.11 294.101 189.398 292.458C188.722 294.233 187.254 295.639 185.391 296.325L184.67 295.217C187.017 294.4 188.669 292.37 188.678 290.155V289.241H185.021V288.116H193.67V289.241H190.066V290.155ZM187.254 302.091V297.186H188.625V300.93H197.836V302.091H187.254ZM195.973 298.276V286.815H197.344V298.276H195.973ZM213.27 286.798V296.694H211.951V292.212H209.859V296.132H208.559V287.114H209.859V291.069H211.951V286.798H213.27ZM199.91 289.786V288.678H203.25V286.921H204.621V288.678H207.926V289.786H199.91ZM200.596 293.301C200.587 291.667 201.967 290.621 203.936 290.63C205.913 290.621 207.284 291.667 207.293 293.301C207.284 294.91 205.913 295.956 203.936 295.956C201.967 295.956 200.587 294.91 200.596 293.301ZM201.826 293.301C201.826 294.259 202.688 294.919 203.936 294.919C205.184 294.919 206.045 294.259 206.045 293.301C206.045 292.308 205.184 291.649 203.936 291.649C202.688 291.649 201.826 292.308 201.826 293.301ZM202.863 299.7C202.846 297.942 204.806 296.958 208.102 296.958C211.389 296.958 213.349 297.942 213.357 299.7C213.349 301.414 211.389 302.389 208.102 302.389C204.806 302.389 202.846 301.414 202.863 299.7ZM204.234 299.7C204.217 300.711 205.667 301.326 208.102 301.317C210.527 301.326 211.969 300.711 211.986 299.7C211.969 298.628 210.527 298.03 208.102 298.048C205.667 298.03 204.217 298.628 204.234 299.7ZM222.674 287.079C226.146 287.079 228.185 288.037 228.193 289.768C228.185 291.544 226.146 292.502 222.674 292.51C219.185 292.502 217.137 291.544 217.137 289.768C217.137 288.037 219.185 287.079 222.674 287.079ZM215.555 294.69V293.565H229.793V294.69H215.555ZM217.277 297.098V296.044H227.965V299.542H218.684V301.159H228.439V302.249H217.312V298.522H226.611V297.098H217.277ZM218.578 289.768C218.561 290.858 220.081 291.456 222.674 291.456C225.267 291.456 226.778 290.858 226.787 289.768C226.778 288.74 225.267 288.125 222.674 288.116C220.081 288.125 218.561 288.74 218.578 289.768ZM240.779 287.571C243.117 287.553 244.796 288.845 244.787 290.753C244.796 292.66 243.117 293.961 240.779 293.952C238.441 293.961 236.771 292.66 236.771 290.753C236.771 288.845 238.441 287.553 240.779 287.571ZM235.594 295.288C238.529 295.297 242.546 295.235 246.018 294.725L246.105 295.762C244.611 296.035 243.064 296.202 241.553 296.299V301.95H240.182V296.378C238.591 296.448 237.088 296.457 235.787 296.466L235.594 295.288ZM238.125 290.753C238.107 291.974 239.224 292.818 240.779 292.809C242.353 292.818 243.478 291.974 243.469 290.753C243.478 289.54 242.353 288.678 240.779 288.696C239.224 288.678 238.107 289.54 238.125 290.753ZM247.16 302.442V286.815H248.514V302.442H247.16ZM258.99 289.505V290.63H251.15V289.505H254.402V287.272H255.773V289.505H258.99ZM251.713 295.235C251.713 293.161 253.128 291.693 255.07 291.684C257.039 291.693 258.445 293.161 258.463 295.235C258.445 297.336 257.039 298.812 255.07 298.821C253.128 298.812 251.713 297.336 251.713 295.235ZM252.943 295.235C252.943 296.624 253.831 297.617 255.07 297.608C256.318 297.617 257.232 296.624 257.232 295.235C257.232 293.864 256.318 292.862 255.07 292.844C253.831 292.862 252.943 293.864 252.943 295.235ZM259.799 301.651V287.184H261.1V293.389H263.174V286.798H264.492V302.424H263.174V294.532H261.1V301.651H259.799ZM284.531 286.798V296.694H283.213V292.212H281.121V296.132H279.82V287.114H281.121V291.069H283.213V286.798H284.531ZM271.172 289.786V288.678H274.512V286.921H275.883V288.678H279.188V289.786H271.172ZM271.857 293.301C271.849 291.667 273.229 290.621 275.197 290.63C277.175 290.621 278.546 291.667 278.555 293.301C278.546 294.91 277.175 295.956 275.197 295.956C273.229 295.956 271.849 294.91 271.857 293.301ZM273.088 293.301C273.088 294.259 273.949 294.919 275.197 294.919C276.445 294.919 277.307 294.259 277.307 293.301C277.307 292.308 276.445 291.649 275.197 291.649C273.949 291.649 273.088 292.308 273.088 293.301ZM274.125 299.7C274.107 297.942 276.067 296.958 279.363 296.958C282.65 296.958 284.61 297.942 284.619 299.7C284.61 301.414 282.65 302.389 279.363 302.389C276.067 302.389 274.107 301.414 274.125 299.7ZM275.496 299.7C275.479 300.711 276.929 301.326 279.363 301.317C281.789 301.326 283.23 300.711 283.248 299.7C283.23 298.628 281.789 298.03 279.363 298.048C276.929 298.03 275.479 298.628 275.496 299.7ZM292.055 290.999C292.055 293.75 293.874 296.589 296.098 297.678L295.254 298.786C293.531 297.889 292.09 296.035 291.396 293.864C290.701 296.167 289.225 298.144 287.467 299.085L286.588 297.977C288.873 296.852 290.684 293.855 290.701 290.999V288.151H292.055V290.999ZM297.539 302.424V286.798H298.91V293.143H301.529V294.339H298.91V302.424H297.539ZM312.445 290.999C312.437 293.855 314.379 296.72 316.682 297.766L315.838 298.856C314.054 297.995 312.516 296.14 311.769 293.917C311.048 296.272 309.51 298.25 307.682 299.173L306.803 298.012C309.132 296.949 311.057 293.961 311.074 290.999V288.151H312.445V290.999ZM318.387 302.46V286.798H319.775V302.46H318.387ZM327.738 289.698C327.747 291.781 329.276 293.679 331.588 294.479L330.885 295.551C329.101 294.919 327.738 293.644 327.07 292.027C326.402 293.802 324.97 295.182 323.133 295.85L322.395 294.778C324.732 293.952 326.367 291.939 326.385 289.698V289.03H322.816V287.905H331.254V289.03H327.738V289.698ZM324.434 298.171V297.046H334.664V302.424H333.293V298.171H324.434ZM333.293 296.219V286.798H334.664V290.928H337.02V292.106H334.664V296.219H333.293ZM347.584 288.274V301.001H345.984V289.926H345.914L342.82 291.983V290.383L345.984 288.274H347.584ZM355.143 301.176C352.321 301.176 350.687 298.803 350.695 294.637C350.687 290.507 352.339 288.098 355.143 288.098C357.938 288.098 359.59 290.507 359.59 294.637C359.59 298.803 357.964 301.176 355.143 301.176ZM352.225 294.637C352.233 297.933 353.297 299.77 355.143 299.77C356.979 299.77 358.052 297.933 358.043 294.637C358.052 291.341 356.971 289.478 355.143 289.469C353.314 289.478 352.233 291.341 352.225 294.637ZM375.428 295.077V296.202H369.064V299.26H367.693V296.202H361.119V295.077H375.428ZM362.947 302.091V297.819H364.318V300.93H373.828V302.091H362.947ZM363.035 293.548V287.307H364.406V289.311H372.141V287.307H373.512V293.548H363.035ZM364.406 292.423H372.141V290.366H364.406V292.423ZM394.166 286.815V298.276H392.777V292.282H389.561V291.139H392.777V286.815H394.166ZM381.281 295.147C383.584 294.339 385.254 292.273 385.254 290.032V289.223H381.721V288.081H390.141V289.223H386.643V290.032C386.643 292.053 388.207 294.013 390.492 294.796L389.771 295.903C388.014 295.261 386.651 293.952 385.975 292.335C385.298 294.145 383.856 295.578 382.002 296.272L381.281 295.147ZM384.129 302.091V297.239H385.518V300.93H394.605V302.091H384.129ZM410.162 286.798V302.424H408.826V286.798H410.162ZM396.961 293.548C396.97 290.225 398.288 288.125 400.318 288.116C402.217 288.125 403.5 289.953 403.676 292.897H405.697V287.132H407.016V301.633H405.697V294.04H403.685C403.553 297.081 402.243 298.988 400.318 298.979C398.288 298.988 396.97 296.87 396.961 293.548ZM398.262 293.548C398.244 296.079 399.053 297.678 400.318 297.661C401.593 297.678 402.401 296.079 402.393 293.548C402.401 291.008 401.593 289.417 400.318 289.417C399.053 289.417 398.244 291.008 398.262 293.548ZM429.744 286.798V295.182H428.373V286.798H429.744ZM417.211 291.157C417.202 289.021 418.934 287.553 421.307 287.571C423.68 287.553 425.394 289.021 425.402 291.157C425.394 293.284 423.68 294.752 421.307 294.743C418.934 294.752 417.202 293.284 417.211 291.157ZM418.564 291.157C418.547 292.581 419.698 293.591 421.307 293.6C422.897 293.591 424.049 292.581 424.049 291.157C424.049 289.724 422.897 288.722 421.307 288.731C419.698 288.722 418.547 289.724 418.564 291.157ZM419.619 302.214V295.973H420.99V297.872H428.373V295.973H429.744V302.214H419.619ZM420.99 301.089H428.373V298.979H420.99V301.089ZM445.283 286.798V294.901H443.93V286.798H445.283ZM432.504 293.653C434.859 292.836 436.529 290.744 436.529 288.45V287.255H437.936V288.45C437.918 290.656 439.605 292.607 441.926 293.372L441.24 294.444C439.403 293.82 437.953 292.51 437.25 290.823C436.547 292.642 435.079 294.075 433.225 294.743L432.504 293.653ZM435.141 296.799V295.692H445.301V299.436H436.529V301.124H445.863V302.249H435.176V298.364H443.93V296.799H435.141ZM466.764 296.079V297.204H460.242V302.424H458.889V297.204H452.455V296.079H466.764ZM454.283 294.18V287.448H455.654V289.61H463.529V287.448H464.918V294.18H454.283ZM455.654 293.055H463.529V290.735H455.654V293.055ZM475.957 287.87V289.012H470.139V291.051H475.658V292.141H470.139V294.303C473.188 294.303 474.92 294.216 476.977 293.846L477.135 294.989C474.981 295.358 473.18 295.428 469.945 295.411H468.768V287.87H475.957ZM470.016 298.171V297.046H480.246V302.424H478.875V298.171H470.016ZM478.875 296.272V286.798H480.246V290.964H482.602V292.141H480.246V296.272H478.875ZM496.207 294.321V295.464H485.414V288.257H496.049V289.399H486.785V294.321H496.207ZM483.586 300.298V299.137H497.895V300.298H483.586ZM512.045 286.815V295.393H510.674V286.815H512.045ZM499.934 288.714V287.571H507.07V291.79H501.305V293.917C504.1 293.899 506.183 293.838 508.723 293.424L508.881 294.567C506.253 294.98 504.117 295.059 501.234 295.077H499.969V290.7H505.699V288.714H499.934ZM501.885 302.214V296.184H503.273V298.048H510.674V296.184H512.045V302.214H501.885ZM503.273 301.089H510.674V299.155H503.273V301.089ZM527.584 286.798V302.424H526.213V286.798H527.584ZM515.719 298.399V288.344H517.072V297.204C519.463 297.186 521.924 297.002 524.543 296.448L524.736 297.626C521.959 298.206 519.489 298.399 516.984 298.399H515.719ZM542.35 286.798V292.985H544.969V294.145H542.35V302.46H540.979V286.798H542.35ZM530.941 298.54V288.327H538.236V289.469H532.312V297.38C535.143 297.371 537.138 297.248 539.467 296.817L539.643 298.012C537.19 298.452 535.143 298.54 532.172 298.54H530.941ZM547.465 301.106C546.85 301.097 546.322 300.588 546.34 299.964C546.322 299.348 546.85 298.839 547.465 298.839C548.089 298.839 548.599 299.348 548.59 299.964C548.599 300.588 548.089 301.097 547.465 301.106Z" fill="#0057FF"/>
<path d="M618.25 380.673V382.173H607.797V380.673H612.133V377.696H613.961V380.673H618.25ZM608.547 388.313C608.547 385.548 610.434 383.591 613.023 383.579C615.648 383.591 617.523 385.548 617.547 388.313C617.523 391.114 615.648 393.083 613.023 393.094C610.434 393.083 608.547 391.114 608.547 388.313ZM610.188 388.313C610.188 390.165 611.371 391.489 613.023 391.477C614.688 391.489 615.906 390.165 615.906 388.313C615.906 386.485 614.688 385.149 613.023 385.126C611.371 385.149 610.188 386.485 610.188 388.313ZM619.328 396.868V377.579H621.062V385.852H623.828V377.063H625.586V397.899H623.828V387.376H621.062V396.868H619.328ZM639.18 379.243C639.156 385.255 637.023 390.762 629.664 394.454L628.609 393.048C632.441 391.126 634.809 388.723 636.109 385.911L629.008 386.579L628.68 384.985L636.672 384.458C637.059 383.286 637.27 382.055 637.363 380.766H629.734V379.243H639.18ZM639.109 386.977V385.454H644.008V377.063H645.836V397.899H644.008V386.977H639.109ZM668.312 388.876V390.399H649.305V388.876H657.883V386.649H651.836V377.86H665.945V379.337H653.688V381.516H665.383V382.946H653.688V385.196H666.062V386.649H659.711V388.876H668.312ZM651.789 397.454V391.829H653.617V395.907H666.32V397.454H651.789ZM683.594 381.54C683.605 384.352 685.82 386.883 688.938 387.868L688 389.344C685.574 388.512 683.652 386.801 682.703 384.61C681.801 386.977 679.844 388.852 677.359 389.766L676.398 388.29C679.527 387.2 681.73 384.493 681.742 381.54V380.321H676.867V378.821H688.398V380.321H683.594V381.54ZM679.844 397.454V390.915H681.672V395.907H693.953V397.454H679.844ZM691.469 392.368V377.087H693.297V392.368H691.469ZM714.531 377.063V390.258H712.773V384.282H709.984V389.508H708.25V377.485H709.984V382.758H712.773V377.063H714.531ZM696.719 381.048V379.571H701.172V377.227H703V379.571H707.406V381.048H696.719ZM697.633 385.735C697.621 383.555 699.461 382.161 702.086 382.173C704.723 382.161 706.551 383.555 706.562 385.735C706.551 387.88 704.723 389.274 702.086 389.274C699.461 389.274 697.621 387.88 697.633 385.735ZM699.273 385.735C699.273 387.012 700.422 387.891 702.086 387.891C703.75 387.891 704.898 387.012 704.898 385.735C704.898 384.411 703.75 383.532 702.086 383.532C700.422 383.532 699.273 384.411 699.273 385.735ZM700.656 394.266C700.633 391.923 703.246 390.61 707.641 390.61C712.023 390.61 714.637 391.923 714.648 394.266C714.637 396.551 712.023 397.852 707.641 397.852C703.246 397.852 700.633 396.551 700.656 394.266ZM702.484 394.266C702.461 395.614 704.395 396.434 707.641 396.423C710.875 396.434 712.797 395.614 712.82 394.266C712.797 392.837 710.875 392.04 707.641 392.063C704.395 392.04 702.461 392.837 702.484 394.266Z" fill="white"/>
<path d="M86.625 396.001H84.4219L90.6328 379.032H92.8594L99.0703 396.001H96.8438L95.1445 391.219H88.3242L86.625 396.001ZM88.9688 389.368H94.5L91.8047 381.774H91.6641L88.9688 389.368ZM101.367 379.032H103.898L109.617 393.001H109.828L115.547 379.032H118.078V396.001H116.086V383.18H115.922L110.648 396.001H108.773L103.5 383.18H103.359V396.001H101.367V379.032ZM133.57 379.032V396.001H131.438V381.235H131.344L127.219 383.977V381.844L131.438 379.032H133.57ZM144.094 379.032V396.001H141.961V381.235H141.867L137.742 383.977V381.844L141.961 379.032H144.094ZM150.07 393.751C149.25 393.739 148.547 393.059 148.57 392.227C148.547 391.407 149.25 390.727 150.07 390.727C150.902 390.727 151.582 391.407 151.57 392.227C151.582 393.059 150.902 393.739 150.07 393.751ZM148.57 382.805C148.547 381.985 149.25 381.305 150.07 381.305C150.902 381.305 151.582 381.985 151.57 382.805C151.582 383.637 150.902 384.317 150.07 384.329C149.25 384.317 148.547 383.637 148.57 382.805ZM160.266 396.235C156.504 396.235 154.324 393.071 154.336 387.516C154.324 382.008 156.527 378.798 160.266 378.798C163.992 378.798 166.195 382.008 166.195 387.516C166.195 393.071 164.027 396.235 160.266 396.235ZM156.375 387.516C156.387 391.911 157.805 394.36 160.266 394.36C162.715 394.36 164.145 391.911 164.133 387.516C164.145 383.122 162.703 380.637 160.266 380.626C157.828 380.637 156.387 383.122 156.375 387.516ZM174.562 396.235C170.801 396.235 168.621 393.071 168.633 387.516C168.621 382.008 170.824 378.798 174.562 378.798C178.289 378.798 180.492 382.008 180.492 387.516C180.492 393.071 178.324 396.235 174.562 396.235ZM170.672 387.516C170.684 391.911 172.102 394.36 174.562 394.36C177.012 394.36 178.441 391.911 178.43 387.516C178.441 383.122 177 380.637 174.562 380.626C172.125 380.637 170.684 383.122 170.672 387.516ZM196.641 386.602V388.454H189.211V386.602H196.641ZM206.766 396.001H204.562L210.773 379.032H213L219.211 396.001H216.984L215.285 391.219H208.465L206.766 396.001ZM209.109 389.368H214.641L211.945 381.774H211.805L209.109 389.368ZM221.508 379.032H224.039L229.758 393.001H229.969L235.688 379.032H238.219V396.001H236.227V383.18H236.062L230.789 396.001H228.914L223.641 383.18H223.5V396.001H221.508V379.032ZM253.711 379.032V396.001H251.578V381.235H251.484L247.359 383.977V381.844L251.578 379.032H253.711ZM263.789 396.235C260.027 396.235 257.848 393.071 257.859 387.516C257.848 382.008 260.051 378.798 263.789 378.798C267.516 378.798 269.719 382.008 269.719 387.516C269.719 393.071 267.551 396.235 263.789 396.235ZM259.898 387.516C259.91 391.911 261.328 394.36 263.789 394.36C266.238 394.36 267.668 391.911 267.656 387.516C267.668 383.122 266.227 380.637 263.789 380.626C261.352 380.637 259.91 383.122 259.898 387.516ZM273.984 393.751C273.164 393.739 272.461 393.059 272.484 392.227C272.461 391.407 273.164 390.727 273.984 390.727C274.816 390.727 275.496 391.407 275.484 392.227C275.496 393.059 274.816 393.739 273.984 393.751ZM272.484 382.805C272.461 381.985 273.164 381.305 273.984 381.305C274.816 381.305 275.496 381.985 275.484 382.805C275.496 383.637 274.816 384.317 273.984 384.329C273.164 384.317 272.461 383.637 272.484 382.805ZM284.18 396.235C280.418 396.235 278.238 393.071 278.25 387.516C278.238 382.008 280.441 378.798 284.18 378.798C287.906 378.798 290.109 382.008 290.109 387.516C290.109 393.071 287.941 396.235 284.18 396.235ZM280.289 387.516C280.301 391.911 281.719 394.36 284.18 394.36C286.629 394.36 288.059 391.911 288.047 387.516C288.059 383.122 286.617 380.637 284.18 380.626C281.742 380.637 280.301 383.122 280.289 387.516ZM298.477 396.235C294.715 396.235 292.535 393.071 292.547 387.516C292.535 382.008 294.738 378.798 298.477 378.798C302.203 378.798 304.406 382.008 304.406 387.516C304.406 393.071 302.238 396.235 298.477 396.235ZM294.586 387.516C294.598 391.911 296.016 394.36 298.477 394.36C300.926 394.36 302.355 391.911 302.344 387.516C302.355 383.122 300.914 380.637 298.477 380.626C296.039 380.637 294.598 383.122 294.586 387.516Z" fill="white"/>
<path d="M483.633 656.062V676.898H481.828V666H478.945V675.867H477.188V656.625H478.945V664.477H481.828V656.062H483.633ZM465.867 671.133C470.707 668.426 472.699 664.617 473.016 660.305H466.664V658.781H474.82C474.797 664.078 472.934 669.082 466.945 672.422L465.867 671.133ZM489.281 656.953V659.953H495.352V656.953H497.18V666.023H487.477V656.953H489.281ZM489.281 664.523H495.352V661.383H489.281V664.523ZM489.586 669.305V667.828H502.875V672.867H491.438V675.164H503.648V676.664H489.633V671.461H501.047V669.305H489.586ZM501.047 666.844V656.062H502.875V660.586H506.016V662.133H502.875V666.844H501.047ZM524.227 657.422V665.906H514.453V657.422H524.227ZM515.953 675.398C519.539 675 522.984 672.973 522.984 670.898H516.82V669.469H523.008V667.43H524.836V669.469H531.07V670.898H524.883C524.871 672.926 528.223 674.953 531.797 675.398L531.164 676.828C528.035 676.395 525.176 674.918 523.934 672.996C522.68 674.965 519.75 676.395 516.609 676.828L515.953 675.398ZM516.258 664.453H522.422V658.922H516.258V664.453ZM528.727 668.039V656.062H530.531V668.039H528.727ZM542.812 656.953V659.953H548.883V656.953H550.711V666.023H541.008V656.953H542.812ZM542.812 664.523H548.883V661.383H542.812V664.523ZM543.117 669.305V667.828H556.406V672.867H544.969V675.164H557.18V676.664H543.164V671.461H554.578V669.305H543.117ZM554.578 666.844V656.062H556.406V660.586H559.547V662.133H556.406V666.844H554.578ZM579.938 672.82V674.344H560.859V672.82H566.18V667.852H562.594V666.328H565.852V659.531H562.547V658.008H578.109V659.531H574.805V666.328H578.062V667.852H574.477V672.82H579.938ZM567.68 666.328H573V659.531H567.68V666.328ZM568.031 672.82H572.648V667.852H568.031V672.82ZM588.656 662.461C588.633 665.801 591.047 669.48 594.07 670.922L593.016 672.375C590.672 671.227 588.691 668.766 587.754 665.941C586.793 669 584.707 671.695 582.375 672.891L581.25 671.438C584.25 669.973 586.828 666.012 586.852 662.461V659.742H582V658.219H593.344V659.742H588.656V662.461ZM595.898 676.898V656.062H597.727V664.5H601.219V666.07H597.727V676.898H595.898ZM621.422 672.773V674.32H602.344V672.773H607.711V668.812H604.734V662.391H617.203V659.133H604.688V657.609H619.008V663.914H606.562V667.289H619.5V668.812H616.242V672.773H621.422ZM609.516 672.773H614.438V668.812H609.516V672.773ZM646.922 656.062V676.898H645.164V656.062H646.922ZM628.852 671.344C631.758 669.609 633.457 665.801 633.445 662.016V660.047H629.438V658.523H639.047V660.047H635.227V662.016C635.227 665.613 636.855 669.211 639.727 670.875L638.602 672.234C636.551 671.004 635.098 668.754 634.371 666.105C633.621 668.977 632.109 671.426 630.023 672.727L628.852 671.344ZM637.453 665.086V663.586H640.969V656.578H642.703V675.82H640.969V665.086H637.453ZM668.836 665.344V666.773H660.234V668.719H666.398V673.219H654.023V675.258H667.031V676.664H652.195V671.906H664.594V670.102H652.148V668.719H658.43V666.773H649.875V665.344H668.836ZM650.883 662.977C654.703 662.73 657.961 661.43 658.301 659.344H651.82V657.891H658.43V655.945H660.234V657.891H666.914V659.344H660.375C660.703 661.43 663.961 662.73 667.805 662.977L667.242 664.383C663.762 664.09 660.621 663.012 659.344 661.031C658.055 663.012 654.914 664.09 651.422 664.383L650.883 662.977ZM687.094 658.172V671.602H677.484V658.172H687.094ZM679.266 670.102H685.266V659.648H679.266V670.102ZM690.914 676.898V656.062H692.742V664.383H696.234V665.977H692.742V676.898H690.914ZM713.648 656.062V661.172H716.789V662.695H713.648V667.898H711.82V656.062H713.648ZM697.336 666.633C702.457 665.25 705.586 662.473 705.973 658.945H698.273V657.422H707.953C707.93 662.672 704.262 666.434 698.086 668.109L697.336 666.633ZM700.453 676.617V668.859H713.648V676.617H700.453ZM702.281 675.117H711.82V670.383H702.281V675.117Z" fill="white"/>
<path d="M85.1406 675H82.9375L89.1484 658.031H91.375L97.5859 675H95.3594L93.6602 670.219H86.8398L85.1406 675ZM87.4844 668.367H93.0156L90.3203 660.773H90.1797L87.4844 668.367ZM99.8828 658.031H102.414L108.133 672H108.344L114.062 658.031H116.594V675H114.602V662.18H114.438L109.164 675H107.289L102.016 662.18H101.875V675H99.8828V658.031ZM132.086 658.031V675H129.953V660.234H129.859L125.734 662.977V660.844L129.953 658.031H132.086ZM142.164 675.234C138.402 675.234 136.223 672.07 136.234 666.516C136.223 661.008 138.426 657.797 142.164 657.797C145.891 657.797 148.094 661.008 148.094 666.516C148.094 672.07 145.926 675.234 142.164 675.234ZM138.273 666.516C138.285 670.91 139.703 673.359 142.164 673.359C144.613 673.359 146.043 670.91 146.031 666.516C146.043 662.121 144.602 659.637 142.164 659.625C139.727 659.637 138.285 662.121 138.273 666.516ZM152.359 672.75C151.539 672.738 150.836 672.059 150.859 671.227C150.836 670.406 151.539 669.727 152.359 669.727C153.191 669.727 153.871 670.406 153.859 671.227C153.871 672.059 153.191 672.738 152.359 672.75ZM150.859 661.805C150.836 660.984 151.539 660.305 152.359 660.305C153.191 660.305 153.871 660.984 153.859 661.805C153.871 662.637 153.191 663.316 152.359 663.328C151.539 663.316 150.836 662.637 150.859 661.805ZM162.555 675.234C158.793 675.234 156.613 672.07 156.625 666.516C156.613 661.008 158.816 657.797 162.555 657.797C166.281 657.797 168.484 661.008 168.484 666.516C168.484 672.07 166.316 675.234 162.555 675.234ZM158.664 666.516C158.676 670.91 160.094 673.359 162.555 673.359C165.004 673.359 166.434 670.91 166.422 666.516C166.434 662.121 164.992 659.637 162.555 659.625C160.117 659.637 158.676 662.121 158.664 666.516ZM176.852 675.234C173.09 675.234 170.91 672.07 170.922 666.516C170.91 661.008 173.113 657.797 176.852 657.797C180.578 657.797 182.781 661.008 182.781 666.516C182.781 672.07 180.613 675.234 176.852 675.234ZM172.961 666.516C172.973 670.91 174.391 673.359 176.852 673.359C179.301 673.359 180.73 670.91 180.719 666.516C180.73 662.121 179.289 659.637 176.852 659.625C174.414 659.637 172.973 662.121 172.961 666.516Z" fill="white"/>
<path d="M83.875 874V857.031H89.6406C93.6133 857.031 95.4297 859.398 95.4297 862.422C95.4297 865.434 93.6133 867.836 89.6641 867.836H85.9844V874H83.875ZM85.9844 865.961H89.5703C92.2773 865.961 93.332 864.438 93.3438 862.422C93.332 860.395 92.2773 858.906 89.5469 858.906H85.9844V865.961ZM98.3828 857.031H100.914L106.633 871H106.844L112.562 857.031H115.094V874H113.102V861.18H112.938L107.664 874H105.789L100.516 861.18H100.375V874H98.3828V857.031ZM130.586 857.031V874H128.453V859.234H128.359L124.234 861.977V859.844L128.453 857.031H130.586ZM136.562 871.75C135.742 871.738 135.039 871.059 135.062 870.227C135.039 869.406 135.742 868.727 136.562 868.727C137.395 868.727 138.074 869.406 138.062 870.227C138.074 871.059 137.395 871.738 136.562 871.75ZM135.062 860.805C135.039 859.984 135.742 859.305 136.562 859.305C137.395 859.305 138.074 859.984 138.062 860.805C138.074 861.637 137.395 862.316 136.562 862.328C135.742 862.316 135.039 861.637 135.062 860.805ZM146.758 874.234C142.996 874.234 140.816 871.07 140.828 865.516C140.816 860.008 143.02 856.797 146.758 856.797C150.484 856.797 152.688 860.008 152.688 865.516C152.688 871.07 150.52 874.234 146.758 874.234ZM142.867 865.516C142.879 869.91 144.297 872.359 146.758 872.359C149.207 872.359 150.637 869.91 150.625 865.516C150.637 861.121 149.195 858.637 146.758 858.625C144.32 858.637 142.879 861.121 142.867 865.516ZM161.055 874.234C157.293 874.234 155.113 871.07 155.125 865.516C155.113 860.008 157.316 856.797 161.055 856.797C164.781 856.797 166.984 860.008 166.984 865.516C166.984 871.07 164.816 874.234 161.055 874.234ZM157.164 865.516C157.176 869.91 158.594 872.359 161.055 872.359C163.504 872.359 164.934 869.91 164.922 865.516C164.934 861.121 163.492 858.637 161.055 858.625C158.617 858.637 157.176 861.121 157.164 865.516ZM183.133 864.602V866.453H175.703V864.602H183.133ZM192.508 874V857.031H198.273C202.246 857.031 204.062 859.398 204.062 862.422C204.062 865.434 202.246 867.836 198.297 867.836H194.617V874H192.508ZM194.617 865.961H198.203C200.91 865.961 201.965 864.438 201.977 862.422C201.965 860.395 200.91 858.906 198.18 858.906H194.617V865.961ZM207.016 857.031H209.547L215.266 871H215.477L221.195 857.031H223.727V874H221.734V861.18H221.57L216.297 874H214.422L209.148 861.18H209.008V874H207.016V857.031ZM233.219 874L233.195 872.453L238.984 866.359C240.988 864.227 241.949 863.078 241.961 861.508C241.949 859.762 240.496 858.637 238.586 858.625C236.559 858.637 235.293 859.914 235.281 861.812H233.289C233.266 858.812 235.586 856.797 238.656 856.797C241.738 856.797 243.918 858.871 243.93 861.508C243.918 863.406 243.039 864.883 240.039 867.977L236.148 871.984V872.125H244.234V874H233.219ZM248.758 871.75C247.938 871.738 247.234 871.059 247.258 870.227C247.234 869.406 247.938 868.727 248.758 868.727C249.59 868.727 250.27 869.406 250.258 870.227C250.27 871.059 249.59 871.738 248.758 871.75ZM247.258 860.805C247.234 859.984 247.938 859.305 248.758 859.305C249.59 859.305 250.27 859.984 250.258 860.805C250.27 861.637 249.59 862.316 248.758 862.328C247.938 862.316 247.234 861.637 247.258 860.805ZM258.953 874.234C255.191 874.234 253.012 871.07 253.023 865.516C253.012 860.008 255.215 856.797 258.953 856.797C262.68 856.797 264.883 860.008 264.883 865.516C264.883 871.07 262.715 874.234 258.953 874.234ZM255.062 865.516C255.074 869.91 256.492 872.359 258.953 872.359C261.402 872.359 262.832 869.91 262.82 865.516C262.832 861.121 261.391 858.637 258.953 858.625C256.516 858.637 255.074 861.121 255.062 865.516ZM273.25 874.234C269.488 874.234 267.309 871.07 267.32 865.516C267.309 860.008 269.512 856.797 273.25 856.797C276.977 856.797 279.18 860.008 279.18 865.516C279.18 871.07 277.012 874.234 273.25 874.234ZM269.359 865.516C269.371 869.91 270.789 872.359 273.25 872.359C275.699 872.359 277.129 869.91 277.117 865.516C277.129 861.121 275.688 858.637 273.25 858.625C270.812 858.637 269.371 861.121 269.359 865.516Z" fill="white"/>
<path d="M574.25 860.664C574.238 864.473 576.828 868.293 579.898 869.688L578.773 871.141C576.395 869.992 574.344 867.52 573.348 864.555C572.387 867.695 570.336 870.332 567.898 871.562L566.727 870.016C569.832 868.598 572.398 864.613 572.422 860.664V856.867H574.25V860.664ZM582.172 875.945V855.062H584.023V875.945H582.172ZM594.547 858.438C594.547 861.273 596.703 863.875 599.727 864.906L598.719 866.359C596.422 865.516 594.605 863.793 593.691 861.613C592.801 864.086 590.938 865.996 588.5 866.945L587.516 865.469C590.633 864.309 592.73 861.52 592.742 858.297V856.141H594.547V858.438ZM590.281 872.055C590.293 869.676 592.906 868.281 597.195 868.281C601.473 868.281 604.062 869.676 604.062 872.055C604.062 874.48 601.473 875.852 597.195 875.852C592.906 875.852 590.293 874.48 590.281 872.055ZM592.133 872.055C592.109 873.531 594.055 874.387 597.195 874.398C600.348 874.387 602.27 873.531 602.281 872.055C602.27 870.637 600.348 869.758 597.195 869.758C594.055 869.758 592.109 870.637 592.133 872.055ZM602.047 867.742V855.062H603.875V860.5H607.016V862.047H603.875V867.742H602.047ZM615.711 858.086C615.688 861.121 617.891 863.828 620.984 864.906L620.047 866.359C617.633 865.469 615.723 863.676 614.785 861.367C613.871 863.84 611.949 865.785 609.5 866.734L608.539 865.281C611.656 864.121 613.836 861.238 613.836 858.086V856.094H615.711V858.086ZM611.516 870.18V868.656H625.531V875.898H623.703V870.18H611.516ZM623.703 867.625V855.062H625.531V867.625H623.703ZM645.969 856.422V864.906H636.195V856.422H645.969ZM637.695 874.398C641.281 874 644.727 871.973 644.727 869.898H638.562V868.469H644.75V866.43H646.578V868.469H652.812V869.898H646.625C646.613 871.926 649.965 873.953 653.539 874.398L652.906 875.828C649.777 875.395 646.918 873.918 645.676 871.996C644.422 873.965 641.492 875.395 638.352 875.828L637.695 874.398ZM638 863.453H644.164V857.922H638V863.453ZM650.469 867.039V855.062H652.273V867.039H650.469ZM679.789 855.062V875.898H678.008V855.062H679.789ZM661.625 869.219C662.281 869.219 663.02 869.219 663.828 869.207V859.258H662.07V857.711H671.656V859.258H669.898V868.973C670.672 868.926 671.422 868.855 672.102 868.773L672.242 870.156C668.973 870.707 664.613 870.789 661.859 870.812L661.625 869.219ZM665.516 869.172C666.395 869.16 667.309 869.125 668.211 869.078V859.258H665.516V869.172ZM671.164 866.945V865.422H674V862.539H671.164V861.016H674V855.578H675.734V874.797H674V866.945H671.164ZM699.688 855.062V875.898H697.859V855.062H699.688ZM682.719 870.344C684.5 870.332 686.539 870.32 688.648 870.25V867.977C686.141 867.719 684.523 866.289 684.547 864.203C684.523 861.848 686.527 860.324 689.539 860.336C692.551 860.324 694.59 861.848 694.578 864.203C694.59 866.266 692.973 867.695 690.5 867.977V870.18C692.516 870.086 694.555 869.945 696.477 869.688L696.617 871.094C691.965 871.844 686.867 871.914 683 871.914L682.719 870.344ZM683.164 859.141V857.641H688.648V855.086H690.5V857.641H695.938V859.141H683.164ZM686.258 864.203C686.246 865.645 687.605 866.594 689.539 866.57C691.484 866.594 692.832 865.645 692.82 864.203C692.832 862.75 691.484 861.766 689.539 861.766C687.605 861.766 686.246 862.75 686.258 864.203ZM710.727 858.086C710.703 861.121 712.906 863.828 716 864.906L715.062 866.359C712.648 865.469 710.738 863.676 709.801 861.367C708.887 863.84 706.965 865.785 704.516 866.734L703.555 865.281C706.672 864.121 708.852 861.238 708.852 858.086V856.094H710.727V858.086ZM706.531 870.18V868.656H720.547V875.898H718.719V870.18H706.531ZM718.719 867.625V855.062H720.547V867.625H718.719Z" fill="white"/>
<path d="M558.539 755.953V758.953H564.609V755.953H566.438V765.023H556.734V755.953H558.539ZM558.539 763.523H564.609V760.383H558.539V763.523ZM558.844 768.305V766.828H572.133V771.867H560.695V774.164H572.906V775.664H558.891V770.461H570.305V768.305H558.844ZM570.305 765.844V755.062H572.133V759.586H575.273V761.133H572.133V765.844H570.305ZM595.664 771.82V773.344H576.586V771.82H581.906V766.852H578.32V765.328H581.578V758.531H578.273V757.008H593.836V758.531H590.531V765.328H593.789V766.852H590.203V771.82H595.664ZM583.406 765.328H588.727V758.531H583.406V765.328ZM583.758 771.82H588.375V766.852H583.758V771.82ZM610.852 759.539C610.863 762.352 613.078 764.883 616.195 765.867L615.258 767.344C612.832 766.512 610.91 764.801 609.961 762.609C609.059 764.977 607.102 766.852 604.617 767.766L603.656 766.289C606.785 765.199 608.988 762.492 609 759.539V758.32H604.125V756.82H615.656V758.32H610.852V759.539ZM607.102 775.453V768.914H608.93V773.906H621.211V775.453H607.102ZM618.727 770.367V755.086H620.555V770.367H618.727ZM641.789 755.062V768.258H640.031V762.281H637.242V767.508H635.508V755.484H637.242V760.758H640.031V755.062H641.789ZM623.977 759.047V757.57H628.43V755.227H630.258V757.57H634.664V759.047H623.977ZM624.891 763.734C624.879 761.555 626.719 760.16 629.344 760.172C631.98 760.16 633.809 761.555 633.82 763.734C633.809 765.879 631.98 767.273 629.344 767.273C626.719 767.273 624.879 765.879 624.891 763.734ZM626.531 763.734C626.531 765.012 627.68 765.891 629.344 765.891C631.008 765.891 632.156 765.012 632.156 763.734C632.156 762.41 631.008 761.531 629.344 761.531C627.68 761.531 626.531 762.41 626.531 763.734ZM627.914 772.266C627.891 769.922 630.504 768.609 634.898 768.609C639.281 768.609 641.895 769.922 641.906 772.266C641.895 774.551 639.281 775.852 634.898 775.852C630.504 775.852 627.891 774.551 627.914 772.266ZM629.742 772.266C629.719 773.613 631.652 774.434 634.898 774.422C638.133 774.434 640.055 773.613 640.078 772.266C640.055 770.836 638.133 770.039 634.898 770.062C631.652 770.039 629.719 770.836 629.742 772.266ZM661.734 756.422V764.906H651.961V756.422H661.734ZM653.461 774.398C657.047 774 660.492 771.973 660.492 769.898H654.328V768.469H660.516V766.43H662.344V768.469H668.578V769.898H662.391C662.379 771.926 665.73 773.953 669.305 774.398L668.672 775.828C665.543 775.395 662.684 773.918 661.441 771.996C660.188 773.965 657.258 775.395 654.117 775.828L653.461 774.398ZM653.766 763.453H659.93V757.922H653.766V763.453ZM666.234 767.039V755.062H668.039V767.039H666.234ZM694.828 755.086V766.922H693V755.086H694.828ZM677.789 764.93C680.941 763.828 683.133 761.004 683.133 757.945V755.906H685.008V757.945C684.984 760.887 687.234 763.488 690.305 764.578L689.367 765.984C686.953 765.152 685.02 763.395 684.082 761.121C683.156 763.535 681.211 765.457 678.727 766.383L677.789 764.93ZM681.281 775.617V768.117H694.828V775.617H681.281ZM683.086 774.117H693.023V769.617H683.086V774.117ZM705.352 760.664C705.352 764.332 707.777 768.117 710.742 769.57L709.617 771.047C707.32 769.852 705.398 767.379 704.473 764.484C703.547 767.555 701.578 770.191 699.234 771.445L698.062 769.969C701.109 768.469 703.523 764.473 703.547 760.664V756.867H705.352V760.664ZM712.664 775.898V755.062H714.492V763.523H717.984V765.117H714.492V775.898H712.664Z" fill="white"/>
<path d="M84.625 774H82.4219L88.6328 757.031H90.8594L97.0703 774H94.8438L93.1445 769.219H86.3242L84.625 774ZM86.9688 767.367H92.5L89.8047 759.773H89.6641L86.9688 767.367ZM99.3672 757.031H101.898L107.617 771H107.828L113.547 757.031H116.078V774H114.086V761.18H113.922L108.648 774H106.773L101.5 761.18H101.359V774H99.3672V757.031ZM131.57 757.031V774H129.438V759.234H129.344L125.219 761.977V759.844L129.438 757.031H131.57ZM141.648 774.234C137.887 774.234 135.707 771.07 135.719 765.516C135.707 760.008 137.91 756.797 141.648 756.797C145.375 756.797 147.578 760.008 147.578 765.516C147.578 771.07 145.41 774.234 141.648 774.234ZM137.758 765.516C137.77 769.91 139.188 772.359 141.648 772.359C144.098 772.359 145.527 769.91 145.516 765.516C145.527 761.121 144.086 758.637 141.648 758.625C139.211 758.637 137.77 761.121 137.758 765.516ZM151.844 771.75C151.023 771.738 150.32 771.059 150.344 770.227C150.32 769.406 151.023 768.727 151.844 768.727C152.676 768.727 153.355 769.406 153.344 770.227C153.355 771.059 152.676 771.738 151.844 771.75ZM150.344 760.805C150.32 759.984 151.023 759.305 151.844 759.305C152.676 759.305 153.355 759.984 153.344 760.805C153.355 761.637 152.676 762.316 151.844 762.328C151.023 762.316 150.32 761.637 150.344 760.805ZM162.344 774.234C158.969 774.234 156.543 772.43 156.438 769.734H158.57C158.688 771.352 160.293 772.359 162.32 772.359C164.559 772.359 166.176 771.152 166.188 769.383C166.176 767.531 164.699 766.23 162.062 766.219H160.68V764.367H162.062C164.125 764.367 165.566 763.207 165.555 761.461C165.566 759.762 164.324 758.637 162.391 758.625C160.574 758.637 158.922 759.633 158.828 761.297H156.789C156.895 758.602 159.402 756.797 162.414 756.797C165.648 756.797 167.617 758.918 167.594 761.344C167.617 763.277 166.492 764.684 164.711 765.188V765.305C166.926 765.645 168.262 767.227 168.25 769.383C168.262 772.172 165.73 774.234 162.344 774.234ZM176.852 774.234C173.09 774.234 170.91 771.07 170.922 765.516C170.91 760.008 173.113 756.797 176.852 756.797C180.578 756.797 182.781 760.008 182.781 765.516C182.781 771.07 180.613 774.234 176.852 774.234ZM172.961 765.516C172.973 769.91 174.391 772.359 176.852 772.359C179.301 772.359 180.73 769.91 180.719 765.516C180.73 761.121 179.289 758.637 176.852 758.625C174.414 758.637 172.973 761.121 172.961 765.516ZM198.93 764.602V766.453H191.5V764.602H198.93ZM208.305 774V757.031H214.07C218.043 757.031 219.859 759.398 219.859 762.422C219.859 765.434 218.043 767.836 214.094 767.836H210.414V774H208.305ZM210.414 765.961H214C216.707 765.961 217.762 764.438 217.773 762.422C217.762 760.395 216.707 758.906 213.977 758.906H210.414V765.961ZM222.812 757.031H225.344L231.062 771H231.273L236.992 757.031H239.523V774H237.531V761.18H237.367L232.094 774H230.219L224.945 761.18H224.805V774H222.812V757.031ZM255.016 757.031V774H252.883V759.234H252.789L248.664 761.977V759.844L252.883 757.031H255.016ZM259.539 774L259.516 772.453L265.305 766.359C267.309 764.227 268.27 763.078 268.281 761.508C268.27 759.762 266.816 758.637 264.906 758.625C262.879 758.637 261.613 759.914 261.602 761.812H259.609C259.586 758.812 261.906 756.797 264.977 756.797C268.059 756.797 270.238 758.871 270.25 761.508C270.238 763.406 269.359 764.883 266.359 767.977L262.469 771.984V772.125H270.555V774H259.539ZM275.078 771.75C274.258 771.738 273.555 771.059 273.578 770.227C273.555 769.406 274.258 768.727 275.078 768.727C275.91 768.727 276.59 769.406 276.578 770.227C276.59 771.059 275.91 771.738 275.078 771.75ZM273.578 760.805C273.555 759.984 274.258 759.305 275.078 759.305C275.91 759.305 276.59 759.984 276.578 760.805C276.59 761.637 275.91 762.316 275.078 762.328C274.258 762.316 273.555 761.637 273.578 760.805ZM285.578 774.234C282.203 774.234 279.777 772.43 279.672 769.734H281.805C281.922 771.352 283.527 772.359 285.555 772.359C287.793 772.359 289.41 771.152 289.422 769.383C289.41 767.531 287.934 766.23 285.297 766.219H283.914V764.367H285.297C287.359 764.367 288.801 763.207 288.789 761.461C288.801 759.762 287.559 758.637 285.625 758.625C283.809 758.637 282.156 759.633 282.062 761.297H280.023C280.129 758.602 282.637 756.797 285.648 756.797C288.883 756.797 290.852 758.918 290.828 761.344C290.852 763.277 289.727 764.684 287.945 765.188V765.305C290.16 765.645 291.496 767.227 291.484 769.383C291.496 772.172 288.965 774.234 285.578 774.234ZM300.086 774.234C296.324 774.234 294.145 771.07 294.156 765.516C294.145 760.008 296.348 756.797 300.086 756.797C303.812 756.797 306.016 760.008 306.016 765.516C306.016 771.07 303.848 774.234 300.086 774.234ZM296.195 765.516C296.207 769.91 297.625 772.359 300.086 772.359C302.535 772.359 303.965 769.91 303.953 765.516C303.965 761.121 302.523 758.637 300.086 758.625C297.648 758.637 296.207 761.121 296.195 765.516Z" fill="white"/>
<path d="M204.371 1005.81H203.043L203.16 1002.78L200.582 1004.4L199.918 1003.25L202.613 1001.84L199.918 1000.42L200.582 999.266L203.16 1000.89L203.043 997.859H204.371L204.254 1000.89L206.832 999.266L207.496 1000.42L204.82 1001.84L207.496 1003.25L206.832 1004.4L204.254 1002.78L204.371 1005.81ZM223.012 996.219V1006.39H221.469V1001.86H217.953V1000.57H221.469V996.219H223.012ZM208.695 1005.01C211.254 1004.1 213.109 1001.78 213.109 999.305V998.621H209.184V997.352H218.539V998.621H214.652V999.305C214.652 1001.54 216.391 1003.71 218.93 1004.62L218.129 1005.83C216.176 1005.12 214.662 1003.66 213.91 1001.86C213.158 1003.88 211.557 1005.47 209.496 1006.22L208.695 1005.01ZM211.664 1013.35V1007.25H223.012V1013.35H211.664ZM213.188 1012.1H221.508V1008.48H213.188V1012.1ZM239.738 996.238V1006.1H238.215V996.238H239.738ZM225.539 1004.44C228.166 1003.52 229.992 1001.17 229.992 998.621V996.922H231.555V998.621C231.535 1001.07 233.41 1003.24 235.969 1004.15L235.188 1005.32C233.176 1004.63 231.564 1003.16 230.783 1001.27C230.012 1003.28 228.391 1004.88 226.32 1005.65L225.539 1004.44ZM228.449 1013.35V1007.1H239.738V1013.35H228.449ZM229.953 1012.1H238.234V1008.35H229.953V1012.1ZM245.039 1010.69L243.516 1016H242.07L243.145 1010.69H245.039ZM265.719 996.219V1013.62H264.176V1003.82H260.367V1002.55H264.176V996.219H265.719ZM251.168 1008.95C253.688 1007.73 255.787 1004.46 255.797 1001.38V999.285H251.832V998.016H261.324V999.285H257.34V1001.38C257.35 1004.27 259.42 1007.41 261.949 1008.56L261.031 1009.79C259.049 1008.82 257.379 1006.72 256.588 1004.29C255.807 1006.87 254.088 1009.11 252.105 1010.14L251.168 1008.95ZM270.688 997.293V1004.6C273.5 1004.59 275.551 1004.46 277.914 1004.01L278.109 1005.28C275.609 1005.79 273.432 1005.93 270.434 1005.93H269.145V997.293H270.688ZM270.805 1008.82V1007.55H282.504V1013.58H280.961V1008.82H270.805ZM275.98 1002.72V1001.51H280.961V999.578H275.98V998.367H280.961V996.219H282.504V1006.75H280.961V1002.72H275.98ZM287.746 1010.69L286.223 1016H284.777L285.852 1010.69H287.746ZM307.469 996.219V1003.09H310.379V1004.38H307.469V1013.62H305.945V996.219H307.469ZM294.793 1009.27V997.918H302.898V999.188H296.316V1007.98C299.461 1007.97 301.678 1007.83 304.266 1007.35L304.461 1008.68C301.736 1009.17 299.461 1009.27 296.16 1009.27H294.793ZM318.727 996.609C322.506 996.609 324.85 997.83 324.859 999.91C324.85 1001.96 322.506 1003.16 318.727 1003.15C314.947 1003.16 312.574 1001.96 312.574 999.91C312.574 997.83 314.947 996.609 318.727 996.609ZM310.816 1005.93V1004.66H326.637V1005.93H310.816ZM312.75 1013.35V1007.64H324.703V1013.35H312.75ZM314.156 999.91C314.146 1001.17 315.914 1001.93 318.727 1001.94C321.51 1001.93 323.287 1001.17 323.297 999.91C323.287 998.611 321.51 997.84 318.727 997.84C315.914 997.84 314.146 998.611 314.156 999.91ZM314.273 1012.1H323.199V1008.88H314.273V1012.1ZM341.176 996.219V999.852H343.793V1001.14H341.176V1004.99H339.652V996.219H341.176ZM328.441 1004.15V997H329.984V1002.82C332.445 1002.83 334.994 1002.65 337.816 1002.08L338.012 1003.37C335.043 1003.97 332.436 1004.14 329.828 1004.15H328.441ZM330.102 1007.06V1005.83H341.176V1010.07H331.664V1012.1H341.82V1013.35H330.141V1008.86H339.652V1007.06H330.102ZM353.555 997.566C356.113 997.576 357.93 999.93 357.949 1003.62C357.93 1007.32 356.113 1009.67 353.555 1009.66C350.977 1009.67 349.17 1007.32 349.18 1003.62C349.17 999.93 350.977 997.576 353.555 997.566ZM350.625 1003.62C350.635 1006.44 351.836 1008.3 353.555 1008.29C355.293 1008.3 356.465 1006.44 356.465 1003.62C356.465 1000.8 355.293 998.943 353.555 998.934C351.836 998.943 350.635 1000.8 350.625 1003.62ZM360.82 1013.58V996.219H362.344V1003.15H365.254V1004.48H362.344V1013.58H360.82ZM372 999.754C371.99 1001.96 373.895 1003.9 376.492 1004.66L375.77 1005.87C373.709 1005.25 372.068 1003.91 371.268 1002.19C370.506 1004.08 368.865 1005.54 366.785 1006.24L366.043 1005.05C368.621 1004.21 370.477 1002.11 370.477 999.754V999.52H366.473V998.289H370.477V996.141H372.02V998.289H375.984V999.52H372V999.754ZM368.738 1013.35V1007.41H380.027V1013.35H368.738ZM370.242 1012.1H378.523V1008.66H370.242V1012.1ZM378.504 1006.53V996.238H380.027V1006.53H378.504ZM396.059 997.352V1004.42H387.914V997.352H396.059ZM389.164 1012.33C392.152 1012 395.023 1010.31 395.023 1008.58H389.887V1007.39H395.043V1005.69H396.566V1007.39H401.762V1008.58H396.605C396.596 1010.27 399.389 1011.96 402.367 1012.33L401.84 1013.52C399.232 1013.16 396.85 1011.93 395.814 1010.33C394.77 1011.97 392.328 1013.16 389.711 1013.52L389.164 1012.33ZM389.418 1003.21H394.555V998.602H389.418V1003.21ZM399.809 1006.2V996.219H401.312V1006.2H399.809ZM421.875 996.219V1001.51H424.492V1002.8H421.875V1008.93H420.332V996.219H421.875ZM408.32 1005.69C412.49 1004.39 415.195 1001.92 415.518 998.855H409.043V997.566H417.188C417.188 1002.04 413.994 1005.36 408.984 1006.92L408.32 1005.69ZM410.996 1013.21V1007.64H412.52V1011.92H422.676V1013.21H410.996ZM438.66 996.219V1001.39H441.297V1002.68H438.66V1008.8H437.137V996.219H438.66ZM425.906 1005.71V997.723H433.641V999.012H427.43V1004.42C430.916 1004.43 432.898 1004.32 435.223 1003.86L435.418 1005.12C432.977 1005.59 430.906 1005.71 427.254 1005.71H425.906ZM427.801 1013.21V1007.53H429.305V1011.92H439.461V1013.21H427.801ZM455.445 996.238V1001.96H458.062V1003.25H455.445V1009.25H453.922V996.238H455.445ZM441.91 999.617V998.367H446.324V996.238H447.848V998.367H452.262V999.617H441.91ZM442.906 1003.82C442.896 1001.84 444.576 1000.57 447.086 1000.57C449.566 1000.57 451.246 1001.84 451.266 1003.82C451.246 1005.77 449.566 1007.03 447.086 1007.02C444.576 1007.03 442.896 1005.77 442.906 1003.82ZM444.371 1003.82C444.361 1005.04 445.445 1005.83 447.086 1005.81C448.707 1005.83 449.801 1005.04 449.82 1003.82C449.801 1002.58 448.707 1001.78 447.086 1001.79C445.445 1001.78 444.361 1002.58 444.371 1003.82ZM444.586 1013.21V1008.21H446.09V1011.92H456.246V1013.21H444.586ZM476.75 996.219V1001.51H479.367V1002.8H476.75V1008.93H475.207V996.219H476.75ZM463.195 1005.69C467.365 1004.39 470.07 1001.92 470.393 998.855H463.918V997.566H472.062C472.062 1002.04 468.869 1005.36 463.859 1006.92L463.195 1005.69ZM465.871 1013.21V1007.64H467.395V1011.92H477.551V1013.21H465.871ZM486.113 998.738C486.094 1001.27 487.93 1003.52 490.508 1004.42L489.727 1005.63C487.715 1004.89 486.123 1003.4 485.342 1001.47C484.58 1003.53 482.979 1005.15 480.938 1005.95L480.137 1004.73C482.734 1003.77 484.551 1001.37 484.551 998.738V997.078H486.113V998.738ZM482.617 1008.82V1007.55H494.297V1013.58H492.773V1008.82H482.617ZM492.773 1006.69V996.219H494.297V1006.69H492.773ZM511.062 996.219V1013.62H509.52V996.219H511.062ZM497.391 1003.62C497.4 999.93 499.236 997.576 501.824 997.566C504.402 997.576 506.268 999.93 506.258 1003.62C506.268 1007.32 504.402 1009.67 501.824 1009.66C499.236 1009.67 497.4 1007.32 497.391 1003.62ZM498.875 1003.62C498.875 1006.44 500.086 1008.3 501.824 1008.29C503.572 1008.3 504.773 1006.44 504.773 1003.62C504.773 1000.8 503.572 998.943 501.824 998.934C500.086 998.943 498.875 1000.8 498.875 1003.62ZM532.895 996.219V1013.58H531.43V996.219H532.895ZM517.836 1008.95C520.258 1007.51 521.674 1004.33 521.664 1001.18V999.539H518.324V998.27H526.332V999.539H523.148V1001.18C523.148 1004.18 524.506 1007.18 526.898 1008.56L525.961 1009.7C524.252 1008.67 523.041 1006.79 522.436 1004.59C521.811 1006.98 520.551 1009.02 518.812 1010.11L517.836 1008.95ZM525.004 1003.74V1002.49H527.934V996.648H529.379V1012.68H527.934V1003.74H525.004ZM542.688 1007.2C546.408 1007.2 548.771 1008.37 548.781 1010.38C548.771 1012.37 546.408 1013.54 542.688 1013.54C538.967 1013.54 536.604 1012.37 536.613 1010.38C536.604 1008.37 538.967 1007.2 542.688 1007.2ZM534.855 1005.57V1004.32H541.398V1000.96H542.902V1004.32H550.656V1005.57H534.855ZM536.73 998.367V997.117H548.645V998.582C548.635 999.988 548.635 1001.39 548.156 1003.19L546.652 1003.02C547.121 1001.23 547.121 999.939 547.121 998.582V998.367H536.73ZM538.137 1010.38C538.127 1011.59 539.924 1012.33 542.688 1012.33C545.461 1012.33 547.238 1011.59 547.258 1010.38C547.238 1009.14 545.461 1008.38 542.688 1008.37C539.924 1008.38 538.127 1009.14 538.137 1010.38ZM565.957 996.238V1006.22H564.414V996.238H565.957ZM551.68 1004.52C553.154 1004.52 554.873 1004.52 556.66 1004.46V1002.59H553.262V997.098H561.504V998.367H554.805V1001.36H561.66V1002.59H558.203V1004.39C559.814 1004.31 561.445 1004.19 562.969 1003.97L563.066 1005.09C559.258 1005.73 555.049 1005.79 551.914 1005.79L551.68 1004.52ZM554.512 1013.35V1007H556.035V1008.86H564.453V1007H565.957V1013.35H554.512ZM556.035 1012.1H564.453V1010.05H556.035V1012.1ZM582.723 996.219V1013.58H581.199V996.219H582.723ZM569.539 1009.11V997.938H571.043V1007.78C573.699 1007.76 576.434 1007.56 579.344 1006.94L579.559 1008.25C576.473 1008.89 573.729 1009.11 570.945 1009.11H569.539ZM598.629 996.219V1003.09H601.539V1004.38H598.629V1013.62H597.105V996.219H598.629ZM585.953 1009.27V997.918H594.059V999.188H587.477V1007.98C590.621 1007.97 592.838 1007.83 595.426 1007.35L595.621 1008.68C592.896 1009.17 590.621 1009.27 587.32 1009.27H585.953ZM603.812 1012.12C603.129 1012.11 602.543 1011.54 602.562 1010.85C602.543 1010.16 603.129 1009.6 603.812 1009.6C604.506 1009.6 605.072 1010.16 605.062 1010.85C605.072 1011.54 604.506 1012.11 603.812 1012.12Z" fill="#B2B2B2"/>
</svg>
